SplineFontDB: 3.2
FontName: Kilroy3W60-8ptRegular
FullName: Kilroy3W60 8pt Regular
FamilyName: Kilroy3W60 8pt
Weight: Regular
Copyright: Copyright 2020 The Roboto Serif Project Authors (https://github.com/googlefonts/RobotoSerif) OFL
Version: 1.008
ItalicAngle: 0
UnderlinePosition: -200
UnderlineWidth: 100
Ascent: 800
Descent: 200
InvalidEm: 0
sfntRevision: 0x0001020c
LayerCount: 2
Layer: 0 1 "Back" 1
Layer: 1 1 "Fore" 0
XUID: [1021 1018 -1064020043 24873]
StyleMap: 0x0040
FSType: 0
OS2Version: 4
OS2_WeightWidthSlopeOnly: 0
OS2_UseTypoMetrics: 1
CreationTime: 1586430965
ModificationTime: 1751864026
PfmFamily: 81
TTFWeight: 450
TTFWidth: 2
LineGap: 0
VLineGap: 0
Panose: 0 0 0 0 0 0 0 0 0 0
OS2TypoAscent: 927
OS2TypoAOffset: 0
OS2TypoDescent: -244
OS2TypoDOffset: 0
OS2TypoLinegap: 0
OS2WinAscent: 1048
OS2WinAOffset: 0
OS2WinDescent: 251
OS2WinDOffset: 0
HheadAscent: 927
HheadAOffset: 0
HheadDescent: -244
HheadDOffset: 0
OS2SubXSize: 650
OS2SubYSize: 600
OS2SubXOff: 0
OS2SubYOff: 75
OS2SupXSize: 650
OS2SupYSize: 600
OS2SupXOff: 0
OS2SupYOff: 350
OS2StrikeYSize: 100
OS2StrikeYPos: 311
OS2CapHeight: 710
OS2XHeight: 518
OS2Vendor: 'COMM'
OS2CodePages: 20000193.00000000
OS2UnicodeRanges: a10000ef.4000267a.00000000.00000000
Lookup: 5 0 0 "'locl' Localized Forms in Latin lookup 0" { "'locl' Localized Forms in Latin lookup 0 subtable"  } ['locl' ('latn' <'AZE ' 'CRT ' 'TRK ' > ) ]
Lookup: 1 0 0 "Single Substitution lookup 1" { "Single Substitution lookup 1 subtable"  } []
Lookup: 5 0 0 "'locl' Localized Forms in Latin lookup 2" { "'locl' Localized Forms in Latin lookup 2 subtable"  } ['locl' ('latn' <'PLK ' > ) ]
Lookup: 1 0 0 "Single Substitution lookup 3" { "Single Substitution lookup 3 subtable"  } []
Lookup: 6 0 0 "'locl' Localized Forms in Latin lookup 4" { "'locl' Localized Forms in Latin lookup 4 subtable"  } ['locl' ('latn' <'CAT ' > ) ]
Lookup: 4 0 0 "Ligature Substitution lookup 5" { "Ligature Substitution lookup 5 subtable"  } []

StartChar: .notdef
Encoding: 65536 -1 0
Width: 400
GlyphClass: 1
Flags: W
LayerCount: 2
Fore
SplineSet
0 0 m 1,0,-1
 0 700 l 1,1,-1
 400 700 l 1,2,-1
 400 0 l 1,3,-1
 0 0 l 1,0,-1
50 650 m 1,4,-1
 50 50 l 1,5,-1
 350 50 l 1,6,-1
 350 650 l 1,7,-1
 50 650 l 1,4,-1
EndSplineSet
EndChar

StartChar: A
Encoding: 65 65 6
Width: 648
GlyphClass: 2
Flags: W
AnchorPoint: "Anchor-2" 512 0 basechar 0
AnchorPoint: "Anchor-1" 324 0 basechar 0
AnchorPoint: "Anchor-0" 324 721 basechar 0
LayerCount: 2
Fore
SplineSet
188 305 m 1,0,-1
 421 305 l 1,1,-1
 436 222 l 1,2,-1
 174 222 l 1,3,-1
 188 305 l 1,0,-1
292 688 m 1,4,-1
 328 684 l 1,5,-1
 163 104 l 2,6,7
 163 99 163 99 171 93.5 c 128,-1,8
 179 88 179 88 192 85 c 128,-1,9
 205 82 205 82 222 82 c 2,10,-1
 230 82 l 1,11,-1
 230 0 l 1,12,-1
 17 0 l 1,13,-1
 17 82 l 1,14,-1
 22 82 l 2,15,16
 39 82 39 82 55 94 c 128,-1,17
 71 106 71 106 82 146 c 2,18,-1
 252 722 l 1,19,-1
 391 722 l 1,20,-1
 561 146 l 2,21,22
 572 106 572 106 589.5 94 c 128,-1,23
 607 82 607 82 629 82 c 2,24,-1
 633 82 l 1,25,-1
 633 0 l 1,26,-1
 386 0 l 1,27,-1
 386 82 l 1,28,-1
 395 82 l 2,29,30
 416 82 416 82 430.5 83.5 c 128,-1,31
 445 85 445 85 453 87.5 c 128,-1,32
 461 90 461 90 461 93 c 2,33,-1
 292 688 l 1,4,-1
EndSplineSet
EndChar

StartChar: Aogonek
Encoding: 260 260 15
Width: 648
GlyphClass: 1
Flags: W
LayerCount: 2
Fore
SplineSet
188 304 m 1,0,-1
 421 304 l 1,1,-1
 436 225 l 1,2,-1
 174 225 l 1,3,-1
 188 304 l 1,0,-1
513 40 m 1,4,-1
 544 6 l 1,5,6
 502 -33 502 -33 479 -56.5 c 128,-1,7
 456 -80 456 -80 446.5 -100 c 128,-1,8
 437 -120 437 -120 437 -144 c 0,9,10
 437 -161 437 -161 446 -173 c 128,-1,11
 455 -185 455 -185 474 -185 c 0,12,13
 498 -185 498 -185 515.5 -171.5 c 128,-1,14
 533 -158 533 -158 544 -141 c 1,15,-1
 588 -180 l 1,16,17
 565 -212 565 -212 533 -232 c 128,-1,18
 501 -252 501 -252 450 -252 c 0,19,20
 396 -252 396 -252 360 -230 c 128,-1,21
 324 -208 324 -208 324 -156 c 0,22,23
 324 -130 324 -130 332 -109.5 c 128,-1,24
 340 -89 340 -89 360.5 -68.5 c 128,-1,25
 381 -48 381 -48 418 -22.5 c 128,-1,26
 455 3 455 3 513 40 c 1,4,-1
633 0 m 1,27,-1
 489 0 l 1,28,-1
 292 688 l 1,29,-1
 324 664 l 1,30,-1
 166 105 l 2,31,32
 166 99 166 99 173.5 93.5 c 128,-1,33
 181 88 181 88 194 85 c 128,-1,34
 207 82 207 82 225 82 c 2,35,-1
 233 82 l 1,36,-1
 233 0 l 1,37,-1
 17 0 l 1,38,-1
 17 82 l 1,39,-1
 22 82 l 2,40,41
 39 82 39 82 55 94.5 c 128,-1,42
 71 107 71 107 82 146 c 2,43,-1
 252 722 l 1,44,-1
 391 722 l 1,45,-1
 561 146 l 2,46,47
 572 106 572 106 589 94 c 128,-1,48
 606 82 606 82 628 82 c 2,49,-1
 633 82 l 1,50,-1
 633 0 l 1,27,-1
EndSplineSet
EndChar

StartChar: Acaron
Encoding: 461 461 16
Width: 648
GlyphClass: 1
Flags: W
LayerCount: 2
Fore
SplineSet
282 804 m 1,0,-1
 358 804 l 1,1,-1
 477 959 l 1,2,-1
 477 983 l 1,3,-1
 421 983 l 1,4,-1
 264 846 l 1,5,-1
 382 848 l 1,6,-1
 226 983 l 1,7,-1
 163 983 l 1,8,-1
 163 959 l 1,9,-1
 282 804 l 1,0,-1
188 305 m 1,10,-1
 421 305 l 1,11,-1
 436 222 l 1,12,-1
 174 222 l 1,13,-1
 188 305 l 1,10,-1
292 688 m 1,14,-1
 328 684 l 1,15,-1
 163 104 l 2,16,17
 163 99 163 99 170.5 93.5 c 128,-1,18
 178 88 178 88 191.5 85 c 128,-1,19
 205 82 205 82 222 82 c 2,20,-1
 230 82 l 1,21,-1
 230 0 l 1,22,-1
 17 0 l 1,23,-1
 17 82 l 1,24,-1
 22 82 l 2,25,26
 39 82 39 82 54.5 94 c 128,-1,27
 70 106 70 106 82 146 c 2,28,-1
 252 722 l 1,29,-1
 391 722 l 1,30,-1
 561 146 l 2,31,32
 573 106 573 106 589.5 94 c 128,-1,33
 606 82 606 82 628 82 c 2,34,-1
 633 82 l 1,35,-1
 633 0 l 1,36,-1
 386 0 l 1,37,-1
 386 82 l 1,38,-1
 395 82 l 2,39,40
 416 82 416 82 430.5 83.5 c 128,-1,41
 445 85 445 85 453 87.5 c 128,-1,42
 461 90 461 90 461 93 c 2,43,-1
 292 688 l 1,14,-1
EndSplineSet
EndChar

StartChar: Adblgrave
Encoding: 512 512 18
Width: 648
GlyphClass: 1
Flags: W
LayerCount: 2
Fore
SplineSet
415 926 m 2,0,-1
 454 828 l 1,1,-1
 454 792 l 1,2,-1
 410 792 l 1,3,-1
 343 855 l 2,4,5
 323 874 323 874 311.5 893 c 128,-1,6
 300 912 300 912 300 934 c 0,7,8
 300 953 300 953 313.5 966 c 128,-1,9
 327 979 327 979 351 979 c 0,10,11
 368 979 368 979 380.5 971.5 c 128,-1,12
 393 964 393 964 401.5 952 c 128,-1,13
 410 940 410 940 415 926 c 2,0,-1
236 926 m 2,14,-1
 272 828 l 1,15,-1
 272 792 l 1,16,-1
 228 792 l 1,17,-1
 161 855 l 2,18,19
 141 874 141 874 129.5 893 c 128,-1,20
 118 912 118 912 118 934 c 0,21,22
 118 953 118 953 132 966 c 128,-1,23
 146 979 146 979 169 979 c 0,24,25
 186 979 186 979 199 971.5 c 128,-1,26
 212 964 212 964 221.5 952 c 128,-1,27
 231 940 231 940 236 926 c 2,14,-1
188 305 m 1,28,-1
 421 305 l 1,29,-1
 436 222 l 1,30,-1
 174 222 l 1,31,-1
 188 305 l 1,28,-1
292 688 m 1,32,-1
 328 684 l 1,33,-1
 163 104 l 2,34,35
 163 99 163 99 170.5 93.5 c 128,-1,36
 178 88 178 88 191.5 85 c 128,-1,37
 205 82 205 82 222 82 c 2,38,-1
 230 82 l 1,39,-1
 230 0 l 1,40,-1
 17 0 l 1,41,-1
 17 82 l 1,42,-1
 22 82 l 2,43,44
 39 82 39 82 54.5 94 c 128,-1,45
 70 106 70 106 82 146 c 2,46,-1
 252 722 l 1,47,-1
 391 722 l 1,48,-1
 561 146 l 2,49,50
 573 106 573 106 589.5 94 c 128,-1,51
 606 82 606 82 628 82 c 2,52,-1
 633 82 l 1,53,-1
 633 0 l 1,54,-1
 386 0 l 1,55,-1
 386 82 l 1,56,-1
 395 82 l 2,57,58
 416 82 416 82 430.5 83.5 c 128,-1,59
 445 85 445 85 453 87.5 c 128,-1,60
 461 90 461 90 461 93 c 2,61,-1
 292 688 l 1,32,-1
EndSplineSet
EndChar

StartChar: Ainvertedbreve
Encoding: 514 514 19
Width: 648
GlyphClass: 1
Flags: W
LayerCount: 2
Fore
SplineSet
325 933 m 0,0,1
 270 933 270 933 234 917 c 128,-1,2
 198 901 198 901 179 864 c 128,-1,3
 160 827 160 827 160 766 c 1,4,-1
 237 766 l 1,5,6
 239 800 239 800 247 819 c 128,-1,7
 255 838 255 838 273.5 845.5 c 128,-1,8
 292 853 292 853 325 853 c 0,9,10
 354 853 354 853 372 845.5 c 128,-1,11
 390 838 390 838 398.5 819.5 c 128,-1,12
 407 801 407 801 409 766 c 1,13,-1
 491 766 l 1,14,15
 490 827 490 827 470 864 c 128,-1,16
 450 901 450 901 413.5 917 c 128,-1,17
 377 933 377 933 325 933 c 0,0,1
188 305 m 1,18,-1
 421 305 l 1,19,-1
 436 222 l 1,20,-1
 174 222 l 1,21,-1
 188 305 l 1,18,-1
292 688 m 1,22,-1
 328 684 l 1,23,-1
 163 105 l 2,24,25
 163 99 163 99 171 93.5 c 128,-1,26
 179 88 179 88 192 85 c 128,-1,27
 205 82 205 82 222 82 c 2,28,-1
 230 82 l 1,29,-1
 230 0 l 1,30,-1
 17 0 l 1,31,-1
 17 82 l 1,32,-1
 22 82 l 2,33,34
 39 82 39 82 54.5 94 c 128,-1,35
 70 106 70 106 82 146 c 2,36,-1
 252 722 l 1,37,-1
 391 722 l 1,38,-1
 561 146 l 2,39,40
 573 106 573 106 590 94 c 128,-1,41
 607 82 607 82 628 82 c 2,42,-1
 633 82 l 1,43,-1
 633 0 l 1,44,-1
 386 0 l 1,45,-1
 386 82 l 1,46,-1
 395 82 l 2,47,48
 416 82 416 82 430.5 83.5 c 128,-1,49
 445 85 445 85 453 87.5 c 128,-1,50
 461 90 461 90 461 93 c 2,51,-1
 292 688 l 1,22,-1
EndSplineSet
EndChar

StartChar: B
Encoding: 66 66 32
Width: 633
GlyphClass: 2
Flags: W
AnchorPoint: "Anchor-0" 319 741 basechar 0
LayerCount: 2
Fore
SplineSet
343 710 m 2,0,1
 395 710 395 710 434.5 699.5 c 128,-1,2
 474 689 474 689 500.5 667 c 128,-1,3
 527 645 527 645 541 612 c 128,-1,4
 555 579 555 579 555 534 c 256,5,6
 555 489 555 489 536 453.5 c 128,-1,7
 517 418 517 418 480 397.5 c 128,-1,8
 443 377 443 377 387 375 c 1,9,-1
 394 391 l 1,10,-1
 394 352 l 1,11,-1
 387 372 l 1,12,13
 450 368 450 368 493 346 c 128,-1,14
 536 324 536 324 558.5 286.5 c 128,-1,15
 581 249 581 249 581 197 c 0,16,17
 581 146 581 146 566 109 c 128,-1,18
 551 72 551 72 521.5 48 c 128,-1,19
 492 24 492 24 449.5 12 c 128,-1,20
 407 0 407 0 351 0 c 2,21,-1
 50 0 l 1,22,-1
 50 82 l 1,23,-1
 59 82 l 2,24,25
 81 82 81 82 99 89 c 128,-1,26
 117 96 117 96 117 119 c 2,27,-1
 117 592 l 2,28,29
 117 614 117 614 99 621 c 128,-1,30
 81 628 81 628 59 628 c 2,31,-1
 50 628 l 1,32,-1
 50 710 l 1,33,-1
 343 710 l 2,0,1
191 410 m 1,34,-1
 330 410 l 2,35,36
 370 410 370 410 393.5 423 c 128,-1,37
 417 436 417 436 428 461.5 c 128,-1,38
 439 487 439 487 439 527 c 0,39,40
 439 560 439 560 428.5 582.5 c 128,-1,41
 418 605 418 605 394.5 617 c 128,-1,42
 371 629 371 629 331 629 c 2,43,-1
 230 629 l 1,44,-1
 230 81 l 1,45,-1
 338 81 l 2,46,47
 383 81 383 81 410 95 c 128,-1,48
 437 109 437 109 450 136.5 c 128,-1,49
 463 164 463 164 463 204 c 0,50,51
 463 245 463 245 449 274 c 128,-1,52
 435 303 435 303 405.5 318 c 128,-1,53
 376 333 376 333 329 333 c 2,54,-1
 191 333 l 1,55,-1
 191 410 l 1,34,-1
EndSplineSet
EndChar

StartChar: C
Encoding: 67 67 33
Width: 664
GlyphClass: 2
Flags: W
AnchorPoint: "Anchor-1" 351 0 basechar 0
AnchorPoint: "Anchor-0" 351 741 basechar 0
LayerCount: 2
Fore
SplineSet
342 652 m 0,0,1
 298 652 298 652 265.5 634.5 c 128,-1,2
 233 617 233 617 212 581.5 c 128,-1,3
 191 546 191 546 181 490 c 128,-1,4
 171 434 171 434 171 356 c 0,5,6
 171 279 171 279 181.5 222.5 c 128,-1,7
 192 166 192 166 213.5 129.5 c 128,-1,8
 235 93 235 93 269.5 75.5 c 128,-1,9
 304 58 304 58 352 58 c 0,10,11
 409 58 409 58 445 83 c 128,-1,12
 481 108 481 108 503 147.5 c 128,-1,13
 525 187 525 187 538 231 c 1,14,-1
 612 201 l 1,15,16
 592 133 592 133 556.5 82.5 c 128,-1,17
 521 32 521 32 468.5 4.5 c 128,-1,18
 416 -23 416 -23 344 -23 c 0,19,20
 277 -23 277 -23 223.5 1 c 128,-1,21
 170 25 170 25 131 72.5 c 128,-1,22
 92 120 92 120 71 191 c 128,-1,23
 50 262 50 262 50 356 c 256,24,25
 50 450 50 450 71 520.5 c 128,-1,26
 92 591 92 591 130.5 638.5 c 128,-1,27
 169 686 169 686 221.5 709.5 c 128,-1,28
 274 733 274 733 336 733 c 0,29,30
 393 733 393 733 435 707.5 c 128,-1,31
 477 682 477 682 503 631 c 128,-1,32
 529 580 529 580 535 503 c 1,33,-1
 510 536 l 1,34,-1
 525 719 l 1,35,-1
 603 719 l 1,36,-1
 603 470 l 1,37,-1
 515 470 l 1,38,39
 499 527 499 527 476 567.5 c 128,-1,40
 453 608 453 608 420 630 c 128,-1,41
 387 652 387 652 342 652 c 0,0,1
EndSplineSet
EndChar

StartChar: Ccaron
Encoding: 268 268 38
Width: 664
GlyphClass: 1
Flags: W
LayerCount: 2
Fore
SplineSet
297 804 m 1,0,-1
 374 804 l 1,1,-1
 492 959 l 1,2,-1
 492 983 l 1,3,-1
 437 983 l 1,4,-1
 279 846 l 1,5,-1
 397 848 l 1,6,-1
 242 983 l 1,7,-1
 178 983 l 1,8,-1
 178 959 l 1,9,-1
 297 804 l 1,0,-1
342 652 m 0,10,11
 298 652 298 652 265.5 634.5 c 128,-1,12
 233 617 233 617 212 581.5 c 128,-1,13
 191 546 191 546 181 490 c 128,-1,14
 171 434 171 434 171 356 c 0,15,16
 171 279 171 279 181.5 222.5 c 128,-1,17
 192 166 192 166 213.5 129.5 c 128,-1,18
 235 93 235 93 269.5 75.5 c 128,-1,19
 304 58 304 58 352 58 c 0,20,21
 409 58 409 58 445 83 c 128,-1,22
 481 108 481 108 503 147.5 c 128,-1,23
 525 187 525 187 538 231 c 1,24,-1
 612 201 l 1,25,26
 592 133 592 133 556.5 82.5 c 128,-1,27
 521 32 521 32 468.5 4.5 c 128,-1,28
 416 -23 416 -23 344 -23 c 0,29,30
 277 -23 277 -23 223.5 1 c 128,-1,31
 170 25 170 25 131 72.5 c 128,-1,32
 92 120 92 120 71 191 c 128,-1,33
 50 262 50 262 50 356 c 256,34,35
 50 450 50 450 71 520.5 c 128,-1,36
 92 591 92 591 130.5 638.5 c 128,-1,37
 169 686 169 686 221.5 709.5 c 128,-1,38
 274 733 274 733 336 733 c 0,39,40
 393 733 393 733 435 707.5 c 128,-1,41
 477 682 477 682 503 631 c 128,-1,42
 529 580 529 580 535 503 c 1,43,-1
 510 536 l 1,44,-1
 525 719 l 1,45,-1
 603 719 l 1,46,-1
 603 470 l 1,47,-1
 515 470 l 1,48,49
 499 527 499 527 476 567.5 c 128,-1,50
 453 608 453 608 420 630 c 128,-1,51
 387 652 387 652 342 652 c 0,10,11
EndSplineSet
EndChar

StartChar: D
Encoding: 68 68 40
Width: 695
GlyphClass: 2
Flags: W
AnchorPoint: "Anchor-1" 350 0 basechar 0
AnchorPoint: "Anchor-0" 350 741 basechar 0
LayerCount: 2
Fore
SplineSet
50 628 m 1,0,-1
 50 710 l 1,1,-1
 320 710 l 2,2,3
 396 710 396 710 456 689 c 128,-1,4
 516 668 516 668 558.5 625 c 128,-1,5
 601 582 601 582 623 515.5 c 128,-1,6
 645 449 645 449 645 359 c 256,7,8
 645 269 645 269 623 201.5 c 128,-1,9
 601 134 601 134 558.5 89.5 c 128,-1,10
 516 45 516 45 456 22.5 c 128,-1,11
 396 0 396 0 320 0 c 2,12,-1
 50 0 l 1,13,-1
 50 82 l 1,14,-1
 59 82 l 2,15,16
 81 82 81 82 99 89 c 128,-1,17
 117 96 117 96 117 118 c 2,18,-1
 117 592 l 2,19,20
 117 614 117 614 99 621 c 128,-1,21
 81 628 81 628 59 628 c 2,22,-1
 50 628 l 1,0,-1
313 629 m 2,23,-1
 230 629 l 1,24,-1
 230 81 l 1,25,-1
 313 81 l 2,26,27
 368 81 368 81 407.5 97.5 c 128,-1,28
 447 114 447 114 473.5 149 c 128,-1,29
 500 184 500 184 512.5 236 c 128,-1,30
 525 288 525 288 525 359 c 256,31,32
 525 430 525 430 512.5 481 c 128,-1,33
 500 532 500 532 473.5 565 c 128,-1,34
 447 598 447 598 407.5 613.5 c 128,-1,35
 368 629 368 629 313 629 c 2,23,-1
EndSplineSet
EndChar

StartChar: Dcaron
Encoding: 270 270 41
Width: 695
GlyphClass: 1
Flags: W
LayerCount: 2
Fore
SplineSet
304 804 m 1,0,-1
 380 804 l 1,1,-1
 499 959 l 1,2,-1
 499 983 l 1,3,-1
 443 983 l 1,4,-1
 286 846 l 1,5,-1
 404 848 l 1,6,-1
 248 983 l 1,7,-1
 185 983 l 1,8,-1
 185 959 l 1,9,-1
 304 804 l 1,0,-1
50 628 m 1,10,-1
 50 710 l 1,11,-1
 320 710 l 2,12,13
 396 710 396 710 456 689 c 128,-1,14
 516 668 516 668 558.5 625 c 128,-1,15
 601 582 601 582 623 515.5 c 128,-1,16
 645 449 645 449 645 359 c 256,17,18
 645 269 645 269 623 201.5 c 128,-1,19
 601 134 601 134 558.5 89.5 c 128,-1,20
 516 45 516 45 456 22.5 c 128,-1,21
 396 0 396 0 320 0 c 2,22,-1
 50 0 l 1,23,-1
 50 82 l 1,24,-1
 59 82 l 2,25,26
 81 82 81 82 99 89 c 128,-1,27
 117 96 117 96 117 118 c 2,28,-1
 117 592 l 2,29,30
 117 614 117 614 99 621 c 128,-1,31
 81 628 81 628 59 628 c 2,32,-1
 50 628 l 1,10,-1
313 629 m 2,33,-1
 230 629 l 1,34,-1
 230 81 l 1,35,-1
 313 81 l 2,36,37
 368 81 368 81 407.5 97.5 c 128,-1,38
 447 114 447 114 473.5 149 c 128,-1,39
 500 184 500 184 512.5 236 c 128,-1,40
 525 288 525 288 525 359 c 256,41,42
 525 430 525 430 512.5 481 c 128,-1,43
 500 532 500 532 473.5 565 c 128,-1,44
 447 598 447 598 407.5 613.5 c 128,-1,45
 368 629 368 629 313 629 c 2,33,-1
EndSplineSet
EndChar

StartChar: E
Encoding: 69 69 44
Width: 620
GlyphClass: 2
Flags: W
AnchorPoint: "Anchor-2" 429 0 basechar 0
AnchorPoint: "Anchor-1" 367 0 basechar 0
AnchorPoint: "Anchor-0" 367 741 basechar 0
LayerCount: 2
Fore
SplineSet
561 224 m 1,0,-1
 561 0 l 1,1,-1
 50 0 l 1,2,-1
 50 82 l 1,3,-1
 59 82 l 2,4,5
 81 82 81 82 99 89 c 128,-1,6
 117 96 117 96 117 119 c 2,7,-1
 117 591 l 2,8,9
 117 614 117 614 99 621 c 128,-1,10
 81 628 81 628 59 628 c 2,11,-1
 50 628 l 1,12,-1
 50 710 l 1,13,-1
 543 710 l 1,14,-1
 543 511 l 1,15,-1
 462 511 l 1,16,-1
 452 585 l 2,17,18
 449 602 449 602 438.5 612 c 128,-1,19
 428 622 428 622 407 625.5 c 128,-1,20
 386 629 386 629 353 629 c 2,21,-1
 230 629 l 1,22,-1
 230 81 l 1,23,-1
 365 81 l 2,24,25
 391 81 391 81 410 83 c 128,-1,26
 429 85 429 85 441 90 c 128,-1,27
 453 95 453 95 459 104 c 128,-1,28
 465 113 465 113 467 125 c 2,29,-1
 479 224 l 1,30,-1
 561 224 l 1,0,-1
216 402 m 1,31,32
 257 405 257 405 298 407.5 c 128,-1,33
 339 410 339 410 379.5 413 c 128,-1,34
 420 416 420 416 461 417 c 1,35,-1
 461 313 l 1,36,37
 420 316 420 316 379.5 318 c 128,-1,38
 339 320 339 320 298 323 c 128,-1,39
 257 326 257 326 216 328 c 1,40,-1
 216 402 l 1,31,32
EndSplineSet
Substitution2: "'ss01' Style Set 1 lookup 61 subtable" E.alt
EndChar

StartChar: Ecaron
Encoding: 282 282 53
Width: 620
GlyphClass: 1
Flags: W
LayerCount: 2
Fore
SplineSet
281 804 m 1,0,-1
 357 804 l 1,1,-1
 476 959 l 1,2,-1
 476 983 l 1,3,-1
 420 983 l 1,4,-1
 263 846 l 1,5,-1
 381 848 l 1,6,-1
 225 983 l 1,7,-1
 161 983 l 1,8,-1
 161 959 l 1,9,-1
 281 804 l 1,0,-1
561 224 m 1,10,-1
 561 0 l 1,11,-1
 50 0 l 1,12,-1
 50 82 l 1,13,-1
 59 82 l 2,14,15
 81 82 81 82 99 89 c 128,-1,16
 117 96 117 96 117 119 c 2,17,-1
 117 591 l 2,18,19
 117 614 117 614 99 621 c 128,-1,20
 81 628 81 628 59 628 c 2,21,-1
 50 628 l 1,22,-1
 50 710 l 1,23,-1
 543 710 l 1,24,-1
 543 511 l 1,25,-1
 462 511 l 1,26,-1
 452 585 l 2,27,28
 449 602 449 602 438.5 612 c 128,-1,29
 428 622 428 622 407 625.5 c 128,-1,30
 386 629 386 629 353 629 c 2,31,-1
 230 629 l 1,32,-1
 230 81 l 1,33,-1
 365 81 l 2,34,35
 391 81 391 81 410 83 c 128,-1,36
 429 85 429 85 441 90 c 128,-1,37
 453 95 453 95 459 104 c 128,-1,38
 465 113 465 113 467 125 c 2,39,-1
 479 224 l 1,40,-1
 561 224 l 1,10,-1
216 402 m 1,41,42
 257 405 257 405 298 407.5 c 128,-1,43
 339 410 339 410 379.5 413 c 128,-1,44
 420 416 420 416 461 417 c 1,45,-1
 461 313 l 1,46,47
 420 316 420 316 379.5 318 c 128,-1,48
 339 320 339 320 298 323 c 128,-1,49
 257 326 257 326 216 328 c 1,50,-1
 216 402 l 1,41,42
EndSplineSet
Substitution2: "'ss01' Style Set 1 lookup 61 subtable" Ecaron.alt
EndChar

StartChar: Edblgrave
Encoding: 516 516 54
Width: 620
GlyphClass: 1
Flags: W
LayerCount: 2
Fore
SplineSet
396 926 m 2,0,-1
 435 828 l 1,1,-1
 435 792 l 1,2,-1
 390 792 l 1,3,-1
 323 855 l 2,4,5
 303 874 303 874 292 893 c 128,-1,6
 281 912 281 912 281 934 c 0,7,8
 281 953 281 953 294.5 966 c 128,-1,9
 308 979 308 979 331 979 c 0,10,11
 349 979 349 979 361 971.5 c 128,-1,12
 373 964 373 964 381.5 952 c 128,-1,13
 390 940 390 940 396 926 c 2,0,-1
216 926 m 2,14,-1
 252 828 l 1,15,-1
 252 792 l 1,16,-1
 209 792 l 1,17,-1
 142 855 l 2,18,19
 122 874 122 874 110.5 893 c 128,-1,20
 99 912 99 912 99 934 c 0,21,22
 99 953 99 953 112.5 966 c 128,-1,23
 126 979 126 979 150 979 c 0,24,25
 167 979 167 979 180 971.5 c 128,-1,26
 193 964 193 964 202 952 c 128,-1,27
 211 940 211 940 216 926 c 2,14,-1
561 224 m 1,28,-1
 561 0 l 1,29,-1
 50 0 l 1,30,-1
 50 82 l 1,31,-1
 59 82 l 2,32,33
 81 82 81 82 99 89 c 128,-1,34
 117 96 117 96 117 119 c 2,35,-1
 117 592 l 2,36,37
 117 614 117 614 99 621 c 128,-1,38
 81 628 81 628 59 628 c 2,39,-1
 50 628 l 1,40,-1
 50 710 l 1,41,-1
 543 710 l 1,42,-1
 543 511 l 1,43,-1
 462 511 l 1,44,-1
 452 585 l 2,45,46
 449 602 449 602 438.5 611.5 c 128,-1,47
 428 621 428 621 407.5 625 c 128,-1,48
 387 629 387 629 353 629 c 2,49,-1
 230 629 l 1,50,-1
 230 81 l 1,51,-1
 365 81 l 2,52,53
 392 81 392 81 410.5 83 c 128,-1,54
 429 85 429 85 441 90 c 128,-1,55
 453 95 453 95 459 103.5 c 128,-1,56
 465 112 465 112 467 125 c 2,57,-1
 479 224 l 1,58,-1
 561 224 l 1,28,-1
216 402 m 1,59,60
 257 405 257 405 298 407.5 c 128,-1,61
 339 410 339 410 379.5 412.5 c 128,-1,62
 420 415 420 415 461 417 c 1,63,-1
 461 313 l 1,64,65
 420 315 420 315 379.5 317.5 c 128,-1,66
 339 320 339 320 298 323 c 128,-1,67
 257 326 257 326 216 328 c 1,68,-1
 216 402 l 1,59,60
EndSplineSet
Substitution2: "'ss01' Style Set 1 lookup 61 subtable" Edblgrave.alt
EndChar

StartChar: Einvertedbreve
Encoding: 518 518 55
Width: 620
GlyphClass: 1
Flags: W
LayerCount: 2
Fore
SplineSet
306 933 m 0,0,1
 251 933 251 933 215 917 c 128,-1,2
 179 901 179 901 160 864 c 128,-1,3
 141 827 141 827 140 766 c 1,4,-1
 217 766 l 1,5,6
 220 800 220 800 227.5 819 c 128,-1,7
 235 838 235 838 253.5 845.5 c 128,-1,8
 272 853 272 853 305 853 c 0,9,10
 335 853 335 853 353 845.5 c 128,-1,11
 371 838 371 838 379.5 819.5 c 128,-1,12
 388 801 388 801 389 766 c 1,13,-1
 471 766 l 1,14,15
 470 827 470 827 450.5 864 c 128,-1,16
 431 901 431 901 394 917 c 128,-1,17
 357 933 357 933 306 933 c 0,0,1
561 224 m 1,18,-1
 561 0 l 1,19,-1
 50 0 l 1,20,-1
 50 82 l 1,21,-1
 59 82 l 2,22,23
 81 82 81 82 99 89 c 128,-1,24
 117 96 117 96 117 119 c 2,25,-1
 117 591 l 2,26,27
 117 614 117 614 99 621 c 128,-1,28
 81 628 81 628 59 628 c 2,29,-1
 50 628 l 1,30,-1
 50 710 l 1,31,-1
 543 710 l 1,32,-1
 543 511 l 1,33,-1
 462 511 l 1,34,-1
 452 585 l 2,35,36
 449 602 449 602 438.5 612 c 128,-1,37
 428 622 428 622 407 625.5 c 128,-1,38
 386 629 386 629 353 629 c 2,39,-1
 230 629 l 1,40,-1
 230 81 l 1,41,-1
 365 81 l 2,42,43
 391 81 391 81 410 83 c 128,-1,44
 429 85 429 85 441 90 c 128,-1,45
 453 95 453 95 459 104 c 128,-1,46
 465 113 465 113 467 125 c 2,47,-1
 479 224 l 1,48,-1
 561 224 l 1,18,-1
216 402 m 1,49,50
 257 405 257 405 298 407.5 c 128,-1,51
 339 410 339 410 380 412.5 c 128,-1,52
 421 415 421 415 461 417 c 1,53,-1
 461 313 l 1,54,55
 420 315 420 315 379.5 317.5 c 128,-1,56
 339 320 339 320 298 323 c 128,-1,57
 257 326 257 326 216 328 c 1,58,-1
 216 402 l 1,49,50
EndSplineSet
Substitution2: "'ss01' Style Set 1 lookup 61 subtable" Einvertedbreve.alt
EndChar

StartChar: F
Encoding: 70 70 67
Width: 595
GlyphClass: 2
Flags: W
AnchorPoint: "Anchor-0" 312 741 basechar 0
LayerCount: 2
Fore
SplineSet
230 629 m 1,0,-1
 230 93 l 2,1,2
 230 90 230 90 236.5 88 c 128,-1,3
 243 86 243 86 253.5 84.5 c 128,-1,4
 264 83 264 83 278 82.5 c 128,-1,5
 292 82 292 82 306 82 c 2,6,-1
 323 82 l 1,7,-1
 323 0 l 1,8,-1
 50 0 l 1,9,-1
 50 82 l 1,10,-1
 59 82 l 2,11,12
 81 82 81 82 99 89 c 128,-1,13
 117 96 117 96 117 119 c 2,14,-1
 117 591 l 2,15,16
 117 614 117 614 99 621 c 128,-1,17
 81 628 81 628 59 628 c 2,18,-1
 50 628 l 1,19,-1
 50 710 l 1,20,-1
 543 710 l 1,21,-1
 543 507 l 1,22,-1
 462 507 l 1,23,-1
 452 585 l 2,24,25
 449 603 449 603 438.5 612.5 c 128,-1,26
 428 622 428 622 407 625.5 c 128,-1,27
 386 629 386 629 353 629 c 2,28,-1
 230 629 l 1,0,-1
216 394 m 1,29,30
 257 397 257 397 298 399 c 128,-1,31
 339 401 339 401 379.5 404 c 128,-1,32
 420 407 420 407 461 409 c 1,33,-1
 461 305 l 1,34,35
 420 308 420 308 379.5 310.5 c 128,-1,36
 339 313 339 313 298 315 c 128,-1,37
 257 317 257 317 216 319 c 1,38,-1
 216 394 l 1,29,30
EndSplineSet
Substitution2: "'ss01' Style Set 1 lookup 61 subtable" F.alt
EndChar

StartChar: G
Encoding: 71 71 68
Width: 705
GlyphClass: 2
Flags: W
AnchorPoint: "Anchor-1" 359 0 basechar 0
AnchorPoint: "Anchor-0" 359 741 basechar 0
LayerCount: 2
Fore
SplineSet
603 227 m 2,0,-1
 603 84 l 1,1,2
 585 63 585 63 560 43.5 c 128,-1,3
 535 24 535 24 503 9 c 128,-1,4
 471 -6 471 -6 434.5 -14.5 c 128,-1,5
 398 -23 398 -23 356 -23 c 0,6,7
 286 -23 286 -23 229.5 1 c 128,-1,8
 173 25 173 25 133 72.5 c 128,-1,9
 93 120 93 120 71.5 191 c 128,-1,10
 50 262 50 262 50 356 c 256,11,12
 50 450 50 450 72 520.5 c 128,-1,13
 94 591 94 591 133.5 638.5 c 128,-1,14
 173 686 173 686 227 709.5 c 128,-1,15
 281 733 281 733 344 733 c 0,16,17
 402 733 402 733 442 710 c 128,-1,18
 482 687 482 687 506 642 c 128,-1,19
 530 597 530 597 539 528 c 1,20,-1
 514 560 l 1,21,-1
 528 719 l 1,22,-1
 606 719 l 1,23,-1
 606 499 l 1,24,-1
 524 499 l 1,25,26
 509 543 509 543 485.5 577.5 c 128,-1,27
 462 612 462 612 429 632 c 128,-1,28
 396 652 396 652 351 652 c 256,29,30
 306 652 306 652 272.5 634.5 c 128,-1,31
 239 617 239 617 216.5 581 c 128,-1,32
 194 545 194 545 182.5 489 c 128,-1,33
 171 433 171 433 171 356 c 0,34,35
 171 278 171 278 182.5 221.5 c 128,-1,36
 194 165 194 165 217 129 c 128,-1,37
 240 93 240 93 275.5 75.5 c 128,-1,38
 311 58 311 58 359 58 c 0,39,40
 391 58 391 58 417 66 c 128,-1,41
 443 74 443 74 463 86.5 c 128,-1,42
 483 99 483 99 496 113 c 1,43,-1
 496 227 l 2,44,45
 496 252 496 252 473.5 259.5 c 128,-1,46
 451 267 451 267 420 267 c 2,47,-1
 394 267 l 1,48,-1
 394 350 l 1,49,-1
 682 350 l 1,50,-1
 682 267 l 1,51,-1
 661 267 l 2,52,53
 633 267 633 267 618 259.5 c 128,-1,54
 603 252 603 252 603 227 c 2,0,-1
EndSplineSet
EndChar

StartChar: Gcaron
Encoding: 486 486 73
Width: 705
GlyphClass: 1
Flags: W
LayerCount: 2
Fore
SplineSet
315 804 m 1,0,-1
 392 804 l 1,1,-1
 510 959 l 1,2,-1
 510 983 l 1,3,-1
 455 983 l 1,4,-1
 298 846 l 1,5,-1
 416 848 l 1,6,-1
 260 983 l 1,7,-1
 196 983 l 1,8,-1
 196 959 l 1,9,-1
 315 804 l 1,0,-1
603 227 m 2,10,-1
 603 84 l 1,11,12
 585 63 585 63 560 43.5 c 128,-1,13
 535 24 535 24 503 9 c 128,-1,14
 471 -6 471 -6 434.5 -14.5 c 128,-1,15
 398 -23 398 -23 356 -23 c 0,16,17
 286 -23 286 -23 229.5 1 c 128,-1,18
 173 25 173 25 133 72.5 c 128,-1,19
 93 120 93 120 71.5 191 c 128,-1,20
 50 262 50 262 50 356 c 256,21,22
 50 450 50 450 72 520.5 c 128,-1,23
 94 591 94 591 133.5 638.5 c 128,-1,24
 173 686 173 686 227 709.5 c 128,-1,25
 281 733 281 733 344 733 c 0,26,27
 402 733 402 733 442 710 c 128,-1,28
 482 687 482 687 506 642 c 128,-1,29
 530 597 530 597 539 528 c 1,30,-1
 514 560 l 1,31,-1
 528 719 l 1,32,-1
 606 719 l 1,33,-1
 606 499 l 1,34,-1
 524 499 l 1,35,36
 509 543 509 543 485.5 577.5 c 128,-1,37
 462 612 462 612 429 632 c 128,-1,38
 396 652 396 652 351 652 c 256,39,40
 306 652 306 652 272.5 634.5 c 128,-1,41
 239 617 239 617 216.5 581 c 128,-1,42
 194 545 194 545 182.5 489 c 128,-1,43
 171 433 171 433 171 356 c 0,44,45
 171 278 171 278 182.5 221.5 c 128,-1,46
 194 165 194 165 217 129 c 128,-1,47
 240 93 240 93 275.5 75.5 c 128,-1,48
 311 58 311 58 359 58 c 0,49,50
 391 58 391 58 417 66 c 128,-1,51
 443 74 443 74 463 86.5 c 128,-1,52
 483 99 483 99 496 113 c 1,53,-1
 496 227 l 2,54,55
 496 252 496 252 473.5 259.5 c 128,-1,56
 451 267 451 267 420 267 c 2,57,-1
 394 267 l 1,58,-1
 394 350 l 1,59,-1
 682 350 l 1,60,-1
 682 267 l 1,61,-1
 661 267 l 2,62,63
 633 267 633 267 618 259.5 c 128,-1,64
 603 252 603 252 603 227 c 2,10,-1
EndSplineSet
EndChar

StartChar: H
Encoding: 72 72 75
Width: 750
GlyphClass: 2
Flags: W
AnchorPoint: "Anchor-1" 375 0 basechar 0
AnchorPoint: "Anchor-0" 375 741 basechar 0
LayerCount: 2
Fore
SplineSet
195 408 m 1,0,-1
 550 408 l 1,1,-1
 550 324 l 1,2,-1
 195 324 l 1,3,-1
 195 408 l 1,0,-1
50 0 m 1,4,-1
 50 82 l 1,5,-1
 59 82 l 2,6,7
 81 82 81 82 99 89 c 128,-1,8
 117 96 117 96 117 119 c 2,9,-1
 117 591 l 2,10,11
 117 614 117 614 99 621 c 128,-1,12
 81 628 81 628 59 628 c 2,13,-1
 50 628 l 1,14,-1
 50 710 l 1,15,-1
 305 710 l 1,16,-1
 305 629 l 1,17,-1
 298 629 l 2,18,19
 286 629 286 629 274.5 628 c 128,-1,20
 263 627 263 627 253 625.5 c 128,-1,21
 243 624 243 624 236.5 622.5 c 128,-1,22
 230 621 230 621 230 618 c 2,23,-1
 230 91 l 2,24,25
 230 89 230 89 236.5 87.5 c 128,-1,26
 243 86 243 86 253 84.5 c 128,-1,27
 263 83 263 83 275 82.5 c 128,-1,28
 287 82 287 82 297 82 c 2,29,-1
 305 82 l 1,30,-1
 305 0 l 1,31,-1
 50 0 l 1,4,-1
446 0 m 1,32,-1
 446 81 l 1,33,-1
 453 81 l 2,34,35
 464 81 464 81 476 82 c 128,-1,36
 488 83 488 83 497.5 84.5 c 128,-1,37
 507 86 507 86 513.5 87.5 c 128,-1,38
 520 89 520 89 520 92 c 2,39,-1
 520 619 l 2,40,41
 520 621 520 621 513.5 622.5 c 128,-1,42
 507 624 507 624 497 625.5 c 128,-1,43
 487 627 487 627 475.5 627.5 c 128,-1,44
 464 628 464 628 454 628 c 2,45,-1
 446 628 l 1,46,-1
 446 710 l 1,47,-1
 701 710 l 1,48,-1
 701 628 l 1,49,-1
 691 628 l 2,50,51
 670 628 670 628 652 621 c 128,-1,52
 634 614 634 614 634 591 c 2,53,-1
 634 119 l 2,54,55
 634 96 634 96 652 89 c 128,-1,56
 670 82 670 82 691 82 c 2,57,-1
 701 82 l 1,58,-1
 701 0 l 1,59,-1
 446 0 l 1,32,-1
EndSplineSet
EndChar

StartChar: I
Encoding: 73 73 79
Width: 367
GlyphClass: 2
Flags: W
AnchorPoint: "Anchor-2" 241 0 basechar 0
AnchorPoint: "Anchor-1" 184 0 basechar 0
AnchorPoint: "Anchor-0" 184 741 basechar 0
LayerCount: 2
Fore
SplineSet
127 119 m 2,0,-1
 127 591 l 2,1,2
 127 614 127 614 108.5 621 c 128,-1,3
 90 628 90 628 64 628 c 2,4,-1
 47 628 l 1,5,-1
 47 710 l 1,6,-1
 319 710 l 1,7,-1
 319 628 l 1,8,-1
 302 628 l 2,9,10
 277 628 277 628 258.5 621 c 128,-1,11
 240 614 240 614 240 591 c 2,12,-1
 240 119 l 2,13,14
 240 96 240 96 258.5 89 c 128,-1,15
 277 82 277 82 302 82 c 2,16,-1
 319 82 l 1,17,-1
 319 0 l 1,18,-1
 47 0 l 1,19,-1
 47 82 l 1,20,-1
 64 82 l 2,21,22
 90 82 90 82 108.5 89 c 128,-1,23
 127 96 127 96 127 119 c 2,0,-1
EndSplineSet
EndChar

StartChar: Icaron
Encoding: 463 463 89
Width: 367
GlyphClass: 1
Flags: W
LayerCount: 2
Fore
SplineSet
145 804 m 1,0,-1
 222 804 l 1,1,-1
 340 959 l 1,2,-1
 340 983 l 1,3,-1
 285 983 l 1,4,-1
 128 846 l 1,5,-1
 246 848 l 1,6,-1
 90 983 l 1,7,-1
 26 983 l 1,8,-1
 26 959 l 1,9,-1
 145 804 l 1,0,-1
127 119 m 2,10,-1
 127 591 l 2,11,12
 127 614 127 614 108.5 621 c 128,-1,13
 90 628 90 628 64 628 c 2,14,-1
 47 628 l 1,15,-1
 47 710 l 1,16,-1
 319 710 l 1,17,-1
 319 628 l 1,18,-1
 302 628 l 2,19,20
 277 628 277 628 258.5 621 c 128,-1,21
 240 614 240 614 240 591 c 2,22,-1
 240 119 l 2,23,24
 240 96 240 96 258.5 89 c 128,-1,25
 277 82 277 82 302 82 c 2,26,-1
 319 82 l 1,27,-1
 319 0 l 1,28,-1
 47 0 l 1,29,-1
 47 82 l 1,30,-1
 64 82 l 2,31,32
 90 82 90 82 108.5 89 c 128,-1,33
 127 96 127 96 127 119 c 2,10,-1
EndSplineSet
EndChar

StartChar: Idblgrave
Encoding: 520 520 90
Width: 367
GlyphClass: 1
Flags: W
LayerCount: 2
Fore
SplineSet
274 926 m 2,0,-1
 313 828 l 1,1,-1
 313 792 l 1,2,-1
 268 792 l 1,3,-1
 202 855 l 2,4,5
 181 874 181 874 170 893 c 128,-1,6
 159 912 159 912 159 934 c 0,7,8
 159 953 159 953 172.5 966 c 128,-1,9
 186 979 186 979 209 979 c 0,10,11
 227 979 227 979 239 971.5 c 128,-1,12
 251 964 251 964 259.5 952 c 128,-1,13
 268 940 268 940 274 926 c 2,0,-1
94 926 m 2,14,-1
 130 828 l 1,15,-1
 130 792 l 1,16,-1
 87 792 l 1,17,-1
 20 855 l 2,18,19
 0 874 0 874 -11.5 893 c 128,-1,20
 -23 912 -23 912 -23 934 c 0,21,22
 -23 953 -23 953 -9.5 966 c 128,-1,23
 4 979 4 979 28 979 c 0,24,25
 46 979 46 979 58.5 971.5 c 128,-1,26
 71 964 71 964 80 952 c 128,-1,27
 89 940 89 940 94 926 c 2,14,-1
127 119 m 2,28,-1
 127 592 l 2,29,30
 127 614 127 614 108.5 621 c 128,-1,31
 90 628 90 628 64 628 c 2,32,-1
 47 628 l 1,33,-1
 47 710 l 1,34,-1
 319 710 l 1,35,-1
 319 628 l 1,36,-1
 302 628 l 2,37,38
 277 628 277 628 258.5 621 c 128,-1,39
 240 614 240 614 240 591 c 2,40,-1
 240 118 l 2,41,42
 240 96 240 96 258.5 89 c 128,-1,43
 277 82 277 82 302 82 c 2,44,-1
 319 82 l 1,45,-1
 319 0 l 1,46,-1
 47 0 l 1,47,-1
 47 82 l 1,48,-1
 64 82 l 2,49,50
 90 82 90 82 108.5 89 c 128,-1,51
 127 96 127 96 127 119 c 2,28,-1
EndSplineSet
EndChar

StartChar: Iinvertedbreve
Encoding: 522 522 91
Width: 367
GlyphClass: 1
Flags: W
LayerCount: 2
Fore
SplineSet
184 933 m 0,0,1
 129 933 129 933 93 917 c 128,-1,2
 57 901 57 901 38 864 c 128,-1,3
 19 827 19 827 18 766 c 1,4,-1
 96 766 l 1,5,6
 98 800 98 800 106 819 c 128,-1,7
 114 838 114 838 132.5 845.5 c 128,-1,8
 151 853 151 853 184 853 c 0,9,10
 213 853 213 853 231 845.5 c 128,-1,11
 249 838 249 838 257.5 819.5 c 128,-1,12
 266 801 266 801 268 766 c 1,13,-1
 350 766 l 1,14,15
 349 827 349 827 329 864 c 128,-1,16
 309 901 309 901 272.5 917 c 128,-1,17
 236 933 236 933 184 933 c 0,0,1
127 119 m 2,18,-1
 127 591 l 2,19,20
 127 614 127 614 108.5 621 c 128,-1,21
 90 628 90 628 64 628 c 2,22,-1
 47 628 l 1,23,-1
 47 710 l 1,24,-1
 319 710 l 1,25,-1
 319 628 l 1,26,-1
 302 628 l 2,27,28
 277 628 277 628 258.5 621 c 128,-1,29
 240 614 240 614 240 591 c 2,30,-1
 240 119 l 2,31,32
 240 96 240 96 258.5 89 c 128,-1,33
 277 82 277 82 302 82 c 2,34,-1
 319 82 l 1,35,-1
 319 0 l 1,36,-1
 47 0 l 1,37,-1
 47 82 l 1,38,-1
 64 82 l 2,39,40
 90 82 90 82 108.5 89 c 128,-1,41
 127 96 127 96 127 119 c 2,18,-1
EndSplineSet
EndChar

StartChar: J
Encoding: 74 74 94
Width: 584
GlyphClass: 2
Flags: W
AnchorPoint: "Anchor-0" 392 741 basechar 0
LayerCount: 2
Fore
SplineSet
267 710 m 1,0,-1
 546 710 l 1,1,-1
 546 628 l 1,2,-1
 528 628 l 2,3,4
 505 628 505 628 488 621 c 128,-1,5
 471 614 471 614 471 592 c 2,6,-1
 471 205 l 2,7,8
 471 143 471 143 453 99.5 c 128,-1,9
 435 56 435 56 404 29 c 128,-1,10
 373 2 373 2 331 -10.5 c 128,-1,11
 289 -23 289 -23 240 -23 c 0,12,13
 188 -23 188 -23 149 -11 c 128,-1,14
 110 1 110 1 84.5 17.5 c 128,-1,15
 59 34 59 34 45 46 c 1,16,-1
 45 218 l 1,17,-1
 162 218 l 1,18,-1
 162 35 l 1,19,20
 148 40 148 40 136 51.5 c 128,-1,21
 124 63 124 63 117 75.5 c 128,-1,22
 110 88 110 88 109.5 97.5 c 128,-1,23
 109 107 109 107 117 109 c 1,24,25
 130 98 130 98 147 86.5 c 128,-1,26
 164 75 164 75 186.5 67 c 128,-1,27
 209 59 209 59 238 59 c 0,28,29
 276 59 276 59 302.5 71.5 c 128,-1,30
 329 84 329 84 343 116.5 c 128,-1,31
 357 149 357 149 357 208 c 2,32,-1
 357 592 l 2,33,34
 357 607 357 607 348 614.5 c 128,-1,35
 339 622 339 622 323 625 c 128,-1,36
 307 628 307 628 289 628 c 2,37,-1
 267 628 l 1,38,-1
 267 710 l 1,0,-1
EndSplineSet
EndChar

StartChar: K
Encoding: 75 75 96
Width: 692
GlyphClass: 2
Flags: W
AnchorPoint: "Anchor-1" 357 0 basechar 0
AnchorPoint: "Anchor-0" 357 741 basechar 0
LayerCount: 2
Fore
SplineSet
50 0 m 1,0,-1
 50 82 l 1,1,-1
 59 82 l 2,2,3
 81 82 81 82 99 89 c 128,-1,4
 117 96 117 96 117 119 c 2,5,-1
 117 591 l 2,6,7
 117 614 117 614 99 621 c 128,-1,8
 81 628 81 628 59 628 c 2,9,-1
 50 628 l 1,10,-1
 50 710 l 1,11,-1
 303 710 l 1,12,-1
 303 628 l 1,13,-1
 295 628 l 2,14,15
 285 628 285 628 273.5 627.5 c 128,-1,16
 262 627 262 627 252 625.5 c 128,-1,17
 242 624 242 624 236 622.5 c 128,-1,18
 230 621 230 621 230 618 c 2,19,-1
 230 92 l 2,20,21
 230 89 230 89 236 87.5 c 128,-1,22
 242 86 242 86 251.5 84.5 c 128,-1,23
 261 83 261 83 272.5 82.5 c 128,-1,24
 284 82 284 82 293 82 c 2,25,-1
 300 82 l 1,26,-1
 300 0 l 1,27,-1
 50 0 l 1,0,-1
401 0 m 1,28,-1
 401 82 l 1,29,-1
 409 82 l 2,30,31
 425 82 425 82 439.5 83 c 128,-1,32
 454 84 454 84 463 86.5 c 128,-1,33
 472 89 472 89 472 92 c 2,34,-1
 269 348 l 1,35,-1
 269 371 l 1,36,-1
 486 617 l 2,37,38
 486 621 486 621 477 623 c 128,-1,39
 468 625 468 625 454 626.5 c 128,-1,40
 440 628 440 628 425 628 c 2,41,-1
 417 628 l 1,42,-1
 417 710 l 1,43,-1
 647 710 l 1,44,-1
 647 628 l 1,45,-1
 627 628 l 2,46,47
 618 628 618 628 610 625.5 c 128,-1,48
 602 623 602 623 593 617 c 128,-1,49
 584 611 584 611 575 599 c 2,50,-1
 356 354 l 1,51,-1
 360 404 l 1,52,-1
 598 106 l 2,53,54
 606 96 606 96 614.5 91 c 128,-1,55
 623 86 623 86 633 84 c 128,-1,56
 643 82 643 82 651 82 c 2,57,-1
 672 82 l 1,58,-1
 672 0 l 1,59,-1
 401 0 l 1,28,-1
EndSplineSet
EndChar

StartChar: L
Encoding: 76 76 98
Width: 582
GlyphClass: 2
Flags: W
AnchorPoint: "Anchor-2" 443 710 basechar 0
AnchorPoint: "Anchor-1" 357 0 basechar 0
AnchorPoint: "Anchor-0" 357 741 basechar 0
LayerCount: 2
Fore
SplineSet
317 710 m 1,0,-1
 50 710 l 1,1,-1
 50 628 l 1,2,-1
 59 628 l 2,3,4
 81 628 81 628 99 621 c 128,-1,5
 117 614 117 614 117 591 c 2,6,-1
 117 119 l 2,7,8
 117 96 117 96 99 89 c 128,-1,9
 81 82 81 82 59 82 c 2,10,-1
 50 82 l 1,11,-1
 50 0 l 1,12,-1
 538 0 l 1,13,-1
 538 237 l 1,14,-1
 455 237 l 1,15,-1
 443 126 l 2,16,17
 442 108 442 108 431.5 98 c 128,-1,18
 421 88 421 88 399.5 84.5 c 128,-1,19
 378 81 378 81 342 81 c 2,20,-1
 230 81 l 1,21,-1
 230 591 l 2,22,23
 230 614 230 614 250.5 621 c 128,-1,24
 271 628 271 628 303 628 c 2,25,-1
 317 628 l 1,26,-1
 317 710 l 1,0,-1
EndSplineSet
EndChar

StartChar: M
Encoding: 77 77 104
Width: 871
GlyphClass: 2
Flags: W
AnchorPoint: "Anchor-1" 425 0 basechar 0
LayerCount: 2
Fore
SplineSet
49 0 m 1,0,-1
 49 82 l 1,1,-1
 59 82 l 2,2,3
 73 82 73 82 85.5 85 c 128,-1,4
 98 88 98 88 106.5 96.5 c 128,-1,5
 115 105 115 105 115 119 c 2,6,-1
 115 592 l 2,7,8
 115 607 115 607 106.5 614.5 c 128,-1,9
 98 622 98 622 85.5 625 c 128,-1,10
 73 628 73 628 59 628 c 2,11,-1
 49 628 l 1,12,-1
 49 710 l 1,13,-1
 295 710 l 1,14,-1
 458 120 l 1,15,-1
 395 94 l 1,16,-1
 575 710 l 1,17,-1
 821 710 l 1,18,-1
 821 628 l 1,19,-1
 812 628 l 2,20,21
 790 628 790 628 770 621 c 128,-1,22
 750 614 750 614 750 591 c 2,23,-1
 750 119 l 2,24,25
 750 96 750 96 770 89 c 128,-1,26
 790 82 790 82 812 82 c 2,27,-1
 821 82 l 1,28,-1
 821 0 l 1,29,-1
 573 0 l 1,30,-1
 573 82 l 1,31,-1
 581 82 l 2,32,33
 592 82 592 82 605 83 c 128,-1,34
 618 84 618 84 627.5 86.5 c 128,-1,35
 637 89 637 89 637 92 c 2,36,-1
 637 693 l 1,37,-1
 660 701 l 1,38,-1
 448 -3 l 1,39,-1
 386 -3 l 1,40,-1
 184 702 l 1,41,-1
 203 690 l 1,42,-1
 203 92 l 2,43,44
 203 89 203 89 212.5 86.5 c 128,-1,45
 222 84 222 84 233.5 83 c 128,-1,46
 245 82 245 82 250 82 c 2,47,-1
 253 82 l 1,48,-1
 253 0 l 1,49,-1
 49 0 l 1,0,-1
EndSplineSet
EndChar

StartChar: N
Encoding: 78 78 106
Width: 723
GlyphClass: 2
Flags: W
AnchorPoint: "Anchor-1" 370 0 basechar 0
AnchorPoint: "Anchor-0" 370 741 basechar 0
LayerCount: 2
Fore
SplineSet
49 0 m 1,0,-1
 49 82 l 1,1,-1
 59 82 l 2,2,3
 74 82 74 82 86.5 85 c 128,-1,4
 99 88 99 88 107.5 96.5 c 128,-1,5
 116 105 116 105 116 119 c 2,6,-1
 116 592 l 2,7,8
 116 607 116 607 107.5 614.5 c 128,-1,9
 99 622 99 622 86.5 625 c 128,-1,10
 74 628 74 628 59 628 c 2,11,-1
 49 628 l 1,12,-1
 49 710 l 1,13,-1
 266 710 l 1,14,-1
 567 87 l 1,15,-1
 527 83 l 1,16,-1
 527 617 l 2,17,18
 527 621 527 621 517 623.5 c 128,-1,19
 507 626 507 626 495 627 c 128,-1,20
 483 628 483 628 475 628 c 2,21,-1
 463 628 l 1,22,-1
 463 710 l 1,23,-1
 683 710 l 1,24,-1
 683 628 l 1,25,-1
 674 628 l 2,26,27
 659 628 659 628 646.5 624.5 c 128,-1,28
 634 621 634 621 626 614 c 128,-1,29
 618 607 618 607 618 592 c 2,30,-1
 618 0 l 1,31,-1
 496 0 l 1,32,-1
 165 674 l 1,33,-1
 206 672 l 1,34,-1
 206 92 l 2,35,36
 206 89 206 89 215.5 86.5 c 128,-1,37
 225 84 225 84 238 83 c 128,-1,38
 251 82 251 82 259 82 c 2,39,-1
 271 82 l 1,40,-1
 271 0 l 1,41,-1
 49 0 l 1,0,-1
EndSplineSet
EndChar

StartChar: Ncaron
Encoding: 327 327 110
Width: 723
GlyphClass: 1
Flags: W
LayerCount: 2
Fore
SplineSet
332 804 m 1,0,-1
 409 804 l 1,1,-1
 527 959 l 1,2,-1
 527 983 l 1,3,-1
 472 983 l 1,4,-1
 315 846 l 1,5,-1
 432 848 l 1,6,-1
 277 983 l 1,7,-1
 213 983 l 1,8,-1
 213 959 l 1,9,-1
 332 804 l 1,0,-1
49 0 m 1,10,-1
 49 82 l 1,11,-1
 59 82 l 2,12,13
 74 82 74 82 86.5 85 c 128,-1,14
 99 88 99 88 107.5 96.5 c 128,-1,15
 116 105 116 105 116 119 c 2,16,-1
 116 592 l 2,17,18
 116 607 116 607 107.5 614.5 c 128,-1,19
 99 622 99 622 86.5 625 c 128,-1,20
 74 628 74 628 59 628 c 2,21,-1
 49 628 l 1,22,-1
 49 710 l 1,23,-1
 266 710 l 1,24,-1
 567 87 l 1,25,-1
 527 83 l 1,26,-1
 527 617 l 2,27,28
 527 621 527 621 517 623.5 c 128,-1,29
 507 626 507 626 495 627 c 128,-1,30
 483 628 483 628 475 628 c 2,31,-1
 463 628 l 1,32,-1
 463 710 l 1,33,-1
 683 710 l 1,34,-1
 683 628 l 1,35,-1
 674 628 l 2,36,37
 659 628 659 628 646.5 624.5 c 128,-1,38
 634 621 634 621 626 614 c 128,-1,39
 618 607 618 607 618 592 c 2,40,-1
 618 0 l 1,41,-1
 496 0 l 1,42,-1
 165 674 l 1,43,-1
 206 672 l 1,44,-1
 206 92 l 2,45,46
 206 89 206 89 215.5 86.5 c 128,-1,47
 225 84 225 84 238 83 c 128,-1,48
 251 82 251 82 259 82 c 2,49,-1
 271 82 l 1,50,-1
 271 0 l 1,51,-1
 49 0 l 1,10,-1
EndSplineSet
EndChar

StartChar: O
Encoding: 79 79 114
Width: 702
GlyphClass: 2
Flags: W
AnchorPoint: "Anchor-2" 386 0 basechar 0
AnchorPoint: "Anchor-1" 350 0 basechar 0
AnchorPoint: "Anchor-0" 350 741 basechar 0
LayerCount: 2
Fore
SplineSet
351 -23 m 256,0,1
 283 -23 283 -23 228 1.5 c 128,-1,2
 173 26 173 26 133 74 c 128,-1,3
 93 122 93 122 71.5 192.5 c 128,-1,4
 50 263 50 263 50 355 c 0,5,6
 50 448 50 448 71.5 518.5 c 128,-1,7
 93 589 93 589 133 636.5 c 128,-1,8
 173 684 173 684 228 708.5 c 128,-1,9
 283 733 283 733 351 733 c 256,10,11
 419 733 419 733 474.5 708.5 c 128,-1,12
 530 684 530 684 569.5 636.5 c 128,-1,13
 609 589 609 589 630 518.5 c 128,-1,14
 651 448 651 448 651 355 c 0,15,16
 651 263 651 263 630 192.5 c 128,-1,17
 609 122 609 122 569.5 74 c 128,-1,18
 530 26 530 26 474.5 1.5 c 128,-1,19
 419 -23 419 -23 351 -23 c 256,0,1
351 60 m 256,20,21
 396 60 396 60 430 77 c 128,-1,22
 464 94 464 94 486 130 c 128,-1,23
 508 166 508 166 519.5 221.5 c 128,-1,24
 531 277 531 277 531 355 c 256,25,26
 531 433 531 433 519.5 488.5 c 128,-1,27
 508 544 508 544 486 580 c 128,-1,28
 464 616 464 616 430.5 633 c 128,-1,29
 397 650 397 650 351 650 c 0,30,31
 306 650 306 650 272 633 c 128,-1,32
 238 616 238 616 215.5 580 c 128,-1,33
 193 544 193 544 182 488.5 c 128,-1,34
 171 433 171 433 171 355 c 256,35,36
 171 277 171 277 182 221.5 c 128,-1,37
 193 166 193 166 215.5 130 c 128,-1,38
 238 94 238 94 272 77 c 128,-1,39
 306 60 306 60 351 60 c 256,20,21
EndSplineSet
EndChar

StartChar: Ohorn
Encoding: 416 416 123
Width: 756
GlyphClass: 2
Flags: W
AnchorPoint: "Anchor-1" 375 -35 basechar 0
AnchorPoint: "Anchor-0" 375 742 basechar 0
LayerCount: 2
Fore
SplineSet
351 60 m 0,0,1
 397 60 397 60 431 76.5 c 128,-1,2
 465 93 465 93 487 128.5 c 128,-1,3
 509 164 509 164 520 220 c 128,-1,4
 531 276 531 276 531 355 c 256,5,6
 531 434 531 434 520 490 c 128,-1,7
 509 546 509 546 487 581.5 c 128,-1,8
 465 617 465 617 431 633.5 c 128,-1,9
 397 650 397 650 351 650 c 0,10,11
 306 650 306 650 271.5 633.5 c 128,-1,12
 237 617 237 617 215 581.5 c 128,-1,13
 193 546 193 546 182 490 c 128,-1,14
 171 434 171 434 171 355 c 256,15,16
 171 276 171 276 182 220 c 128,-1,17
 193 164 193 164 215 128.5 c 128,-1,18
 237 93 237 93 271.5 76.5 c 128,-1,19
 306 60 306 60 351 60 c 0,0,1
527 628 m 1,20,-1
 494 670 l 1,21,22
 528 649 528 649 557 620.5 c 128,-1,23
 586 592 586 592 607 554 c 128,-1,24
 628 516 628 516 639.5 466.5 c 128,-1,25
 651 417 651 417 651 354 c 0,26,27
 651 262 651 262 630 191 c 128,-1,28
 609 120 609 120 569.5 72.5 c 128,-1,29
 530 25 530 25 474.5 1 c 128,-1,30
 419 -23 419 -23 351 -23 c 0,31,32
 284 -23 284 -23 228.5 1 c 128,-1,33
 173 25 173 25 133.5 72.5 c 128,-1,34
 94 120 94 120 72 191 c 128,-1,35
 50 262 50 262 50 355 c 0,36,37
 50 449 50 449 72 519.5 c 128,-1,38
 94 590 94 590 133.5 637.5 c 128,-1,39
 173 685 173 685 228.5 709 c 128,-1,40
 284 733 284 733 351 733 c 0,41,42
 390 733 390 733 420 727.5 c 128,-1,43
 450 722 450 722 474.5 715.5 c 128,-1,44
 499 709 499 709 519.5 703.5 c 128,-1,45
 540 698 540 698 562 698 c 0,46,47
 587 698 587 698 604.5 710 c 128,-1,48
 622 722 622 722 633.5 747 c 128,-1,49
 645 772 645 772 651.5 809.5 c 128,-1,50
 658 847 658 847 662 898 c 1,51,-1
 765 898 l 1,52,53
 762 822 762 822 748.5 768.5 c 128,-1,54
 735 715 735 715 713 681 c 128,-1,55
 691 647 691 647 663 631 c 128,-1,56
 635 615 635 615 605 615 c 0,57,58
 590 615 590 615 575 619 c 128,-1,59
 560 623 560 623 545.5 630.5 c 128,-1,60
 531 638 531 638 516 647.5 c 128,-1,61
 501 657 501 657 484 667 c 1,62,-1
 527 667 l 1,63,-1
 527 628 l 1,20,-1
EndSplineSet
EndChar

StartChar: Ocaron
Encoding: 465 465 124
Width: 702
GlyphClass: 1
Flags: W
LayerCount: 2
Fore
SplineSet
312 804 m 1,0,-1
 389 804 l 1,1,-1
 507 959 l 1,2,-1
 507 983 l 1,3,-1
 452 983 l 1,4,-1
 295 846 l 1,5,-1
 413 848 l 1,6,-1
 257 983 l 1,7,-1
 193 983 l 1,8,-1
 193 959 l 1,9,-1
 312 804 l 1,0,-1
351 -23 m 256,10,11
 283 -23 283 -23 228 1.5 c 128,-1,12
 173 26 173 26 133 74 c 128,-1,13
 93 122 93 122 71.5 192.5 c 128,-1,14
 50 263 50 263 50 355 c 0,15,16
 50 448 50 448 71.5 518.5 c 128,-1,17
 93 589 93 589 133 636.5 c 128,-1,18
 173 684 173 684 228 708.5 c 128,-1,19
 283 733 283 733 351 733 c 256,20,21
 419 733 419 733 474.5 708.5 c 128,-1,22
 530 684 530 684 569.5 636.5 c 128,-1,23
 609 589 609 589 630 518.5 c 128,-1,24
 651 448 651 448 651 355 c 0,25,26
 651 263 651 263 630 192.5 c 128,-1,27
 609 122 609 122 569.5 74 c 128,-1,28
 530 26 530 26 474.5 1.5 c 128,-1,29
 419 -23 419 -23 351 -23 c 256,10,11
351 60 m 256,30,31
 396 60 396 60 430 77 c 128,-1,32
 464 94 464 94 486 130 c 128,-1,33
 508 166 508 166 519.5 221.5 c 128,-1,34
 531 277 531 277 531 355 c 256,35,36
 531 433 531 433 519.5 488.5 c 128,-1,37
 508 544 508 544 486 580 c 128,-1,38
 464 616 464 616 430.5 633 c 128,-1,39
 397 650 397 650 351 650 c 0,40,41
 306 650 306 650 272 633 c 128,-1,42
 238 616 238 616 215.5 580 c 128,-1,43
 193 544 193 544 182 488.5 c 128,-1,44
 171 433 171 433 171 355 c 256,45,46
 171 277 171 277 182 221.5 c 128,-1,47
 193 166 193 166 215.5 130 c 128,-1,48
 238 94 238 94 272 77 c 128,-1,49
 306 60 306 60 351 60 c 256,30,31
EndSplineSet
EndChar

StartChar: Oogonek
Encoding: 490 490 125
Width: 702
GlyphClass: 1
Flags: W
LayerCount: 2
Fore
SplineSet
351 60 m 0,0,1
 398 60 398 60 431.5 76.5 c 128,-1,2
 465 93 465 93 487 128.5 c 128,-1,3
 509 164 509 164 520 220 c 128,-1,4
 531 276 531 276 531 355 c 256,5,6
 531 434 531 434 520 490 c 128,-1,7
 509 546 509 546 487 581.5 c 128,-1,8
 465 617 465 617 431.5 633.5 c 128,-1,9
 398 650 398 650 351 650 c 0,10,11
 306 650 306 650 272 633.5 c 128,-1,12
 238 617 238 617 215.5 581.5 c 128,-1,13
 193 546 193 546 182 490 c 128,-1,14
 171 434 171 434 171 355 c 256,15,16
 171 276 171 276 182 220 c 128,-1,17
 193 164 193 164 215.5 128.5 c 128,-1,18
 238 93 238 93 272 76.5 c 128,-1,19
 306 60 306 60 351 60 c 0,0,1
564 70 m 0,20,21
 546 48 546 48 522.5 25.5 c 128,-1,22
 499 3 499 3 475.5 -19 c 128,-1,23
 452 -41 452 -41 432 -63 c 128,-1,24
 412 -85 412 -85 399 -106 c 128,-1,25
 386 -127 386 -127 386 -147 c 0,26,27
 386 -163 386 -163 395 -174 c 128,-1,28
 404 -185 404 -185 425 -185 c 0,29,30
 448 -185 448 -185 465 -170.5 c 128,-1,31
 482 -156 482 -156 493 -140 c 1,32,-1
 539 -181 l 1,33,34
 523 -201 523 -201 504 -217 c 128,-1,35
 485 -233 485 -233 459.5 -242.5 c 128,-1,36
 434 -252 434 -252 399 -252 c 0,37,38
 361 -252 361 -252 331 -242 c 128,-1,39
 301 -232 301 -232 284.5 -211.5 c 128,-1,40
 268 -191 268 -191 268 -160 c 0,41,42
 268 -136 268 -136 277.5 -116 c 128,-1,43
 287 -96 287 -96 309 -75 c 128,-1,44
 331 -54 331 -54 369 -27 c 128,-1,45
 407 0 407 0 464 38 c 1,46,-1
 454 -4 l 1,47,48
 438 -10 438 -10 421.5 -14.5 c 128,-1,49
 405 -19 405 -19 388 -21 c 128,-1,50
 371 -23 371 -23 351 -23 c 0,51,52
 284 -23 284 -23 228.5 1 c 128,-1,53
 173 25 173 25 133.5 72.5 c 128,-1,54
 94 120 94 120 72 191 c 128,-1,55
 50 262 50 262 50 355 c 0,56,57
 50 449 50 449 72 519.5 c 128,-1,58
 94 590 94 590 133.5 637.5 c 128,-1,59
 173 685 173 685 228.5 709 c 128,-1,60
 284 733 284 733 351 733 c 0,61,62
 419 733 419 733 474 709 c 128,-1,63
 529 685 529 685 569 637.5 c 128,-1,64
 609 590 609 590 630 519.5 c 128,-1,65
 651 449 651 449 651 355 c 0,66,67
 651 293 651 293 641 240.5 c 128,-1,68
 631 188 631 188 611.5 145.5 c 128,-1,69
 592 103 592 103 564 70 c 0,20,21
EndSplineSet
EndChar

StartChar: Odblgrave
Encoding: 524 524 126
Width: 702
GlyphClass: 1
Flags: W
LayerCount: 2
Fore
SplineSet
449 926 m 2,0,-1
 488 828 l 1,1,-1
 488 792 l 1,2,-1
 444 792 l 1,3,-1
 377 855 l 2,4,5
 357 874 357 874 345.5 893 c 128,-1,6
 334 912 334 912 334 934 c 0,7,8
 334 953 334 953 347.5 966 c 128,-1,9
 361 979 361 979 385 979 c 0,10,11
 402 979 402 979 414.5 971.5 c 128,-1,12
 427 964 427 964 435.5 952 c 128,-1,13
 444 940 444 940 449 926 c 2,0,-1
270 926 m 2,14,-1
 306 828 l 1,15,-1
 306 792 l 1,16,-1
 262 792 l 1,17,-1
 195 855 l 2,18,19
 175 874 175 874 163.5 893 c 128,-1,20
 152 912 152 912 152 934 c 0,21,22
 152 953 152 953 166 966 c 128,-1,23
 180 979 180 979 203 979 c 0,24,25
 221 979 221 979 233.5 971.5 c 128,-1,26
 246 964 246 964 255.5 952 c 128,-1,27
 265 940 265 940 270 926 c 2,14,-1
351 -23 m 256,28,29
 283 -23 283 -23 228 1.5 c 128,-1,30
 173 26 173 26 133 74 c 128,-1,31
 93 122 93 122 71.5 192.5 c 128,-1,32
 50 263 50 263 50 355 c 0,33,34
 50 448 50 448 71.5 518.5 c 128,-1,35
 93 589 93 589 133 636.5 c 128,-1,36
 173 684 173 684 228 708.5 c 128,-1,37
 283 733 283 733 351 733 c 256,38,39
 419 733 419 733 474.5 708.5 c 128,-1,40
 530 684 530 684 569.5 636.5 c 128,-1,41
 609 589 609 589 630 518.5 c 128,-1,42
 651 448 651 448 651 355 c 0,43,44
 651 263 651 263 630 192.5 c 128,-1,45
 609 122 609 122 569.5 74 c 128,-1,46
 530 26 530 26 474.5 1.5 c 128,-1,47
 419 -23 419 -23 351 -23 c 256,28,29
351 60 m 256,48,49
 396 60 396 60 430 77 c 128,-1,50
 464 94 464 94 486 130 c 128,-1,51
 508 166 508 166 519.5 221.5 c 128,-1,52
 531 277 531 277 531 355 c 256,53,54
 531 433 531 433 519.5 488.5 c 128,-1,55
 508 544 508 544 486 580 c 128,-1,56
 464 616 464 616 430.5 633 c 128,-1,57
 397 650 397 650 351 650 c 0,58,59
 306 650 306 650 272 633 c 128,-1,60
 238 616 238 616 215.5 580 c 128,-1,61
 193 544 193 544 182 488.5 c 128,-1,62
 171 433 171 433 171 355 c 256,63,64
 171 277 171 277 182 221.5 c 128,-1,65
 193 166 193 166 215.5 130 c 128,-1,66
 238 94 238 94 272 77 c 128,-1,67
 306 60 306 60 351 60 c 256,48,49
EndSplineSet
EndChar

StartChar: Oinvertedbreve
Encoding: 526 526 127
Width: 702
GlyphClass: 1
Flags: W
LayerCount: 2
Fore
SplineSet
351 933 m 0,0,1
 297 933 297 933 261 917 c 128,-1,2
 225 901 225 901 206 864 c 128,-1,3
 187 827 187 827 186 766 c 1,4,-1
 264 766 l 1,5,6
 266 800 266 800 273.5 819 c 128,-1,7
 281 838 281 838 299.5 845.5 c 128,-1,8
 318 853 318 853 351 853 c 0,9,10
 381 853 381 853 399 845.5 c 128,-1,11
 417 838 417 838 425.5 819.5 c 128,-1,12
 434 801 434 801 435 766 c 1,13,-1
 517 766 l 1,14,15
 516 827 516 827 496.5 864 c 128,-1,16
 477 901 477 901 440 917 c 128,-1,17
 403 933 403 933 351 933 c 0,0,1
351 -23 m 256,18,19
 283 -23 283 -23 228 1.5 c 128,-1,20
 173 26 173 26 133 74 c 128,-1,21
 93 122 93 122 71.5 192.5 c 128,-1,22
 50 263 50 263 50 355 c 0,23,24
 50 448 50 448 71.5 518.5 c 128,-1,25
 93 589 93 589 133 636.5 c 128,-1,26
 173 684 173 684 228 708.5 c 128,-1,27
 283 733 283 733 351 733 c 256,28,29
 419 733 419 733 474.5 708.5 c 128,-1,30
 530 684 530 684 569.5 636.5 c 128,-1,31
 609 589 609 589 630 518.5 c 128,-1,32
 651 448 651 448 651 355 c 0,33,34
 651 263 651 263 630 192.5 c 128,-1,35
 609 122 609 122 569.5 74 c 128,-1,36
 530 26 530 26 474.5 1.5 c 128,-1,37
 419 -23 419 -23 351 -23 c 256,18,19
351 60 m 256,38,39
 396 60 396 60 430 77 c 128,-1,40
 464 94 464 94 486 130 c 128,-1,41
 508 166 508 166 519.5 221.5 c 128,-1,42
 531 277 531 277 531 355 c 256,43,44
 531 433 531 433 519.5 488.5 c 128,-1,45
 508 544 508 544 486 580 c 128,-1,46
 464 616 464 616 430.5 633 c 128,-1,47
 397 650 397 650 351 650 c 0,48,49
 306 650 306 650 272 633 c 128,-1,50
 238 616 238 616 215.5 580 c 128,-1,51
 193 544 193 544 182 488.5 c 128,-1,52
 171 433 171 433 171 355 c 256,53,54
 171 277 171 277 182 221.5 c 128,-1,55
 193 166 193 166 215.5 130 c 128,-1,56
 238 94 238 94 272 77 c 128,-1,57
 306 60 306 60 351 60 c 256,38,39
EndSplineSet
EndChar

StartChar: P
Encoding: 80 80 147
Width: 611
GlyphClass: 2
Flags: W
AnchorPoint: "Anchor-0" 319 741 basechar 0
LayerCount: 2
Fore
SplineSet
230 92 m 2,0,-1
 230 629 l 1,1,-1
 334 629 l 2,2,3
 372 629 372 629 398.5 613 c 128,-1,4
 425 597 425 597 439 567 c 128,-1,5
 453 537 453 537 453 495 c 0,6,7
 453 451 453 451 439 419.5 c 128,-1,8
 425 388 425 388 398.5 371.5 c 128,-1,9
 372 355 372 355 333 355 c 2,10,-1
 217 355 l 1,11,-1
 217 274 l 1,12,-1
 342 274 l 2,13,14
 408 274 408 274 459 300 c 128,-1,15
 510 326 510 326 540 376.5 c 128,-1,16
 570 427 570 427 570 499 c 0,17,18
 570 604 570 604 507.5 657 c 128,-1,19
 445 710 445 710 343 710 c 2,20,-1
 50 710 l 1,21,-1
 50 629 l 1,22,-1
 59 629 l 2,23,24
 81 629 81 629 99 621.5 c 128,-1,25
 117 614 117 614 117 592 c 2,26,-1
 117 118 l 2,27,28
 117 95 117 95 99 88 c 128,-1,29
 81 81 81 81 59 81 c 2,30,-1
 50 81 l 1,31,-1
 50 0 l 1,32,-1
 322 0 l 1,33,-1
 322 82 l 1,34,-1
 304 82 l 2,35,36
 290 82 290 82 276.5 82.5 c 128,-1,37
 263 83 263 83 253 84.5 c 128,-1,38
 243 86 243 86 236.5 87.5 c 128,-1,39
 230 89 230 89 230 92 c 2,0,-1
EndSplineSet
EndChar

StartChar: Q
Encoding: 81 81 148
Width: 702
GlyphClass: 1
Flags: W
LayerCount: 2
Fore
SplineSet
308 -3 m 1,0,-1
 397 12 l 1,1,2
 398 -45 398 -45 409.5 -79.5 c 128,-1,3
 421 -114 421 -114 445 -129.5 c 128,-1,4
 469 -145 469 -145 509 -145 c 0,5,6
 535 -145 535 -145 558 -140.5 c 128,-1,7
 581 -136 581 -136 602 -130 c 128,-1,8
 623 -124 623 -124 642 -118 c 1,9,-1
 642 -227 l 1,10,11
 617 -233 617 -233 583 -237.5 c 128,-1,12
 549 -242 549 -242 518 -242 c 0,13,14
 447 -242 447 -242 400 -215.5 c 128,-1,15
 353 -189 353 -189 330.5 -135.5 c 128,-1,16
 308 -82 308 -82 308 -3 c 1,0,-1
351 -23 m 256,17,18
 283 -23 283 -23 228 1.5 c 128,-1,19
 173 26 173 26 133 74 c 128,-1,20
 93 122 93 122 71.5 192.5 c 128,-1,21
 50 263 50 263 50 355 c 0,22,23
 50 448 50 448 71.5 518.5 c 128,-1,24
 93 589 93 589 133 636.5 c 128,-1,25
 173 684 173 684 228 708.5 c 128,-1,26
 283 733 283 733 351 733 c 256,27,28
 419 733 419 733 474.5 708.5 c 128,-1,29
 530 684 530 684 569.5 636.5 c 128,-1,30
 609 589 609 589 630 518.5 c 128,-1,31
 651 448 651 448 651 355 c 0,32,33
 651 263 651 263 630 192.5 c 128,-1,34
 609 122 609 122 569.5 74 c 128,-1,35
 530 26 530 26 474.5 1.5 c 128,-1,36
 419 -23 419 -23 351 -23 c 256,17,18
351 60 m 256,37,38
 396 60 396 60 431.5 77 c 128,-1,39
 467 94 467 94 490.5 130 c 128,-1,40
 514 166 514 166 526.5 221.5 c 128,-1,41
 539 277 539 277 540 355 c 0,42,43
 540 433 540 433 527.5 488.5 c 128,-1,44
 515 544 515 544 491 580 c 128,-1,45
 467 616 467 616 431.5 633 c 128,-1,46
 396 650 396 650 351 650 c 256,47,48
 306 650 306 650 272 633 c 128,-1,49
 238 616 238 616 215.5 580 c 128,-1,50
 193 544 193 544 182 488.5 c 128,-1,51
 171 433 171 433 171 355 c 256,52,53
 171 277 171 277 182 221.5 c 128,-1,54
 193 166 193 166 215.5 130 c 128,-1,55
 238 94 238 94 272 77 c 128,-1,56
 306 60 306 60 351 60 c 256,37,38
EndSplineSet
EndChar

StartChar: R
Encoding: 82 82 149
Width: 669
GlyphClass: 2
Flags: W
AnchorPoint: "Anchor-1" 374 0 basechar 0
AnchorPoint: "Anchor-0" 374 741 basechar 0
LayerCount: 2
Fore
SplineSet
339 322 m 1,0,-1
 495 0 l 1,1,-1
 646 0 l 1,2,-1
 646 82 l 1,3,-1
 637 82 l 2,4,5
 618 82 618 82 602.5 87 c 128,-1,6
 587 92 587 92 574 105.5 c 128,-1,7
 561 119 561 119 547 144 c 2,8,-1
 433 371 l 1,9,-1
 339 322 l 1,0,-1
230 92 m 2,10,-1
 230 629 l 1,11,-1
 338 629 l 2,12,13
 381 629 381 629 408.5 615.5 c 128,-1,14
 436 602 436 602 449.5 575.5 c 128,-1,15
 463 549 463 549 463 509 c 0,16,17
 463 470 463 470 451 438.5 c 128,-1,18
 439 407 439 407 410.5 388.5 c 128,-1,19
 382 370 382 370 333 370 c 2,20,-1
 217 370 l 1,21,-1
 217 293 l 1,22,-1
 373 293 l 2,23,24
 378 294 378 294 381.5 295.5 c 128,-1,25
 385 297 385 297 390.5 300.5 c 128,-1,26
 396 304 396 304 404 309 c 0,27,28
 455 321 455 321 492.5 347 c 128,-1,29
 530 373 530 373 550.5 416.5 c 128,-1,30
 571 460 571 460 571 520 c 0,31,32
 571 583 571 583 544.5 625.5 c 128,-1,33
 518 668 518 668 468 689 c 128,-1,34
 418 710 418 710 346 710 c 2,35,-1
 50 710 l 1,36,-1
 50 628 l 1,37,-1
 59 628 l 2,38,39
 81 628 81 628 99 621 c 128,-1,40
 117 614 117 614 117 591 c 2,41,-1
 117 119 l 2,42,43
 117 96 117 96 99 89 c 128,-1,44
 81 82 81 82 59 82 c 2,45,-1
 50 82 l 1,46,-1
 50 0 l 1,47,-1
 320 0 l 1,48,-1
 320 82 l 1,49,-1
 304 82 l 2,50,51
 290 82 290 82 277 82.5 c 128,-1,52
 264 83 264 83 253.5 84.5 c 128,-1,53
 243 86 243 86 236.5 87.5 c 128,-1,54
 230 89 230 89 230 92 c 2,10,-1
EndSplineSet
EndChar

StartChar: Rcaron
Encoding: 344 344 152
Width: 669
GlyphClass: 1
Flags: W
LayerCount: 2
Fore
SplineSet
290 804 m 1,0,-1
 366 804 l 1,1,-1
 485 959 l 1,2,-1
 485 983 l 1,3,-1
 429 983 l 1,4,-1
 272 846 l 1,5,-1
 390 848 l 1,6,-1
 234 983 l 1,7,-1
 171 983 l 1,8,-1
 171 959 l 1,9,-1
 290 804 l 1,0,-1
339 322 m 1,10,-1
 495 0 l 1,11,-1
 646 0 l 1,12,-1
 646 82 l 1,13,-1
 637 82 l 2,14,15
 618 82 618 82 602.5 87 c 128,-1,16
 587 92 587 92 574 105.5 c 128,-1,17
 561 119 561 119 547 144 c 2,18,-1
 433 371 l 1,19,-1
 339 322 l 1,10,-1
230 92 m 2,20,-1
 230 629 l 1,21,-1
 338 629 l 2,22,23
 381 629 381 629 408.5 615.5 c 128,-1,24
 436 602 436 602 449.5 575.5 c 128,-1,25
 463 549 463 549 463 509 c 0,26,27
 463 470 463 470 451 438 c 128,-1,28
 439 406 439 406 410.5 388 c 128,-1,29
 382 370 382 370 333 370 c 2,30,-1
 217 370 l 1,31,-1
 217 293 l 1,32,-1
 373 293 l 2,33,34
 378 294 378 294 381.5 295.5 c 128,-1,35
 385 297 385 297 390.5 300.5 c 128,-1,36
 396 304 396 304 404 309 c 0,37,38
 455 321 455 321 492.5 347 c 128,-1,39
 530 373 530 373 550.5 416.5 c 128,-1,40
 571 460 571 460 571 520 c 0,41,42
 571 583 571 583 544.5 625.5 c 128,-1,43
 518 668 518 668 468 689 c 128,-1,44
 418 710 418 710 346 710 c 2,45,-1
 50 710 l 1,46,-1
 50 628 l 1,47,-1
 59 628 l 2,48,49
 81 628 81 628 99 621 c 128,-1,50
 117 614 117 614 117 591 c 2,51,-1
 117 119 l 2,52,53
 117 96 117 96 99 89 c 128,-1,54
 81 82 81 82 59 82 c 2,55,-1
 50 82 l 1,56,-1
 50 0 l 1,57,-1
 320 0 l 1,58,-1
 320 82 l 1,59,-1
 304 82 l 2,60,61
 290 82 290 82 277 82.5 c 128,-1,62
 264 83 264 83 253 84.5 c 128,-1,63
 242 86 242 86 236 87.5 c 128,-1,64
 230 89 230 89 230 92 c 2,20,-1
EndSplineSet
EndChar

StartChar: Rdblgrave
Encoding: 528 528 153
Width: 669
GlyphClass: 1
Flags: W
LayerCount: 2
Fore
SplineSet
422 926 m 2,0,-1
 461 828 l 1,1,-1
 461 792 l 1,2,-1
 417 792 l 1,3,-1
 350 855 l 2,4,5
 329 874 329 874 318 893 c 128,-1,6
 307 912 307 912 307 934 c 0,7,8
 307 953 307 953 320.5 966 c 128,-1,9
 334 979 334 979 357 979 c 0,10,11
 375 979 375 979 387.5 971.5 c 128,-1,12
 400 964 400 964 408.5 952 c 128,-1,13
 417 940 417 940 422 926 c 2,0,-1
242 926 m 2,14,-1
 278 828 l 1,15,-1
 278 792 l 1,16,-1
 235 792 l 1,17,-1
 168 855 l 2,18,19
 148 874 148 874 136.5 893 c 128,-1,20
 125 912 125 912 125 934 c 0,21,22
 125 953 125 953 138.5 966 c 128,-1,23
 152 979 152 979 176 979 c 0,24,25
 193 979 193 979 206 971.5 c 128,-1,26
 219 964 219 964 228 952 c 128,-1,27
 237 940 237 940 242 926 c 2,14,-1
339 322 m 1,28,-1
 495 0 l 1,29,-1
 646 0 l 1,30,-1
 646 82 l 1,31,-1
 637 82 l 2,32,33
 618 82 618 82 602.5 87 c 128,-1,34
 587 92 587 92 574 105.5 c 128,-1,35
 561 119 561 119 547 144 c 2,36,-1
 433 371 l 1,37,-1
 339 322 l 1,28,-1
230 92 m 2,38,-1
 230 629 l 1,39,-1
 338 629 l 2,40,41
 381 629 381 629 408.5 615.5 c 128,-1,42
 436 602 436 602 449.5 575.5 c 128,-1,43
 463 549 463 549 463 509 c 256,44,45
 463 469 463 469 451 437.5 c 128,-1,46
 439 406 439 406 410.5 388 c 128,-1,47
 382 370 382 370 333 370 c 2,48,-1
 217 370 l 1,49,-1
 217 293 l 1,50,-1
 373 293 l 2,51,52
 378 294 378 294 381.5 295.5 c 128,-1,53
 385 297 385 297 390.5 300.5 c 128,-1,54
 396 304 396 304 404 309 c 0,55,56
 455 321 455 321 492.5 347 c 128,-1,57
 530 373 530 373 550.5 416.5 c 128,-1,58
 571 460 571 460 571 520 c 0,59,60
 571 583 571 583 544.5 625.5 c 128,-1,61
 518 668 518 668 468 689 c 128,-1,62
 418 710 418 710 346 710 c 2,63,-1
 50 710 l 1,64,-1
 50 628 l 1,65,-1
 59 628 l 2,66,67
 81 628 81 628 99 621 c 128,-1,68
 117 614 117 614 117 591 c 2,69,-1
 117 118 l 2,70,71
 117 96 117 96 99 89 c 128,-1,72
 81 82 81 82 59 82 c 2,73,-1
 50 82 l 1,74,-1
 50 0 l 1,75,-1
 320 0 l 1,76,-1
 320 82 l 1,77,-1
 304 82 l 2,78,79
 290 82 290 82 276.5 82.5 c 128,-1,80
 263 83 263 83 252.5 84.5 c 128,-1,81
 242 86 242 86 236 87.5 c 128,-1,82
 230 89 230 89 230 92 c 2,38,-1
EndSplineSet
EndChar

StartChar: Rinvertedbreve
Encoding: 530 530 154
Width: 669
GlyphClass: 1
Flags: W
LayerCount: 2
Fore
SplineSet
329 933 m 0,0,1
 274 933 274 933 238 917 c 128,-1,2
 202 901 202 901 183 864 c 128,-1,3
 164 827 164 827 163 766 c 1,4,-1
 241 766 l 1,5,6
 243 800 243 800 250.5 819 c 128,-1,7
 258 838 258 838 276.5 845.5 c 128,-1,8
 295 853 295 853 329 853 c 0,9,10
 358 853 358 853 376 845.5 c 128,-1,11
 394 838 394 838 402.5 819.5 c 128,-1,12
 411 801 411 801 413 766 c 1,13,-1
 494 766 l 1,14,15
 494 827 494 827 474 864 c 128,-1,16
 454 901 454 901 417.5 917 c 128,-1,17
 381 933 381 933 329 933 c 0,0,1
339 322 m 1,18,-1
 495 0 l 1,19,-1
 646 0 l 1,20,-1
 646 82 l 1,21,-1
 637 82 l 2,22,23
 618 82 618 82 602.5 87 c 128,-1,24
 587 92 587 92 574 105.5 c 128,-1,25
 561 119 561 119 547 144 c 2,26,-1
 433 371 l 1,27,-1
 339 322 l 1,18,-1
230 92 m 2,28,-1
 230 629 l 1,29,-1
 338 629 l 2,30,31
 381 629 381 629 408.5 615.5 c 128,-1,32
 436 602 436 602 449.5 575.5 c 128,-1,33
 463 549 463 549 463 509 c 0,34,35
 463 470 463 470 451 438 c 128,-1,36
 439 406 439 406 410.5 388 c 128,-1,37
 382 370 382 370 333 370 c 2,38,-1
 217 370 l 1,39,-1
 217 293 l 1,40,-1
 373 293 l 2,41,42
 378 294 378 294 381.5 295.5 c 128,-1,43
 385 297 385 297 390.5 300.5 c 128,-1,44
 396 304 396 304 404 309 c 0,45,46
 455 321 455 321 492.5 347 c 128,-1,47
 530 373 530 373 550.5 416.5 c 128,-1,48
 571 460 571 460 571 520 c 0,49,50
 571 583 571 583 544.5 625.5 c 128,-1,51
 518 668 518 668 468 689 c 128,-1,52
 418 710 418 710 346 710 c 2,53,-1
 50 710 l 1,54,-1
 50 628 l 1,55,-1
 59 628 l 2,56,57
 81 628 81 628 99 621 c 128,-1,58
 117 614 117 614 117 591 c 2,59,-1
 117 119 l 2,60,61
 117 96 117 96 99 89 c 128,-1,62
 81 82 81 82 59 82 c 2,63,-1
 50 82 l 1,64,-1
 50 0 l 1,65,-1
 320 0 l 1,66,-1
 320 82 l 1,67,-1
 304 82 l 2,68,69
 290 82 290 82 277 82.5 c 128,-1,70
 264 83 264 83 253 84.5 c 128,-1,71
 242 86 242 86 236 87.5 c 128,-1,72
 230 89 230 89 230 92 c 2,28,-1
EndSplineSet
EndChar

StartChar: S
Encoding: 83 83 157
Width: 576
GlyphClass: 2
Flags: W
AnchorPoint: "Anchor-1" 316 0 basechar 0
AnchorPoint: "Anchor-0" 316 741 basechar 0
LayerCount: 2
Fore
SplineSet
313 56 m 0,0,1
 353 56 353 56 377.5 67 c 128,-1,2
 402 78 402 78 414.5 103 c 128,-1,3
 427 128 427 128 427 171 c 0,4,5
 427 208 427 208 414.5 232 c 128,-1,6
 402 256 402 256 379.5 271 c 128,-1,7
 357 286 357 286 327 296.5 c 128,-1,8
 297 307 297 307 263 317 c 0,9,10
 222 329 222 329 186.5 343 c 128,-1,11
 151 357 151 357 124.5 380 c 128,-1,12
 98 403 98 403 82.5 442 c 128,-1,13
 67 481 67 481 67 543 c 0,14,15
 67 604 67 604 90 646.5 c 128,-1,16
 113 689 113 689 157.5 711 c 128,-1,17
 202 733 202 733 266 733 c 0,18,19
 322 733 322 733 360 712.5 c 128,-1,20
 398 692 398 692 418 649 c 128,-1,21
 438 606 438 606 439 537 c 1,22,-1
 413 585 l 1,23,-1
 429 719 l 1,24,-1
 500 719 l 1,25,-1
 500 510 l 1,26,-1
 422 510 l 1,27,28
 412 555 412 555 393.5 587.5 c 128,-1,29
 375 620 375 620 345.5 637.5 c 128,-1,30
 316 655 316 655 271 655 c 0,31,32
 238 655 238 655 215.5 644 c 128,-1,33
 193 633 193 633 181.5 610 c 128,-1,34
 170 587 170 587 170 550 c 0,35,36
 170 515 170 515 180 494 c 128,-1,37
 190 473 190 473 210 460 c 128,-1,38
 230 447 230 447 258.5 437 c 128,-1,39
 287 427 287 427 324 416 c 0,40,41
 363 404 363 404 400 390 c 128,-1,42
 437 376 437 376 467 352 c 128,-1,43
 497 328 497 328 514.5 288.5 c 128,-1,44
 532 249 532 249 532 189 c 0,45,46
 532 115 532 115 505.5 68.5 c 128,-1,47
 479 22 479 22 431 -0.5 c 128,-1,48
 383 -23 383 -23 318 -23 c 0,49,50
 256 -23 256 -23 211 -1 c 128,-1,51
 166 21 166 21 140 70.5 c 128,-1,52
 114 120 114 120 109 201 c 1,53,-1
 138 158 l 1,54,-1
 124 -5 l 1,55,-1
 53 -5 l 1,56,-1
 53 230 l 1,57,-1
 135 230 l 1,58,59
 147 172 147 172 169 133 c 128,-1,60
 191 94 191 94 226 75 c 128,-1,61
 261 56 261 56 313 56 c 0,0,1
EndSplineSet
EndChar

StartChar: Scaron
Encoding: 352 352 161
Width: 576
GlyphClass: 1
Flags: W
LayerCount: 2
Fore
SplineSet
254 804 m 1,0,-1
 330 804 l 1,1,-1
 449 959 l 1,2,-1
 449 983 l 1,3,-1
 393 983 l 1,4,-1
 236 846 l 1,5,-1
 354 848 l 1,6,-1
 198 983 l 1,7,-1
 135 983 l 1,8,-1
 135 959 l 1,9,-1
 254 804 l 1,0,-1
313 56 m 0,10,11
 353 56 353 56 377.5 67 c 128,-1,12
 402 78 402 78 414.5 103 c 128,-1,13
 427 128 427 128 427 171 c 0,14,15
 427 208 427 208 414.5 232 c 128,-1,16
 402 256 402 256 379.5 271 c 128,-1,17
 357 286 357 286 327 296.5 c 128,-1,18
 297 307 297 307 263 317 c 0,19,20
 222 329 222 329 186.5 343 c 128,-1,21
 151 357 151 357 124.5 380 c 128,-1,22
 98 403 98 403 82.5 442 c 128,-1,23
 67 481 67 481 67 543 c 0,24,25
 67 604 67 604 90 646.5 c 128,-1,26
 113 689 113 689 157.5 711 c 128,-1,27
 202 733 202 733 266 733 c 0,28,29
 322 733 322 733 360 712.5 c 128,-1,30
 398 692 398 692 418 649 c 128,-1,31
 438 606 438 606 439 537 c 1,32,-1
 413 585 l 1,33,-1
 429 719 l 1,34,-1
 500 719 l 1,35,-1
 500 510 l 1,36,-1
 422 510 l 1,37,38
 412 555 412 555 393.5 587.5 c 128,-1,39
 375 620 375 620 345.5 637.5 c 128,-1,40
 316 655 316 655 271 655 c 0,41,42
 238 655 238 655 215.5 644 c 128,-1,43
 193 633 193 633 181.5 610 c 128,-1,44
 170 587 170 587 170 550 c 0,45,46
 170 515 170 515 180 494 c 128,-1,47
 190 473 190 473 210 460 c 128,-1,48
 230 447 230 447 258.5 437 c 128,-1,49
 287 427 287 427 324 416 c 0,50,51
 363 404 363 404 400 390 c 128,-1,52
 437 376 437 376 467 352 c 128,-1,53
 497 328 497 328 514.5 288.5 c 128,-1,54
 532 249 532 249 532 189 c 0,55,56
 532 115 532 115 505.5 68.5 c 128,-1,57
 479 22 479 22 431 -0.5 c 128,-1,58
 383 -23 383 -23 318 -23 c 0,59,60
 256 -23 256 -23 211 -1 c 128,-1,61
 166 21 166 21 140 70.5 c 128,-1,62
 114 120 114 120 109 201 c 1,63,-1
 138 158 l 1,64,-1
 124 -5 l 1,65,-1
 53 -5 l 1,66,-1
 53 230 l 1,67,-1
 135 230 l 1,68,69
 147 172 147 172 169 133 c 128,-1,70
 191 94 191 94 226 75 c 128,-1,71
 261 56 261 56 313 56 c 0,10,11
EndSplineSet
EndChar

StartChar: Scarondotaccent
Encoding: 7782 7782 166
Width: 576
GlyphClass: 1
Flags: W
LayerCount: 2
Fore
SplineSet
253 804 m 1,0,-1
 330 804 l 1,1,-1
 448 959 l 1,2,-1
 448 983 l 1,3,-1
 392 983 l 1,4,-1
 235 846 l 1,5,-1
 353 848 l 1,6,-1
 198 983 l 1,7,-1
 134 983 l 1,8,-1
 134 959 l 1,9,-1
 253 804 l 1,0,-1
313 56 m 0,10,11
 353 56 353 56 377.5 67 c 128,-1,12
 402 78 402 78 414.5 103 c 128,-1,13
 427 128 427 128 427 171 c 0,14,15
 427 208 427 208 414.5 232 c 128,-1,16
 402 256 402 256 379.5 271 c 128,-1,17
 357 286 357 286 327 296.5 c 128,-1,18
 297 307 297 307 263 317 c 0,19,20
 222 329 222 329 186.5 343 c 128,-1,21
 151 357 151 357 124.5 380 c 128,-1,22
 98 403 98 403 82.5 442 c 128,-1,23
 67 481 67 481 67 543 c 0,24,25
 67 604 67 604 90 646.5 c 128,-1,26
 113 689 113 689 157.5 711 c 128,-1,27
 202 733 202 733 266 733 c 0,28,29
 322 733 322 733 360 712.5 c 128,-1,30
 398 692 398 692 418 649 c 128,-1,31
 438 606 438 606 439 537 c 1,32,-1
 413 585 l 1,33,-1
 429 719 l 1,34,-1
 500 719 l 1,35,-1
 500 510 l 1,36,-1
 422 510 l 1,37,38
 412 555 412 555 393.5 587.5 c 128,-1,39
 375 620 375 620 345.5 637.5 c 128,-1,40
 316 655 316 655 271 655 c 0,41,42
 238 655 238 655 215.5 644 c 128,-1,43
 193 633 193 633 181.5 610 c 128,-1,44
 170 587 170 587 170 550 c 0,45,46
 170 515 170 515 180 494 c 128,-1,47
 190 473 190 473 210 460 c 128,-1,48
 230 447 230 447 258.5 437 c 128,-1,49
 287 427 287 427 324 416 c 0,50,51
 363 404 363 404 400 390 c 128,-1,52
 437 376 437 376 467 352 c 128,-1,53
 497 328 497 328 514.5 288.5 c 128,-1,54
 532 249 532 249 532 189 c 0,55,56
 532 115 532 115 505.5 68.5 c 128,-1,57
 479 22 479 22 431 -0.5 c 128,-1,58
 383 -23 383 -23 318 -23 c 0,59,60
 256 -23 256 -23 211 -1 c 128,-1,61
 166 21 166 21 140 70.5 c 128,-1,62
 114 120 114 120 109 201 c 1,63,-1
 138 158 l 1,64,-1
 124 -5 l 1,65,-1
 53 -5 l 1,66,-1
 53 230 l 1,67,-1
 135 230 l 1,68,69
 147 172 147 172 169 133 c 128,-1,70
 191 94 191 94 226 75 c 128,-1,71
 261 56 261 56 313 56 c 0,10,11
291 1009 m 256,72,73
 253 1009 253 1009 233 1028.5 c 128,-1,74
 213 1048 213 1048 213 1085 c 0,75,76
 213 1120 213 1120 233 1140 c 128,-1,77
 253 1160 253 1160 291 1160 c 256,78,79
 329 1160 329 1160 349 1140 c 128,-1,80
 369 1120 369 1120 369 1085 c 0,81,82
 369 1048 369 1048 349 1028.5 c 128,-1,83
 329 1009 329 1009 291 1009 c 256,72,73
EndSplineSet
EndChar

StartChar: T
Encoding: 84 84 168
Width: 642
GlyphClass: 2
Flags: W
AnchorPoint: "Anchor-1" 326 0 basechar 0
AnchorPoint: "Anchor-0" 326 741 basechar 0
LayerCount: 2
Fore
SplineSet
264 119 m 2,0,-1
 264 629 l 1,1,-1
 214 629 l 2,2,3
 179 629 179 629 163 623 c 128,-1,4
 147 617 147 617 141.5 604 c 128,-1,5
 136 591 136 591 133 569 c 2,6,-1
 123 471 l 1,7,-1
 44 471 l 1,8,-1
 44 710 l 1,9,-1
 599 710 l 1,10,-1
 599 471 l 1,11,-1
 519 471 l 1,12,-1
 509 569 l 2,13,14
 507 591 507 591 501 604 c 128,-1,15
 495 617 495 617 478.5 623 c 128,-1,16
 462 629 462 629 428 629 c 2,17,-1
 377 629 l 1,18,-1
 377 119 l 2,19,20
 377 96 377 96 398 89 c 128,-1,21
 419 82 419 82 444 82 c 2,22,-1
 461 82 l 1,23,-1
 461 0 l 1,24,-1
 181 0 l 1,25,-1
 181 82 l 1,26,-1
 198 82 l 2,27,28
 224 82 224 82 244 89 c 128,-1,29
 264 96 264 96 264 119 c 2,0,-1
EndSplineSet
EndChar

StartChar: Tcaron
Encoding: 356 356 170
Width: 642
GlyphClass: 1
Flags: W
LayerCount: 2
Fore
SplineSet
277 804 m 1,0,-1
 354 804 l 1,1,-1
 472 959 l 1,2,-1
 472 983 l 1,3,-1
 417 983 l 1,4,-1
 259 846 l 1,5,-1
 377 848 l 1,6,-1
 222 983 l 1,7,-1
 158 983 l 1,8,-1
 158 959 l 1,9,-1
 277 804 l 1,0,-1
264 118 m 2,10,-1
 264 629 l 1,11,-1
 214 629 l 2,12,13
 179 629 179 629 163 623 c 128,-1,14
 147 617 147 617 141.5 604 c 128,-1,15
 136 591 136 591 133 569 c 2,16,-1
 123 471 l 1,17,-1
 44 471 l 1,18,-1
 44 710 l 1,19,-1
 599 710 l 1,20,-1
 599 471 l 1,21,-1
 519 471 l 1,22,-1
 509 569 l 2,23,24
 507 591 507 591 501 604 c 128,-1,25
 495 617 495 617 478.5 623 c 128,-1,26
 462 629 462 629 428 629 c 2,27,-1
 377 629 l 1,28,-1
 377 118 l 2,29,30
 377 96 377 96 398 89 c 128,-1,31
 419 82 419 82 444 82 c 2,32,-1
 461 82 l 1,33,-1
 461 0 l 1,34,-1
 181 0 l 1,35,-1
 181 82 l 1,36,-1
 198 82 l 2,37,38
 223 82 223 82 243.5 89 c 128,-1,39
 264 96 264 96 264 118 c 2,10,-1
EndSplineSet
EndChar

StartChar: U
Encoding: 85 85 174
Width: 705
GlyphClass: 2
Flags: W
AnchorPoint: "Anchor-2" 404 0 basechar 0
AnchorPoint: "Anchor-1" 356 0 basechar 0
AnchorPoint: "Anchor-0" 356 741 basechar 0
LayerCount: 2
Fore
SplineSet
221 241 m 2,0,1
 221 191 221 191 232 157 c 128,-1,2
 243 123 243 123 263 102.5 c 128,-1,3
 283 82 283 82 310 72.5 c 128,-1,4
 337 63 337 63 369 63 c 0,5,6
 402 63 402 63 428.5 72.5 c 128,-1,7
 455 82 455 82 473.5 102.5 c 128,-1,8
 492 123 492 123 501.5 157 c 128,-1,9
 511 191 511 191 511 241 c 2,10,-1
 511 608 l 2,11,12
 511 614 511 614 505 617.5 c 128,-1,13
 499 621 499 621 490 623 c 128,-1,14
 481 625 481 625 471 626.5 c 128,-1,15
 461 628 461 628 453 628 c 2,16,-1
 445 628 l 1,17,-1
 445 710 l 1,18,-1
 664 710 l 1,19,-1
 664 628 l 1,20,-1
 655 628 l 2,21,22
 642 628 642 628 629 624 c 128,-1,23
 616 620 616 620 608.5 610 c 128,-1,24
 601 600 601 600 601 583 c 2,25,-1
 601 221 l 2,26,27
 601 155 601 155 581.5 108.5 c 128,-1,28
 562 62 562 62 528 32.5 c 128,-1,29
 494 3 494 3 450.5 -10 c 128,-1,30
 407 -23 407 -23 359 -23 c 0,31,32
 306 -23 306 -23 260 -9.5 c 128,-1,33
 214 4 214 4 180 33 c 128,-1,34
 146 62 146 62 127 109 c 128,-1,35
 108 156 108 156 108 222 c 2,36,-1
 108 592 l 2,37,38
 108 614 108 614 90 621 c 128,-1,39
 72 628 72 628 50 628 c 2,40,-1
 40 628 l 1,41,-1
 40 710 l 1,42,-1
 297 710 l 1,43,-1
 297 628 l 1,44,-1
 289 628 l 2,45,46
 278 628 278 628 266 627.5 c 128,-1,47
 254 627 254 627 243.5 625.5 c 128,-1,48
 233 624 233 624 227 622.5 c 128,-1,49
 221 621 221 621 221 618 c 2,50,-1
 221 241 l 2,0,1
EndSplineSet
EndChar

StartChar: Uogonek
Encoding: 370 370 184
Width: 705
GlyphClass: 1
Flags: W
LayerCount: 2
Fore
SplineSet
461 41 m 1,0,-1
 459 -2 l 1,1,2
 437 -14 437 -14 411.5 -18.5 c 128,-1,3
 386 -23 386 -23 359 -23 c 0,4,5
 304 -23 304 -23 258 -9.5 c 128,-1,6
 212 4 212 4 177.5 33 c 128,-1,7
 143 62 143 62 125.5 109 c 128,-1,8
 108 156 108 156 108 222 c 2,9,-1
 108 592 l 2,10,11
 108 614 108 614 93.5 621 c 128,-1,12
 79 628 79 628 50 628 c 2,13,-1
 40 628 l 1,14,-1
 40 710 l 1,15,-1
 297 710 l 1,16,-1
 297 629 l 1,17,-1
 289 629 l 2,18,19
 278 629 278 629 266 628 c 128,-1,20
 254 627 254 627 244 625.5 c 128,-1,21
 234 624 234 624 227.5 622.5 c 128,-1,22
 221 621 221 621 221 618 c 2,23,-1
 221 227 l 2,24,25
 221 181 221 181 232 150 c 128,-1,26
 243 119 243 119 263 100 c 128,-1,27
 283 81 283 81 310.5 73 c 128,-1,28
 338 65 338 65 372 65 c 0,29,30
 405 65 405 65 431 73 c 128,-1,31
 457 81 457 81 475.5 99.5 c 128,-1,32
 494 118 494 118 503.5 149.5 c 128,-1,33
 513 181 513 181 513 227 c 2,34,-1
 513 609 l 2,35,36
 513 614 513 614 508 617.5 c 128,-1,37
 503 621 503 621 495 623 c 128,-1,38
 487 625 487 625 476 626.5 c 128,-1,39
 465 628 465 628 453 628 c 2,40,-1
 445 628 l 1,41,-1
 445 710 l 1,42,-1
 664 710 l 1,43,-1
 664 628 l 1,44,-1
 655 628 l 2,45,46
 637 628 637 628 624.5 624 c 128,-1,47
 612 620 612 620 606 610 c 128,-1,48
 600 600 600 600 600 583 c 2,49,-1
 600 221 l 2,50,51
 600 179 600 179 590.5 145 c 128,-1,52
 581 111 581 111 566.5 84 c 128,-1,53
 552 57 552 57 534 37 c 0,54,55
 514 14 514 14 488.5 -7.5 c 128,-1,56
 463 -29 463 -29 440 -50.5 c 128,-1,57
 417 -72 417 -72 401.5 -95.5 c 128,-1,58
 386 -119 386 -119 386 -147 c 0,59,60
 386 -159 386 -159 393 -169.5 c 128,-1,61
 400 -180 400 -180 421 -180 c 0,62,63
 447 -180 447 -180 462.5 -167 c 128,-1,64
 478 -154 478 -154 489 -139 c 1,65,-1
 534 -181 l 1,66,67
 510 -212 510 -212 478 -232 c 128,-1,68
 446 -252 446 -252 394 -252 c 0,69,70
 359 -252 359 -252 331 -242.5 c 128,-1,71
 303 -233 303 -233 286.5 -212.5 c 128,-1,72
 270 -192 270 -192 270 -160 c 0,73,74
 270 -137 270 -137 279 -116.5 c 128,-1,75
 288 -96 288 -96 309 -75 c 128,-1,76
 330 -54 330 -54 367.5 -26 c 128,-1,77
 405 2 405 2 461 41 c 1,0,-1
EndSplineSet
EndChar

StartChar: Uhorn
Encoding: 431 431 185
Width: 810
GlyphClass: 2
Flags: W
AnchorPoint: "Anchor-1" 408 -35 basechar 0
AnchorPoint: "Anchor-0" 408 663 basechar 0
LayerCount: 2
Fore
SplineSet
108 222 m 2,0,-1
 108 592 l 2,1,2
 108 614 108 614 93.5 621 c 128,-1,3
 79 628 79 628 50 628 c 2,4,-1
 40 628 l 1,5,-1
 40 710 l 1,6,-1
 297 710 l 1,7,-1
 297 629 l 1,8,-1
 289 629 l 2,9,10
 278 629 278 629 266 628 c 128,-1,11
 254 627 254 627 244 625.5 c 128,-1,12
 234 624 234 624 227.5 622.5 c 128,-1,13
 221 621 221 621 221 618 c 2,14,-1
 221 227 l 2,15,16
 221 181 221 181 232 149.5 c 128,-1,17
 243 118 243 118 263 99.5 c 128,-1,18
 283 81 283 81 311 72.5 c 128,-1,19
 339 64 339 64 373 64 c 0,20,21
 414 64 414 64 445.5 79 c 128,-1,22
 477 94 477 94 495 130 c 128,-1,23
 513 166 513 166 513 227 c 2,24,-1
 513 609 l 2,25,26
 513 614 513 614 508 617.5 c 128,-1,27
 503 621 503 621 495 623 c 128,-1,28
 487 625 487 625 476 626.5 c 128,-1,29
 465 628 465 628 453 628 c 2,30,-1
 445 628 l 1,31,-1
 445 710 l 1,32,-1
 632 710 l 2,33,34
 661 710 661 710 681 722.5 c 128,-1,35
 701 735 701 735 713.5 759 c 128,-1,36
 726 783 726 783 732.5 818 c 128,-1,37
 739 853 739 853 741 898 c 1,38,-1
 842 898 l 1,39,40
 841 844 841 844 834.5 802 c 128,-1,41
 828 760 828 760 814.5 729.5 c 128,-1,42
 801 699 801 699 779 679 c 128,-1,43
 757 659 757 659 725 646.5 c 128,-1,44
 693 634 693 634 648 629 c 0,45,46
 632 628 632 628 621 624.5 c 128,-1,47
 610 621 610 621 605 611.5 c 128,-1,48
 600 602 600 602 600 586 c 2,49,-1
 600 221 l 2,50,51
 600 155 600 155 581.5 108.5 c 128,-1,52
 563 62 563 62 529.5 32.5 c 128,-1,53
 496 3 496 3 452 -10 c 128,-1,54
 408 -23 408 -23 359 -23 c 0,55,56
 304 -23 304 -23 258 -9.5 c 128,-1,57
 212 4 212 4 177.5 33 c 128,-1,58
 143 62 143 62 125.5 109 c 128,-1,59
 108 156 108 156 108 222 c 2,0,-1
EndSplineSet
EndChar

StartChar: Ucaron
Encoding: 467 467 186
Width: 705
GlyphClass: 1
Flags: W
LayerCount: 2
Fore
SplineSet
325 804 m 1,0,-1
 402 804 l 1,1,-1
 520 959 l 1,2,-1
 520 983 l 1,3,-1
 465 983 l 1,4,-1
 307 846 l 1,5,-1
 425 848 l 1,6,-1
 270 983 l 1,7,-1
 206 983 l 1,8,-1
 206 959 l 1,9,-1
 325 804 l 1,0,-1
221 241 m 2,10,11
 221 191 221 191 232 157 c 128,-1,12
 243 123 243 123 263 102.5 c 128,-1,13
 283 82 283 82 310 72.5 c 128,-1,14
 337 63 337 63 369 63 c 0,15,16
 402 63 402 63 428.5 72.5 c 128,-1,17
 455 82 455 82 473.5 102.5 c 128,-1,18
 492 123 492 123 501.5 157 c 128,-1,19
 511 191 511 191 511 241 c 2,20,-1
 511 609 l 2,21,22
 511 614 511 614 505.5 617.5 c 128,-1,23
 500 621 500 621 490.5 623 c 128,-1,24
 481 625 481 625 471 626.5 c 128,-1,25
 461 628 461 628 453 628 c 2,26,-1
 445 628 l 1,27,-1
 445 710 l 1,28,-1
 664 710 l 1,29,-1
 664 628 l 1,30,-1
 655 628 l 2,31,32
 641 628 641 628 628.5 624 c 128,-1,33
 616 620 616 620 608.5 610 c 128,-1,34
 601 600 601 600 601 583 c 2,35,-1
 601 221 l 2,36,37
 601 155 601 155 581.5 108.5 c 128,-1,38
 562 62 562 62 528 32.5 c 128,-1,39
 494 3 494 3 450.5 -10 c 128,-1,40
 407 -23 407 -23 359 -23 c 0,41,42
 306 -23 306 -23 260 -9.5 c 128,-1,43
 214 4 214 4 180 33 c 128,-1,44
 146 62 146 62 127 109 c 128,-1,45
 108 156 108 156 108 222 c 2,46,-1
 108 592 l 2,47,48
 108 614 108 614 90 621 c 128,-1,49
 72 628 72 628 50 628 c 2,50,-1
 40 628 l 1,51,-1
 40 710 l 1,52,-1
 297 710 l 1,53,-1
 297 628 l 1,54,-1
 289 628 l 2,55,56
 278 628 278 628 266 627.5 c 128,-1,57
 254 627 254 627 244 625.5 c 128,-1,58
 234 624 234 624 227.5 622.5 c 128,-1,59
 221 621 221 621 221 618 c 2,60,-1
 221 241 l 2,10,11
EndSplineSet
EndChar

StartChar: Udieresiscaron
Encoding: 473 473 187
Width: 706
GlyphClass: 1
Flags: W
LayerCount: 2
Fore
SplineSet
321 972 m 1,0,-1
 397 972 l 1,1,-1
 516 1126 l 1,2,-1
 516 1150 l 1,3,-1
 460 1150 l 1,4,-1
 303 1014 l 1,5,-1
 421 1016 l 1,6,-1
 265 1150 l 1,7,-1
 202 1150 l 1,8,-1
 202 1126 l 1,9,-1
 321 972 l 1,0,-1
221 241 m 2,10,11
 221 191 221 191 232 157 c 128,-1,12
 243 123 243 123 263 102.5 c 128,-1,13
 283 82 283 82 310 72.5 c 128,-1,14
 337 63 337 63 369 63 c 0,15,16
 402 63 402 63 428.5 72.5 c 128,-1,17
 455 82 455 82 473.5 102.5 c 128,-1,18
 492 123 492 123 501.5 157 c 128,-1,19
 511 191 511 191 511 241 c 2,20,-1
 511 609 l 2,21,22
 511 614 511 614 505.5 617.5 c 128,-1,23
 500 621 500 621 490.5 623 c 128,-1,24
 481 625 481 625 471 626.5 c 128,-1,25
 461 628 461 628 453 628 c 2,26,-1
 445 628 l 1,27,-1
 445 710 l 1,28,-1
 664 710 l 1,29,-1
 664 628 l 1,30,-1
 655 628 l 2,31,32
 641 628 641 628 628.5 624 c 128,-1,33
 616 620 616 620 608.5 610 c 128,-1,34
 601 600 601 600 601 583 c 2,35,-1
 601 221 l 2,36,37
 601 155 601 155 581.5 108.5 c 128,-1,38
 562 62 562 62 528 32.5 c 128,-1,39
 494 3 494 3 450.5 -10 c 128,-1,40
 407 -23 407 -23 359 -23 c 0,41,42
 306 -23 306 -23 260 -9.5 c 128,-1,43
 214 4 214 4 180 33 c 128,-1,44
 146 62 146 62 127 109 c 128,-1,45
 108 156 108 156 108 222 c 2,46,-1
 108 592 l 2,47,48
 108 614 108 614 90 621 c 128,-1,49
 72 628 72 628 50 628 c 2,50,-1
 40 628 l 1,51,-1
 40 710 l 1,52,-1
 297 710 l 1,53,-1
 297 628 l 1,54,-1
 289 628 l 2,55,56
 278 628 278 628 266 627.5 c 128,-1,57
 254 627 254 627 244 625.5 c 128,-1,58
 234 624 234 624 227.5 622.5 c 128,-1,59
 221 621 221 621 221 618 c 2,60,-1
 221 241 l 2,10,11
316 867 m 0,61,62
 316 829 316 829 295.5 812.5 c 128,-1,63
 275 796 275 796 242 796 c 0,64,65
 207 796 207 796 187.5 812.5 c 128,-1,66
 168 829 168 829 168 867 c 0,67,68
 168 904 168 904 187.5 920.5 c 128,-1,69
 207 937 207 937 242 937 c 0,70,71
 275 937 275 937 295.5 920.5 c 128,-1,72
 316 904 316 904 316 867 c 0,61,62
548 867 m 0,73,74
 548 829 548 829 528 812.5 c 128,-1,75
 508 796 508 796 474 796 c 0,76,77
 441 796 441 796 420.5 812.5 c 128,-1,78
 400 829 400 829 400 867 c 0,79,80
 400 904 400 904 420.5 920.5 c 128,-1,81
 441 937 441 937 474 937 c 0,82,83
 508 937 508 937 528 920.5 c 128,-1,84
 548 904 548 904 548 867 c 0,73,74
EndSplineSet
EndChar

StartChar: Udblgrave
Encoding: 532 532 188
Width: 705
GlyphClass: 1
Flags: W
LayerCount: 2
Fore
SplineSet
444 926 m 2,0,-1
 483 828 l 1,1,-1
 483 792 l 1,2,-1
 438 792 l 1,3,-1
 372 855 l 2,4,5
 351 874 351 874 340 893 c 128,-1,6
 329 912 329 912 329 934 c 0,7,8
 329 953 329 953 342.5 966 c 128,-1,9
 356 979 356 979 380 979 c 0,10,11
 397 979 397 979 409 971.5 c 128,-1,12
 421 964 421 964 429.5 952 c 128,-1,13
 438 940 438 940 444 926 c 2,0,-1
264 926 m 2,14,-1
 300 828 l 1,15,-1
 300 792 l 1,16,-1
 257 792 l 1,17,-1
 190 855 l 2,18,19
 170 874 170 874 158.5 893 c 128,-1,20
 147 912 147 912 147 934 c 0,21,22
 147 953 147 953 160.5 966 c 128,-1,23
 174 979 174 979 198 979 c 0,24,25
 215 979 215 979 228 971.5 c 128,-1,26
 241 964 241 964 250 952 c 128,-1,27
 259 940 259 940 264 926 c 2,14,-1
221 241 m 2,28,29
 221 191 221 191 232 157 c 128,-1,30
 243 123 243 123 263 102.5 c 128,-1,31
 283 82 283 82 310 72.5 c 128,-1,32
 337 63 337 63 369 63 c 0,33,34
 402 63 402 63 428.5 72.5 c 128,-1,35
 455 82 455 82 473.5 102.5 c 128,-1,36
 492 123 492 123 501.5 157 c 128,-1,37
 511 191 511 191 511 241 c 2,38,-1
 511 609 l 2,39,40
 511 614 511 614 505.5 617.5 c 128,-1,41
 500 621 500 621 490.5 623 c 128,-1,42
 481 625 481 625 471 626.5 c 128,-1,43
 461 628 461 628 453 628 c 2,44,-1
 445 628 l 1,45,-1
 445 710 l 1,46,-1
 664 710 l 1,47,-1
 664 628 l 1,48,-1
 655 628 l 2,49,50
 641 628 641 628 628.5 624 c 128,-1,51
 616 620 616 620 608.5 610 c 128,-1,52
 601 600 601 600 601 583 c 2,53,-1
 601 221 l 2,54,55
 601 155 601 155 581.5 108.5 c 128,-1,56
 562 62 562 62 528 32.5 c 128,-1,57
 494 3 494 3 450.5 -10 c 128,-1,58
 407 -23 407 -23 359 -23 c 0,59,60
 306 -23 306 -23 260 -9.5 c 128,-1,61
 214 4 214 4 180 33 c 128,-1,62
 146 62 146 62 127 109 c 128,-1,63
 108 156 108 156 108 222 c 2,64,-1
 108 592 l 2,65,66
 108 614 108 614 90 621 c 128,-1,67
 72 628 72 628 50 628 c 2,68,-1
 40 628 l 1,69,-1
 40 710 l 1,70,-1
 297 710 l 1,71,-1
 297 628 l 1,72,-1
 289 628 l 2,73,74
 278 628 278 628 266 627.5 c 128,-1,75
 254 627 254 627 244 625.5 c 128,-1,76
 234 624 234 624 227.5 622.5 c 128,-1,77
 221 621 221 621 221 618 c 2,78,-1
 221 241 l 2,28,29
EndSplineSet
EndChar

StartChar: Uinvertedbreve
Encoding: 534 534 189
Width: 705
GlyphClass: 1
Flags: W
LayerCount: 2
Fore
SplineSet
356 933 m 0,0,1
 302 933 302 933 266 917 c 128,-1,2
 230 901 230 901 211 864 c 128,-1,3
 192 827 192 827 191 766 c 1,4,-1
 269 766 l 1,5,6
 271 800 271 800 278.5 819 c 128,-1,7
 286 838 286 838 305 845.5 c 128,-1,8
 324 853 324 853 357 853 c 0,9,10
 386 853 386 853 404 845.5 c 128,-1,11
 422 838 422 838 430.5 819.5 c 128,-1,12
 439 801 439 801 441 766 c 1,13,-1
 522 766 l 1,14,15
 522 827 522 827 502 864 c 128,-1,16
 482 901 482 901 445.5 917 c 128,-1,17
 409 933 409 933 356 933 c 0,0,1
221 241 m 2,18,19
 221 191 221 191 232 157 c 128,-1,20
 243 123 243 123 263 102.5 c 128,-1,21
 283 82 283 82 310 72.5 c 128,-1,22
 337 63 337 63 369 63 c 0,23,24
 402 63 402 63 428.5 72.5 c 128,-1,25
 455 82 455 82 473.5 102.5 c 128,-1,26
 492 123 492 123 501.5 157 c 128,-1,27
 511 191 511 191 511 241 c 2,28,-1
 511 609 l 2,29,30
 511 614 511 614 505.5 617.5 c 128,-1,31
 500 621 500 621 490.5 623 c 128,-1,32
 481 625 481 625 471 626.5 c 128,-1,33
 461 628 461 628 453 628 c 2,34,-1
 445 628 l 1,35,-1
 445 710 l 1,36,-1
 664 710 l 1,37,-1
 664 628 l 1,38,-1
 655 628 l 2,39,40
 641 628 641 628 628.5 624 c 128,-1,41
 616 620 616 620 608.5 610 c 128,-1,42
 601 600 601 600 601 583 c 2,43,-1
 601 221 l 2,44,45
 601 155 601 155 581.5 108.5 c 128,-1,46
 562 62 562 62 528 32.5 c 128,-1,47
 494 3 494 3 450.5 -10 c 128,-1,48
 407 -23 407 -23 359 -23 c 0,49,50
 306 -23 306 -23 260 -9.5 c 128,-1,51
 214 4 214 4 180 33 c 128,-1,52
 146 62 146 62 127 109 c 128,-1,53
 108 156 108 156 108 222 c 2,54,-1
 108 592 l 2,55,56
 108 614 108 614 90 621 c 128,-1,57
 72 628 72 628 50 628 c 2,58,-1
 40 628 l 1,59,-1
 40 710 l 1,60,-1
 297 710 l 1,61,-1
 297 628 l 1,62,-1
 289 628 l 2,63,64
 278 628 278 628 266 627.5 c 128,-1,65
 254 627 254 627 244 625.5 c 128,-1,66
 234 624 234 624 227.5 622.5 c 128,-1,67
 221 621 221 621 221 618 c 2,68,-1
 221 241 l 2,18,19
EndSplineSet
EndChar

StartChar: V
Encoding: 86 86 199
Width: 654
GlyphClass: 2
Flags: W
AnchorPoint: "Anchor-0" 360 741 basechar 0
LayerCount: 2
Fore
SplineSet
356 23 m 1,0,-1
 325 32 l 1,1,-1
 488 605 l 2,2,3
 488 612 488 612 481 617 c 128,-1,4
 474 622 474 622 460 625 c 128,-1,5
 446 628 446 628 428 628 c 2,6,-1
 419 628 l 1,7,-1
 419 710 l 1,8,-1
 636 710 l 1,9,-1
 636 628 l 1,10,-1
 631 628 l 2,11,12
 614 628 614 628 597.5 616 c 128,-1,13
 581 604 581 604 570 564 c 2,14,-1
 399 -11 l 1,15,-1
 257 -11 l 1,16,-1
 85 564 l 2,17,18
 74 604 74 604 57.5 616 c 128,-1,19
 41 628 41 628 22 628 c 2,20,-1
 18 628 l 1,21,-1
 18 710 l 1,22,-1
 266 710 l 1,23,-1
 266 628 l 1,24,-1
 256 628 l 2,25,26
 233 628 233 628 217 626.5 c 128,-1,27
 201 625 201 625 193.5 623 c 128,-1,28
 186 621 186 621 186 617 c 2,29,-1
 356 23 l 1,0,-1
EndSplineSet
EndChar

StartChar: W
Encoding: 87 87 200
Width: 912
GlyphClass: 2
Flags: W
AnchorPoint: "Anchor-0" 469 741 basechar 0
LayerCount: 2
Fore
SplineSet
19 710 m 1,0,-1
 255 710 l 1,1,-1
 255 628 l 1,2,-1
 242 628 l 2,3,4
 230 628 230 628 216.5 626.5 c 128,-1,5
 203 625 203 625 193 623 c 128,-1,6
 183 621 183 621 183 617 c 2,7,-1
 310 41 l 1,8,-1
 261 40 l 1,9,-1
 417 710 l 1,10,-1
 534 710 l 1,11,-1
 686 43 l 1,12,-1
 641 41 l 1,13,-1
 766 605 l 2,14,15
 766 612 766 612 758.5 617 c 128,-1,16
 751 622 751 622 740 625 c 128,-1,17
 729 628 729 628 718 628 c 2,18,-1
 706 628 l 1,19,-1
 706 710 l 1,20,-1
 895 710 l 1,21,-1
 895 628 l 1,22,-1
 889 628 l 2,23,24
 874 628 874 628 861 617 c 128,-1,25
 848 606 848 606 842 577 c 2,26,-1
 712 -4 l 1,27,-1
 593 -4 l 1,28,-1
 441 648 l 1,29,-1
 489 653 l 1,30,-1
 335 -4 l 1,31,-1
 215 -4 l 1,32,-1
 77 585 l 2,33,34
 72 614 72 614 58.5 621 c 128,-1,35
 45 628 45 628 25 628 c 2,36,-1
 19 628 l 1,37,-1
 19 710 l 1,0,-1
EndSplineSet
EndChar

StartChar: X
Encoding: 88 88 205
Width: 660
GlyphClass: 2
Flags: W
AnchorPoint: "Anchor-1" 355 0 basechar 0
AnchorPoint: "Anchor-0" 378 741 basechar 0
LayerCount: 2
Fore
SplineSet
34 628 m 1,0,-1
 34 710 l 1,1,-1
 291 710 l 1,2,-1
 291 628 l 1,3,-1
 277 628 l 2,4,5
 261 628 261 628 248.5 627 c 128,-1,6
 236 626 236 626 227.5 624 c 128,-1,7
 219 622 219 622 219 618 c 2,8,-1
 369 392 l 1,9,-1
 383 387 l 1,10,-1
 559 116 l 2,11,12
 574 94 574 94 589.5 88 c 128,-1,13
 605 82 605 82 620 82 c 2,14,-1
 637 82 l 1,15,-1
 637 0 l 1,16,-1
 375 0 l 1,17,-1
 375 82 l 1,18,-1
 389 82 l 2,19,20
 404 82 404 82 417.5 83 c 128,-1,21
 431 84 431 84 439 86.5 c 128,-1,22
 447 89 447 89 447 92 c 2,23,-1
 285 340 l 1,24,-1
 272 345 l 1,25,-1
 107 594 l 2,26,27
 93 617 93 617 77.5 622.5 c 128,-1,28
 62 628 62 628 45 628 c 2,29,-1
 34 628 l 1,0,-1
24 0 m 1,30,-1
 24 82 l 1,31,-1
 41 82 l 2,32,33
 54 82 54 82 67 91.5 c 128,-1,34
 80 101 80 101 96 127 c 2,35,-1
 260 381 l 1,36,-1
 332 341 l 1,37,-1
 177 99 l 2,38,39
 177 95 177 95 186 91 c 128,-1,40
 195 87 195 87 206.5 84.5 c 128,-1,41
 218 82 218 82 229 82 c 2,42,-1
 243 82 l 1,43,-1
 243 0 l 1,44,-1
 24 0 l 1,30,-1
394 349 m 1,45,-1
 325 393 l 1,46,-1
 472 611 l 2,47,48
 472 616 472 616 462.5 620 c 128,-1,49
 453 624 453 624 440.5 626 c 128,-1,50
 428 628 428 628 416 628 c 2,51,-1
 405 628 l 1,52,-1
 405 710 l 1,53,-1
 621 710 l 1,54,-1
 621 628 l 1,55,-1
 610 628 l 2,56,57
 597 628 597 628 584 619 c 128,-1,58
 571 610 571 610 552 583 c 2,59,-1
 394 349 l 1,45,-1
EndSplineSet
EndChar

StartChar: Y
Encoding: 89 89 206
Width: 622
GlyphClass: 2
Flags: W
AnchorPoint: "Anchor-1" 314 0 basechar 0
AnchorPoint: "Anchor-0" 314 741 basechar 0
LayerCount: 2
Fore
SplineSet
256 296 m 1,0,-1
 262 258 l 1,1,-1
 87 582 l 2,2,3
 77 600 77 600 69 610 c 128,-1,4
 61 620 61 620 52 624 c 128,-1,5
 43 628 43 628 32 628 c 2,6,-1
 23 628 l 1,7,-1
 23 710 l 1,8,-1
 258 710 l 1,9,-1
 258 628 l 1,10,-1
 244 628 l 2,11,12
 229 628 229 628 216.5 626.5 c 128,-1,13
 204 625 204 625 195.5 623 c 128,-1,14
 187 621 187 621 187 617 c 2,15,-1
 356 300 l 1,16,-1
 297 300 l 1,17,-1
 453 605 l 2,18,19
 453 613 453 613 445 617.5 c 128,-1,20
 437 622 437 622 427 625 c 128,-1,21
 417 628 417 628 408 628 c 2,22,-1
 399 628 l 1,23,-1
 399 710 l 1,24,-1
 595 710 l 1,25,-1
 595 628 l 1,26,-1
 585 628 l 2,27,28
 577 628 577 628 568 623 c 128,-1,29
 559 618 559 618 549 606.5 c 128,-1,30
 539 595 539 595 529 574 c 2,31,-1
 363 258 l 1,32,-1
 369 296 l 1,33,-1
 369 118 l 2,34,35
 369 96 369 96 388.5 89 c 128,-1,36
 408 82 408 82 434 82 c 2,37,-1
 451 82 l 1,38,-1
 451 0 l 1,39,-1
 173 0 l 1,40,-1
 173 82 l 1,41,-1
 191 82 l 2,42,43
 218 82 218 82 237 89 c 128,-1,44
 256 96 256 96 256 118 c 2,45,-1
 256 296 l 1,0,-1
EndSplineSet
EndChar

StartChar: Z
Encoding: 90 90 216
Width: 593
GlyphClass: 2
Flags: W
AnchorPoint: "Anchor-1" 314 0 basechar 0
AnchorPoint: "Anchor-0" 314 741 basechar 0
LayerCount: 2
Fore
SplineSet
236 629 m 2,0,1
 211 629 211 629 195.5 627 c 128,-1,2
 180 625 180 625 172.5 620 c 128,-1,3
 165 615 165 615 161.5 606.5 c 128,-1,4
 158 598 158 598 156 584 c 2,5,-1
 145 503 l 1,6,-1
 66 503 l 1,7,-1
 66 710 l 1,8,-1
 527 710 l 1,9,-1
 527 624 l 1,10,-1
 137 21 l 1,11,-1
 115 81 l 1,12,-1
 364 81 l 2,13,14
 399 81 399 81 416.5 84.5 c 128,-1,15
 434 88 434 88 440 98 c 128,-1,16
 446 108 446 108 447 126 c 2,17,-1
 460 233 l 1,18,-1
 542 233 l 1,19,-1
 542 0 l 1,20,-1
 52 0 l 1,21,-1
 52 89 l 1,22,-1
 433 678 l 1,23,-1
 456 629 l 1,24,-1
 236 629 l 2,0,1
EndSplineSet
EndChar

StartChar: Zcaron
Encoding: 381 381 219
Width: 593
GlyphClass: 1
Flags: W
LayerCount: 2
Fore
SplineSet
255 804 m 1,0,-1
 332 804 l 1,1,-1
 450 959 l 1,2,-1
 450 983 l 1,3,-1
 395 983 l 1,4,-1
 237 846 l 1,5,-1
 355 848 l 1,6,-1
 200 983 l 1,7,-1
 136 983 l 1,8,-1
 136 959 l 1,9,-1
 255 804 l 1,0,-1
236 629 m 2,10,11
 211 629 211 629 195.5 627 c 128,-1,12
 180 625 180 625 172.5 620 c 128,-1,13
 165 615 165 615 161.5 606.5 c 128,-1,14
 158 598 158 598 156 584 c 2,15,-1
 145 503 l 1,16,-1
 66 503 l 1,17,-1
 66 710 l 1,18,-1
 527 710 l 1,19,-1
 527 624 l 1,20,-1
 137 21 l 1,21,-1
 115 81 l 1,22,-1
 364 81 l 2,23,24
 399 81 399 81 416.5 84.5 c 128,-1,25
 434 88 434 88 440 98 c 128,-1,26
 446 108 446 108 447 126 c 2,27,-1
 460 233 l 1,28,-1
 542 233 l 1,29,-1
 542 0 l 1,30,-1
 52 0 l 1,31,-1
 52 89 l 1,32,-1
 433 678 l 1,33,-1
 456 629 l 1,34,-1
 236 629 l 2,10,11
EndSplineSet
EndChar

StartChar: AE
Encoding: 198 198 221
Width: 950
GlyphClass: 2
Flags: W
AnchorPoint: "Anchor-0" 586 741 basechar 0
LayerCount: 2
Fore
SplineSet
205 306 m 1,0,-1
 489 306 l 1,1,-1
 503 223 l 1,2,-1
 190 223 l 1,3,-1
 205 306 l 1,0,-1
547 403 m 1,4,5
 587 405 587 405 628 407.5 c 128,-1,6
 669 410 669 410 710.5 413 c 128,-1,7
 752 416 752 416 793 418 c 1,8,-1
 793 312 l 1,9,10
 753 315 753 315 711.5 317 c 128,-1,11
 670 319 670 319 629 322 c 128,-1,12
 588 325 588 325 547 328 c 1,13,-1
 547 403 l 1,4,5
383 0 m 1,14,-1
 383 82 l 1,15,-1
 391 82 l 2,16,17
 411 82 411 82 424.5 85 c 128,-1,18
 438 88 438 88 445.5 95.5 c 128,-1,19
 453 103 453 103 453 116 c 2,20,-1
 453 652 l 1,21,-1
 430 634 l 1,22,-1
 164 105 l 2,23,24
 164 99 164 99 168 93.5 c 128,-1,25
 172 88 172 88 184 85 c 128,-1,26
 196 82 196 82 218 82 c 2,27,-1
 226 82 l 1,28,-1
 226 0 l 1,29,-1
 5 0 l 1,30,-1
 5 82 l 1,31,-1
 11 82 l 2,32,33
 27 82 27 82 39.5 88 c 128,-1,34
 52 94 52 94 63.5 108.5 c 128,-1,35
 75 123 75 123 87 146 c 2,36,-1
 315 597 l 1,37,38
 315 612 315 612 311.5 618.5 c 128,-1,39
 308 625 308 625 298.5 626.5 c 128,-1,40
 289 628 289 628 270 628 c 2,41,-1
 261 628 l 1,42,-1
 261 710 l 1,43,-1
 874 710 l 1,44,-1
 874 511 l 1,45,-1
 794 511 l 1,46,-1
 783 585 l 2,47,48
 781 603 781 603 770.5 612.5 c 128,-1,49
 760 622 760 622 739 625.5 c 128,-1,50
 718 629 718 629 686 629 c 2,51,-1
 566 629 l 1,52,-1
 566 81 l 1,53,-1
 698 81 l 2,54,55
 724 81 724 81 743 83 c 128,-1,56
 762 85 762 85 773.5 90 c 128,-1,57
 785 95 785 95 791 104 c 128,-1,58
 797 113 797 113 798 125 c 2,59,-1
 811 224 l 1,60,-1
 893 224 l 1,61,-1
 893 0 l 1,62,-1
 383 0 l 1,14,-1
EndSplineSet
EndChar

StartChar: Eth
Encoding: 208 208 223
Width: 695
GlyphClass: 1
Flags: W
LayerCount: 2
Fore
SplineSet
42 401 m 1,0,-1
 391 401 l 1,1,-1
 391 321 l 1,2,-1
 42 321 l 1,3,-1
 42 401 l 1,0,-1
50 628 m 1,4,-1
 50 710 l 1,5,-1
 320 710 l 2,6,7
 396 710 396 710 456 689 c 128,-1,8
 516 668 516 668 558.5 625 c 128,-1,9
 601 582 601 582 623 515.5 c 128,-1,10
 645 449 645 449 645 359 c 256,11,12
 645 269 645 269 623 201.5 c 128,-1,13
 601 134 601 134 558.5 89.5 c 128,-1,14
 516 45 516 45 456 22.5 c 128,-1,15
 396 0 396 0 320 0 c 2,16,-1
 50 0 l 1,17,-1
 50 82 l 1,18,-1
 59 82 l 2,19,20
 81 82 81 82 99 89 c 128,-1,21
 117 96 117 96 117 119 c 2,22,-1
 117 592 l 2,23,24
 117 614 117 614 99 621 c 128,-1,25
 81 628 81 628 59 628 c 2,26,-1
 50 628 l 1,4,-1
313 629 m 2,27,-1
 230 629 l 1,28,-1
 230 81 l 1,29,-1
 313 81 l 2,30,31
 368 81 368 81 407.5 97.5 c 128,-1,32
 447 114 447 114 473.5 149 c 128,-1,33
 500 184 500 184 512.5 236 c 128,-1,34
 525 288 525 288 525 359 c 256,35,36
 525 430 525 430 512.5 481 c 128,-1,37
 500 532 500 532 473.5 565 c 128,-1,38
 447 598 447 598 407.5 613.5 c 128,-1,39
 368 629 368 629 313 629 c 2,27,-1
EndSplineSet
EndChar

StartChar: Oslash
Encoding: 216 216 224
Width: 702
GlyphClass: 2
Flags: W
AnchorPoint: "Anchor-0" 350 731 basechar 0
LayerCount: 2
Fore
SplineSet
351 650 m 0,0,1
 306 650 306 650 272.5 632.5 c 128,-1,2
 239 615 239 615 216.5 579 c 128,-1,3
 194 543 194 543 183 487.5 c 128,-1,4
 172 432 172 432 172 355 c 0,5,6
 172 273 172 273 183 216.5 c 128,-1,7
 194 160 194 160 216 126 c 128,-1,8
 238 92 238 92 272 76 c 128,-1,9
 306 60 306 60 351 60 c 0,10,11
 397 60 397 60 430.5 77 c 128,-1,12
 464 94 464 94 485.5 130 c 128,-1,13
 507 166 507 166 518.5 222 c 128,-1,14
 530 278 530 278 530 355 c 0,15,16
 530 437 530 437 519 493.5 c 128,-1,17
 508 550 508 550 485.5 584 c 128,-1,18
 463 618 463 618 430 634 c 128,-1,19
 397 650 397 650 351 650 c 0,0,1
351 -23 m 0,20,21
 284 -23 284 -23 229 2 c 128,-1,22
 174 27 174 27 134 75.5 c 128,-1,23
 94 124 94 124 72 194.5 c 128,-1,24
 50 265 50 265 50 355 c 0,25,26
 50 449 50 449 72 519.5 c 128,-1,27
 94 590 94 590 133.5 637.5 c 128,-1,28
 173 685 173 685 228.5 709 c 128,-1,29
 284 733 284 733 351 733 c 256,30,31
 418 733 418 733 473 708.5 c 128,-1,32
 528 684 528 684 567.5 635.5 c 128,-1,33
 607 587 607 587 629 517 c 128,-1,34
 651 447 651 447 651 355 c 0,35,36
 651 262 651 262 630 191 c 128,-1,37
 609 120 609 120 569 72.5 c 128,-1,38
 529 25 529 25 474 1 c 128,-1,39
 419 -23 419 -23 351 -23 c 0,20,21
-3 -21 m 1,40,-1
 613 731 l 1,41,-1
 705 731 l 1,42,-1
 89 -21 l 1,43,-1
 -3 -21 l 1,40,-1
EndSplineSet
EndChar

StartChar: Thorn
Encoding: 222 222 226
Width: 638
GlyphClass: 1
Flags: W
LayerCount: 2
Fore
SplineSet
322 710 m 1,0,-1
 50 710 l 1,1,-1
 50 629 l 1,2,-1
 59 629 l 2,3,4
 88 629 88 629 102.5 621.5 c 128,-1,5
 117 614 117 614 117 592 c 2,6,-1
 117 118 l 2,7,8
 117 95 117 95 102.5 88 c 128,-1,9
 88 81 88 81 59 81 c 2,10,-1
 50 81 l 1,11,-1
 50 0 l 1,12,-1
 322 0 l 1,13,-1
 322 82 l 1,14,-1
 304 82 l 2,15,16
 290 82 290 82 276.5 82.5 c 128,-1,17
 263 83 263 83 253 84.5 c 128,-1,18
 243 86 243 86 236.5 87.5 c 128,-1,19
 230 89 230 89 230 92 c 2,20,-1
 230 618 l 2,21,22
 230 621 230 621 236.5 622.5 c 128,-1,23
 243 624 243 624 253 625.5 c 128,-1,24
 263 627 263 627 276.5 627.5 c 128,-1,25
 290 628 290 628 304 628 c 2,26,-1
 322 628 l 1,27,-1
 322 710 l 1,0,-1
588 367 m 256,28,29
 588 429 588 429 560 470.5 c 128,-1,30
 532 512 532 512 482 533 c 128,-1,31
 432 554 432 554 363 554 c 2,32,-1
 194 554 l 1,33,-1
 194 475 l 1,34,-1
 352 475 l 2,35,36
 393 475 393 475 419.5 463.5 c 128,-1,37
 446 452 446 452 458.5 428 c 128,-1,38
 471 404 471 404 471 365 c 0,39,40
 471 329 471 329 458.5 303.5 c 128,-1,41
 446 278 446 278 419 265 c 128,-1,42
 392 252 392 252 352 252 c 2,43,-1
 200 252 l 1,44,-1
 200 174 l 1,45,-1
 362 174 l 2,46,47
 428 174 428 174 479.5 196.5 c 128,-1,48
 531 219 531 219 559.5 262 c 128,-1,49
 588 305 588 305 588 367 c 256,28,29
EndSplineSet
EndChar

StartChar: Hbar
Encoding: 294 294 228
Width: 746
GlyphClass: 1
Flags: W
LayerCount: 2
Fore
SplineSet
191 373 m 1,0,-1
 547 373 l 1,1,-1
 547 300 l 1,2,-1
 191 300 l 1,3,-1
 191 373 l 1,0,-1
48 0 m 1,4,-1
 48 82 l 1,5,-1
 57 82 l 2,6,7
 79 82 79 82 96.5 89 c 128,-1,8
 114 96 114 96 114 119 c 2,9,-1
 114 591 l 2,10,11
 114 614 114 614 96.5 621 c 128,-1,12
 79 628 79 628 57 628 c 2,13,-1
 48 628 l 1,14,-1
 48 710 l 1,15,-1
 303 710 l 1,16,-1
 303 629 l 1,17,-1
 295 629 l 2,18,19
 284 629 284 629 272 628 c 128,-1,20
 260 627 260 627 250 625.5 c 128,-1,21
 240 624 240 624 234 622.5 c 128,-1,22
 228 621 228 621 228 618 c 2,23,-1
 228 91 l 2,24,25
 228 89 228 89 234 87.5 c 128,-1,26
 240 86 240 86 250 84.5 c 128,-1,27
 260 83 260 83 272.5 82.5 c 128,-1,28
 285 82 285 82 295 82 c 2,29,-1
 303 82 l 1,30,-1
 303 0 l 1,31,-1
 48 0 l 1,4,-1
444 0 m 1,32,-1
 444 81 l 1,33,-1
 451 81 l 2,34,35
 461 81 461 81 473 82 c 128,-1,36
 485 83 485 83 495 84.5 c 128,-1,37
 505 86 505 86 511.5 87.5 c 128,-1,38
 518 89 518 89 518 92 c 2,39,-1
 518 619 l 2,40,41
 518 621 518 621 511.5 622.5 c 128,-1,42
 505 624 505 624 495 625.5 c 128,-1,43
 485 627 485 627 473.5 627.5 c 128,-1,44
 462 628 462 628 451 628 c 2,45,-1
 444 628 l 1,46,-1
 444 710 l 1,47,-1
 698 710 l 1,48,-1
 698 628 l 1,49,-1
 689 628 l 2,50,51
 667 628 667 628 649 621 c 128,-1,52
 631 614 631 614 631 591 c 2,53,-1
 631 119 l 2,54,55
 631 96 631 96 649 89 c 128,-1,56
 667 82 667 82 689 82 c 2,57,-1
 698 82 l 1,58,-1
 698 0 l 1,59,-1
 444 0 l 1,32,-1
38 467 m 1,60,-1
 38 539 l 1,61,-1
 707 539 l 1,62,-1
 707 467 l 1,63,-1
 38 467 l 1,60,-1
EndSplineSet
EndChar

StartChar: Ldot
Encoding: 319 319 230
Width: 584
GlyphClass: 1
Flags: W
LayerCount: 2
Fore
SplineSet
317 710 m 1,0,-1
 50 710 l 1,1,-1
 50 628 l 1,2,-1
 59 628 l 2,3,4
 81 628 81 628 99 621 c 128,-1,5
 117 614 117 614 117 591 c 2,6,-1
 117 119 l 2,7,8
 117 96 117 96 99 89 c 128,-1,9
 81 82 81 82 59 82 c 2,10,-1
 50 82 l 1,11,-1
 50 0 l 1,12,-1
 537 0 l 1,13,-1
 537 224 l 1,14,-1
 455 224 l 1,15,-1
 442 126 l 2,16,17
 440 108 440 108 430 98 c 128,-1,18
 420 88 420 88 398.5 84.5 c 128,-1,19
 377 81 377 81 341 81 c 2,20,-1
 230 81 l 1,21,-1
 230 591 l 2,22,23
 230 614 230 614 250.5 621 c 128,-1,24
 271 628 271 628 303 628 c 2,25,-1
 317 628 l 1,26,-1
 317 710 l 1,0,-1
481 344 m 0,27,28
 441 344 441 344 415.5 368.5 c 128,-1,29
 390 393 390 393 390 434 c 256,30,31
 390 475 390 475 415.5 499 c 128,-1,32
 441 523 441 523 481 523 c 0,33,34
 522 523 522 523 547.5 499 c 128,-1,35
 573 475 573 475 573 434 c 256,36,37
 573 393 573 393 547.5 368.5 c 128,-1,38
 522 344 522 344 481 344 c 0,27,28
EndSplineSet
Ligature2: "Ligature Substitution lookup 5 subtable" L periodcentered
EndChar

StartChar: Lslash
Encoding: 321 321 231
Width: 584
GlyphClass: 1
Flags: W
LayerCount: 2
Fore
SplineSet
26 178 m 1,0,-1
 451 468 l 1,1,-1
 451 556 l 1,2,-1
 26 266 l 1,3,-1
 26 178 l 1,0,-1
319 710 m 1,4,-1
 51 710 l 1,5,-1
 51 628 l 1,6,-1
 61 628 l 2,7,8
 83 628 83 628 100.5 621 c 128,-1,9
 118 614 118 614 118 591 c 2,10,-1
 118 119 l 2,11,12
 118 96 118 96 100.5 89 c 128,-1,13
 83 82 83 82 61 82 c 2,14,-1
 51 82 l 1,15,-1
 51 0 l 1,16,-1
 539 0 l 1,17,-1
 539 237 l 1,18,-1
 457 237 l 1,19,-1
 445 126 l 2,20,21
 443 108 443 108 432.5 98 c 128,-1,22
 422 88 422 88 400.5 84.5 c 128,-1,23
 379 81 379 81 343 81 c 2,24,-1
 232 81 l 1,25,-1
 232 591 l 2,26,27
 232 614 232 614 252.5 621 c 128,-1,28
 273 628 273 628 304 628 c 2,29,-1
 319 628 l 1,30,-1
 319 710 l 1,4,-1
EndSplineSet
EndChar

StartChar: Eng
Encoding: 330 330 232
Width: 723
GlyphClass: 1
Flags: W
LayerCount: 2
Fore
SplineSet
618 -26 m 2,0,1
 618 -86 618 -86 601.5 -129 c 128,-1,2
 585 -172 585 -172 556 -198.5 c 128,-1,3
 527 -225 527 -225 488.5 -237.5 c 128,-1,4
 450 -250 450 -250 405 -250 c 0,5,6
 369 -250 369 -250 342.5 -244 c 128,-1,7
 316 -238 316 -238 300 -231 c 1,8,-1
 300 -143 l 1,9,10
 312 -148 312 -148 327 -153 c 128,-1,11
 342 -158 342 -158 360.5 -161.5 c 128,-1,12
 379 -165 379 -165 400 -165 c 0,13,14
 444 -165 444 -165 471.5 -151.5 c 128,-1,15
 499 -138 499 -138 512.5 -105.5 c 128,-1,16
 526 -73 526 -73 526 -15 c 2,17,-1
 526 57 l 1,18,-1
 545 -44 l 1,19,-1
 166 672 l 1,20,-1
 206 672 l 1,21,-1
 206 92 l 2,22,23
 206 89 206 89 213.5 86.5 c 128,-1,24
 221 84 221 84 233.5 83 c 128,-1,25
 246 82 246 82 259 82 c 2,26,-1
 271 82 l 1,27,-1
 271 0 l 1,28,-1
 49 0 l 1,29,-1
 49 82 l 1,30,-1
 59 82 l 2,31,32
 78 82 78 82 90.5 85 c 128,-1,33
 103 88 103 88 109.5 96.5 c 128,-1,34
 116 105 116 105 116 119 c 2,35,-1
 116 592 l 2,36,37
 116 607 116 607 109.5 614.5 c 128,-1,38
 103 622 103 622 90.5 625 c 128,-1,39
 78 628 78 628 59 628 c 2,40,-1
 49 628 l 1,41,-1
 49 710 l 1,42,-1
 266 710 l 1,43,-1
 587 83 l 1,44,-1
 527 83 l 1,45,-1
 527 618 l 2,46,47
 527 622 527 622 519 624 c 128,-1,48
 511 626 511 626 499 627 c 128,-1,49
 487 628 487 628 475 628 c 2,50,-1
 463 628 l 1,51,-1
 463 710 l 1,52,-1
 683 710 l 1,53,-1
 683 628 l 1,54,-1
 674 628 l 2,55,56
 655 628 655 628 642.5 625 c 128,-1,57
 630 622 630 622 624 614.5 c 128,-1,58
 618 607 618 607 618 592 c 2,59,-1
 618 -26 l 2,0,1
EndSplineSet
Substitution2: "'ss07' Style Set 7 lookup 67 subtable" Eng.afr
EndChar

StartChar: OE
Encoding: 338 338 233
Width: 947
GlyphClass: 1
Flags: W
LayerCount: 2
Fore
SplineSet
545 402 m 1,0,1
 585 405 585 405 626 407.5 c 128,-1,2
 667 410 667 410 708 412.5 c 128,-1,3
 749 415 749 415 790 417 c 1,4,-1
 790 313 l 1,5,6
 749 316 749 316 708 318 c 128,-1,7
 667 320 667 320 626 323 c 128,-1,8
 585 326 585 326 545 328 c 1,9,-1
 545 402 l 1,0,1
371 81 m 2,10,-1
 451 81 l 1,11,-1
 451 629 l 1,12,-1
 371 629 l 2,13,14
 320 629 320 629 282.5 614 c 128,-1,15
 245 599 245 599 220.5 566 c 128,-1,16
 196 533 196 533 183.5 480 c 128,-1,17
 171 427 171 427 171 351 c 0,18,19
 171 276 171 276 183.5 224 c 128,-1,20
 196 172 196 172 220.5 140.5 c 128,-1,21
 245 109 245 109 282.5 95 c 128,-1,22
 320 81 320 81 371 81 c 2,10,-1
366 0 m 2,23,24
 292 0 292 0 233.5 21 c 128,-1,25
 175 42 175 42 134 85.5 c 128,-1,26
 93 129 93 129 71.5 195.5 c 128,-1,27
 50 262 50 262 50 351 c 0,28,29
 50 441 50 441 71.5 508.5 c 128,-1,30
 93 576 93 576 134 620.5 c 128,-1,31
 175 665 175 665 233.5 687.5 c 128,-1,32
 292 710 292 710 366 710 c 2,33,-1
 872 710 l 1,34,-1
 872 511 l 1,35,-1
 790 511 l 1,36,-1
 780 585 l 2,37,38
 779 602 779 602 771.5 611.5 c 128,-1,39
 764 621 764 621 746.5 625 c 128,-1,40
 729 629 729 629 695 629 c 2,41,-1
 565 629 l 1,42,-1
 565 81 l 1,43,-1
 706 81 l 2,44,45
 733 81 733 81 749.5 83 c 128,-1,46
 766 85 766 85 775.5 90 c 128,-1,47
 785 95 785 95 789.5 103.5 c 128,-1,48
 794 112 794 112 795 125 c 2,49,-1
 807 224 l 1,50,-1
 890 224 l 1,51,-1
 890 0 l 1,52,-1
 366 0 l 2,23,24
EndSplineSet
EndChar

StartChar: Tbar
Encoding: 358 358 234
Width: 642
GlyphClass: 1
Flags: W
LayerCount: 2
Fore
SplineSet
116 344 m 1,0,-1
 523 344 l 1,1,-1
 523 263 l 1,2,-1
 116 263 l 1,3,-1
 116 344 l 1,0,-1
264 119 m 2,4,-1
 264 629 l 1,5,-1
 214 629 l 2,6,7
 179 629 179 629 163 623 c 128,-1,8
 147 617 147 617 141.5 604 c 128,-1,9
 136 591 136 591 133 569 c 2,10,-1
 123 471 l 1,11,-1
 44 471 l 1,12,-1
 44 710 l 1,13,-1
 599 710 l 1,14,-1
 599 471 l 1,15,-1
 519 471 l 1,16,-1
 509 569 l 2,17,18
 507 591 507 591 501 604 c 128,-1,19
 495 617 495 617 478.5 623 c 128,-1,20
 462 629 462 629 428 629 c 2,21,-1
 377 629 l 1,22,-1
 377 119 l 2,23,24
 377 96 377 96 398 89 c 128,-1,25
 419 82 419 82 444 82 c 2,26,-1
 461 82 l 1,27,-1
 461 0 l 1,28,-1
 181 0 l 1,29,-1
 181 82 l 1,30,-1
 198 82 l 2,31,32
 224 82 224 82 244 89 c 128,-1,33
 264 96 264 96 264 119 c 2,4,-1
EndSplineSet
EndChar

StartChar: Bhook
Encoding: 385 385 235
Width: 718
GlyphClass: 2
Flags: W
AnchorPoint: "Anchor-1" 388 0 basechar 0
AnchorPoint: "Anchor-0" 359 741 basechar 0
LayerCount: 2
Fore
SplineSet
276 410 m 1,0,-1
 415 410 l 2,1,2
 454 410 454 410 478 423 c 128,-1,3
 502 436 502 436 513 461.5 c 128,-1,4
 524 487 524 487 524 526 c 0,5,6
 524 560 524 560 513.5 582.5 c 128,-1,7
 503 605 503 605 479.5 617 c 128,-1,8
 456 629 456 629 416 629 c 2,9,-1
 315 629 l 1,10,-1
 315 81 l 1,11,-1
 423 81 l 2,12,13
 467 81 467 81 494.5 95 c 128,-1,14
 522 109 522 109 535 136.5 c 128,-1,15
 548 164 548 164 548 204 c 0,16,17
 548 245 548 245 534 274 c 128,-1,18
 520 303 520 303 490.5 318 c 128,-1,19
 461 333 461 333 413 333 c 2,20,-1
 276 333 l 1,21,-1
 276 410 l 1,0,-1
183 710 m 2,22,-1
 428 710 l 2,23,24
 479 710 479 710 519 699.5 c 128,-1,25
 559 689 559 689 585.5 667 c 128,-1,26
 612 645 612 645 626 612 c 128,-1,27
 640 579 640 579 640 534 c 256,28,29
 640 489 640 489 621 453.5 c 128,-1,30
 602 418 602 418 564.5 397.5 c 128,-1,31
 527 377 527 377 472 375 c 1,32,-1
 479 391 l 1,33,-1
 479 352 l 1,34,-1
 471 372 l 1,35,36
 535 368 535 368 578 346 c 128,-1,37
 621 324 621 324 643 286.5 c 128,-1,38
 665 249 665 249 665 197 c 0,39,40
 665 146 665 146 650 109 c 128,-1,41
 635 72 635 72 606 48 c 128,-1,42
 577 24 577 24 534 12 c 128,-1,43
 491 0 491 0 436 0 c 2,44,-1
 134 0 l 1,45,-1
 134 82 l 1,46,-1
 144 82 l 2,47,48
 166 82 166 82 183.5 89 c 128,-1,49
 201 96 201 96 201 118 c 2,50,-1
 201 629 l 1,51,-1
 185 629 l 2,52,53
 158 629 158 629 139.5 621.5 c 128,-1,54
 121 614 121 614 112 594 c 128,-1,55
 103 574 103 574 103 536 c 0,56,57
 103 513 103 513 105.5 495 c 128,-1,58
 108 477 108 477 112 464 c 1,59,-1
 11 464 l 1,60,61
 9 475 9 475 7 493.5 c 128,-1,62
 5 512 5 512 5 532 c 0,63,64
 5 595 5 595 25.5 633.5 c 128,-1,65
 46 672 46 672 85 691 c 128,-1,66
 124 710 124 710 183 710 c 2,22,-1
EndSplineSet
EndChar

StartChar: Dhook
Encoding: 394 394 236
Width: 780
GlyphClass: 2
Flags: W
AnchorPoint: "Anchor-1" 390 0 basechar 0
AnchorPoint: "Anchor-0" 366 741 basechar 0
LayerCount: 2
Fore
SplineSet
183 710 m 2,0,-1
 405 710 l 2,1,2
 480 710 480 710 540.5 689 c 128,-1,3
 601 668 601 668 643 625 c 128,-1,4
 685 582 685 582 707 515.5 c 128,-1,5
 729 449 729 449 729 359 c 256,6,7
 729 269 729 269 707 201.5 c 128,-1,8
 685 134 685 134 643 89.5 c 128,-1,9
 601 45 601 45 540.5 22.5 c 128,-1,10
 480 0 480 0 405 0 c 2,11,-1
 134 0 l 1,12,-1
 134 82 l 1,13,-1
 144 82 l 2,14,15
 166 82 166 82 183.5 89 c 128,-1,16
 201 96 201 96 201 118 c 2,17,-1
 201 629 l 1,18,-1
 185 629 l 2,19,20
 158 629 158 629 139.5 621.5 c 128,-1,21
 121 614 121 614 112 594 c 128,-1,22
 103 574 103 574 103 536 c 0,23,24
 103 513 103 513 105.5 495 c 128,-1,25
 108 477 108 477 112 464 c 1,26,-1
 11 464 l 1,27,28
 9 475 9 475 7 494 c 128,-1,29
 5 513 5 513 5 532 c 0,30,31
 5 595 5 595 25.5 634 c 128,-1,32
 46 673 46 673 85 691.5 c 128,-1,33
 124 710 124 710 183 710 c 2,0,-1
398 629 m 2,34,-1
 315 629 l 1,35,-1
 315 81 l 1,36,-1
 398 81 l 2,37,38
 452 81 452 81 492 97.5 c 128,-1,39
 532 114 532 114 558 149 c 128,-1,40
 584 184 584 184 597 236 c 128,-1,41
 610 288 610 288 610 359 c 256,42,43
 610 430 610 430 597 481 c 128,-1,44
 584 532 584 532 558 565 c 128,-1,45
 532 598 532 598 492 613.5 c 128,-1,46
 452 629 452 629 398 629 c 2,34,-1
EndSplineSet
EndChar

StartChar: Schwa
Encoding: 399 399 237
Width: 653
GlyphClass: 1
Flags: W
LayerCount: 2
Fore
SplineSet
313 747 m 0,0,1
 402 747 402 747 467 705 c 128,-1,2
 532 663 532 663 567 579 c 128,-1,3
 602 495 602 495 602 370 c 0,4,5
 602 278 602 278 582.5 205 c 128,-1,6
 563 132 563 132 526 81 c 128,-1,7
 489 30 489 30 437 3.5 c 128,-1,8
 385 -23 385 -23 320 -23 c 0,9,10
 224 -23 224 -23 166 24.5 c 128,-1,11
 108 72 108 72 81 166 c 128,-1,12
 54 260 54 260 52 401 c 1,13,-1
 535 401 l 1,14,-1
 535 317 l 1,15,-1
 148 317 l 1,16,-1
 170 343 l 1,17,18
 173 265 173 265 182.5 210.5 c 128,-1,19
 192 156 192 156 210 122.5 c 128,-1,20
 228 89 228 89 255.5 74.5 c 128,-1,21
 283 60 283 60 321 60 c 256,22,23
 359 60 359 60 389.5 76.5 c 128,-1,24
 420 93 420 93 440 130 c 128,-1,25
 460 167 460 167 470.5 226 c 128,-1,26
 481 285 481 285 481 370 c 0,27,28
 481 457 481 457 469.5 514 c 128,-1,29
 458 571 458 571 435.5 604 c 128,-1,30
 413 637 413 637 381 650.5 c 128,-1,31
 349 664 349 664 310 664 c 0,32,33
 265 664 265 664 233 653 c 128,-1,34
 201 642 201 642 175 615 c 128,-1,35
 149 588 149 588 121 540 c 1,36,-1
 52 586 l 1,37,38
 80 636 80 636 117 672 c 128,-1,39
 154 708 154 708 202.5 727.5 c 128,-1,40
 251 747 251 747 313 747 c 0,0,1
EndSplineSet
EndChar

StartChar: Khook
Encoding: 408 408 238
Width: 701
GlyphClass: 2
Flags: W
AnchorPoint: "Anchor-1" 357 0 basechar 0
AnchorPoint: "Anchor-0" 399 741 basechar 0
LayerCount: 2
Fore
SplineSet
50 0 m 1,0,-1
 50 82 l 1,1,-1
 59 82 l 2,2,3
 81 82 81 82 99 89 c 128,-1,4
 117 96 117 96 117 119 c 2,5,-1
 117 591 l 2,6,7
 117 614 117 614 99 621 c 128,-1,8
 81 628 81 628 59 628 c 2,9,-1
 50 628 l 1,10,-1
 50 710 l 1,11,-1
 303 710 l 1,12,-1
 303 628 l 1,13,-1
 295 628 l 2,14,15
 285 628 285 628 273 627.5 c 128,-1,16
 261 627 261 627 251.5 625.5 c 128,-1,17
 242 624 242 624 236 622.5 c 128,-1,18
 230 621 230 621 230 618 c 2,19,-1
 230 92 l 2,20,21
 230 89 230 89 236 87.5 c 128,-1,22
 242 86 242 86 251.5 84.5 c 128,-1,23
 261 83 261 83 272.5 82.5 c 128,-1,24
 284 82 284 82 293 82 c 2,25,-1
 300 82 l 1,26,-1
 300 0 l 1,27,-1
 50 0 l 1,0,-1
616 719 m 0,28,29
 649 719 649 719 669 705 c 128,-1,30
 689 691 689 691 698.5 665 c 128,-1,31
 708 639 708 639 708 602 c 0,32,33
 708 561 708 561 702.5 523 c 128,-1,34
 697 485 697 485 690 465 c 1,35,-1
 596 465 l 1,36,37
 602 477 602 477 607 498.5 c 128,-1,38
 612 520 612 520 615 545 c 128,-1,39
 618 570 618 570 618 591 c 0,40,41
 618 608 618 608 612.5 615 c 128,-1,42
 607 622 607 622 595 622 c 0,43,44
 587 622 587 622 577 615.5 c 128,-1,45
 567 609 567 609 548 586.5 c 128,-1,46
 529 564 529 564 490 517 c 2,47,-1
 356 354 l 1,48,-1
 360 404 l 1,49,-1
 598 106 l 2,50,51
 606 96 606 96 614.5 91 c 128,-1,52
 623 86 623 86 633 84 c 128,-1,53
 643 82 643 82 651 82 c 2,54,-1
 672 82 l 1,55,-1
 672 0 l 1,56,-1
 401 0 l 1,57,-1
 401 82 l 1,58,-1
 409 82 l 2,59,60
 425 82 425 82 439.5 83 c 128,-1,61
 454 84 454 84 463 86.5 c 128,-1,62
 472 89 472 89 472 92 c 2,63,-1
 269 348 l 1,64,-1
 269 371 l 1,65,-1
 439 578 l 2,66,67
 477 623 477 623 502 650.5 c 128,-1,68
 527 678 527 678 545.5 693 c 128,-1,69
 564 708 564 708 581 713.5 c 128,-1,70
 598 719 598 719 616 719 c 0,28,29
EndSplineSet
EndChar

StartChar: Yhook
Encoding: 435 435 239
Width: 668
GlyphClass: 2
Flags: W
AnchorPoint: "Anchor-1" 314 0 basechar 0
AnchorPoint: "Anchor-0" 341 741 basechar 0
LayerCount: 2
Fore
SplineSet
437 575 m 2,0,1
 466 632 466 632 488 663 c 128,-1,2
 510 694 510 694 533 706.5 c 128,-1,3
 556 719 556 719 587 719 c 0,4,5
 623 719 623 719 644.5 703 c 128,-1,6
 666 687 666 687 675.5 659 c 128,-1,7
 685 631 685 631 685 592 c 0,8,9
 685 556 685 556 680 519.5 c 128,-1,10
 675 483 675 483 667 465 c 1,11,-1
 573 465 l 1,12,13
 579 477 579 477 584 496 c 128,-1,14
 589 515 589 515 592 538.5 c 128,-1,15
 595 562 595 562 595 585 c 0,16,17
 595 604 595 604 590 613 c 128,-1,18
 585 622 585 622 574 622 c 0,19,20
 564 622 564 622 555.5 614 c 128,-1,21
 547 606 547 606 535.5 586 c 128,-1,22
 524 566 524 566 504 528 c 2,23,-1
 363 258 l 1,24,-1
 369 296 l 1,25,-1
 369 118 l 2,26,27
 369 96 369 96 388.5 89 c 128,-1,28
 408 82 408 82 434 82 c 2,29,-1
 451 82 l 1,30,-1
 451 0 l 1,31,-1
 173 0 l 1,32,-1
 173 82 l 1,33,-1
 191 82 l 2,34,35
 217 82 217 82 236.5 89 c 128,-1,36
 256 96 256 96 256 118 c 2,37,-1
 256 296 l 1,38,-1
 262 258 l 1,39,-1
 86 582 l 2,40,41
 77 600 77 600 69 610 c 128,-1,42
 61 620 61 620 52 624 c 128,-1,43
 43 628 43 628 32 628 c 2,44,-1
 23 628 l 1,45,-1
 23 710 l 1,46,-1
 258 710 l 1,47,-1
 258 628 l 1,48,-1
 244 628 l 2,49,50
 229 628 229 628 216.5 626.5 c 128,-1,51
 204 625 204 625 195.5 623 c 128,-1,52
 187 621 187 621 187 617 c 2,53,-1
 356 300 l 1,54,-1
 297 300 l 1,55,-1
 437 575 l 2,0,1
EndSplineSet
EndChar

StartChar: Germandbls
Encoding: 7838 7838 240
Width: 766
GlyphClass: 1
Flags: W
LayerCount: 2
Fore
SplineSet
523 64 m 0,0,1
 555 64 555 64 572 76 c 128,-1,2
 589 88 589 88 595.5 114.5 c 128,-1,3
 602 141 602 141 602 185 c 0,4,5
 602 228 602 228 593 255 c 128,-1,6
 584 282 584 282 564 299.5 c 128,-1,7
 544 317 544 317 509.5 331 c 128,-1,8
 475 345 475 345 425 363 c 1,9,-1
 425 442 l 1,10,-1
 555 675 l 1,11,-1
 581 626 l 1,12,-1
 356 626 l 2,13,14
 321 626 321 626 296 616 c 128,-1,15
 271 606 271 606 255.5 586 c 128,-1,16
 240 566 240 566 233 536.5 c 128,-1,17
 226 507 226 507 226 466 c 2,18,-1
 226 0 l 1,19,-1
 40 0 l 1,20,-1
 40 82 l 1,21,-1
 50 82 l 2,22,23
 79 82 79 82 95.5 89 c 128,-1,24
 112 96 112 96 112 118 c 2,25,-1
 112 464 l 2,26,27
 112 524 112 524 124 569.5 c 128,-1,28
 136 615 136 615 162.5 646.5 c 128,-1,29
 189 678 189 678 232 694 c 128,-1,30
 275 710 275 710 337 710 c 2,31,-1
 643 710 l 1,32,-1
 643 634 l 1,33,-1
 512 395 l 1,34,-1
 481 421 l 1,35,36
 536 403 536 403 579.5 385.5 c 128,-1,37
 623 368 623 368 653.5 343.5 c 128,-1,38
 684 319 684 319 700.5 281.5 c 128,-1,39
 717 244 717 244 717 186 c 0,40,41
 717 124 717 124 698.5 79 c 128,-1,42
 680 34 680 34 641 10 c 128,-1,43
 602 -14 602 -14 541 -14 c 0,44,45
 485 -14 485 -14 449.5 7.5 c 128,-1,46
 414 29 414 29 396.5 74 c 128,-1,47
 379 119 379 119 375 189 c 1,48,-1
 395 152 l 1,49,-1
 383 0 l 1,50,-1
 310 0 l 1,51,-1
 310 231 l 1,52,-1
 392 231 l 1,53,54
 402 193 402 193 411.5 162 c 128,-1,55
 421 131 421 131 434.5 109.5 c 128,-1,56
 448 88 448 88 469 76 c 128,-1,57
 490 64 490 64 523 64 c 0,0,1
EndSplineSet
EndChar

StartChar: Delta
Encoding: 916 916 241
Width: 663
GlyphClass: 1
Flags: W
LayerCount: 2
Fore
SplineSet
45 0 m 1,0,-1
 45 92 l 1,1,-1
 277 710 l 1,2,-1
 387 710 l 1,3,-1
 618 92 l 1,4,-1
 618 0 l 1,5,-1
 45 0 l 1,0,-1
520 60 m 1,6,-1
 287 694 l 1,7,-1
 356 694 l 1,8,-1
 119 56 l 1,9,-1
 72 97 l 1,10,-1
 566 97 l 1,11,-1
 520 60 l 1,6,-1
EndSplineSet
EndChar

StartChar: Omega
Encoding: 937 937 242
Width: 767
GlyphClass: 1
Flags: W
LayerCount: 2
Fore
SplineSet
383 735 m 256,0,1
 314 735 314 735 260 718.5 c 128,-1,2
 206 702 206 702 168.5 668.5 c 128,-1,3
 131 635 131 635 111.5 585.5 c 128,-1,4
 92 536 92 536 92 470 c 0,5,6
 92 432 92 432 98.5 396.5 c 128,-1,7
 105 361 105 361 119.5 324 c 128,-1,8
 134 287 134 287 158.5 246 c 128,-1,9
 183 205 183 205 218 158.5 c 128,-1,10
 253 112 253 112 300 57 c 1,11,-1
 308 78 l 1,12,-1
 218 78 l 2,13,14
 185 78 185 78 167 82 c 128,-1,15
 149 86 149 86 142 96 c 128,-1,16
 135 106 135 106 133 124 c 2,17,-1
 121 217 l 1,18,-1
 45 217 l 1,19,-1
 45 0 l 1,20,-1
 345 0 l 1,21,-1
 345 127 l 1,22,23
 308 174 308 174 282 215 c 128,-1,24
 256 256 256 256 239.5 295 c 128,-1,25
 223 334 223 334 215.5 374.5 c 128,-1,26
 208 415 208 415 208 460 c 0,27,28
 208 528 208 528 227 571 c 128,-1,29
 246 614 246 614 284.5 634 c 128,-1,30
 323 654 323 654 383 654 c 256,31,32
 443 654 443 654 481.5 634 c 128,-1,33
 520 614 520 614 539 571 c 128,-1,34
 558 528 558 528 558 460 c 0,35,36
 558 415 558 415 550.5 374.5 c 128,-1,37
 543 334 543 334 527 295 c 128,-1,38
 511 256 511 256 484.5 215 c 128,-1,39
 458 174 458 174 421 127 c 1,40,-1
 421 0 l 1,41,-1
 721 0 l 1,42,-1
 721 217 l 1,43,-1
 645 217 l 1,44,-1
 634 124 l 2,45,46
 632 106 632 106 624.5 96 c 128,-1,47
 617 86 617 86 598.5 82 c 128,-1,48
 580 78 580 78 545 78 c 2,49,-1
 458 78 l 1,50,-1
 467 57 l 1,51,52
 514 111 514 111 549 158 c 128,-1,53
 584 205 584 205 608 246 c 128,-1,54
 632 287 632 287 646.5 324 c 128,-1,55
 661 361 661 361 667.5 396.5 c 128,-1,56
 674 432 674 432 674 470 c 0,57,58
 674 536 674 536 654.5 585.5 c 128,-1,59
 635 635 635 635 597.5 668.5 c 128,-1,60
 560 702 560 702 506 718.5 c 128,-1,61
 452 735 452 735 383 735 c 256,0,1
EndSplineSet
EndChar

StartChar: Djecyr
Encoding: 1026 1026 244
Width: 790
GlyphClass: 2
Flags: W
AnchorPoint: "Anchor-0" 308 741 basechar 0
LayerCount: 2
Fore
SplineSet
743 200 m 0,0,1
 743 147 743 147 728.5 105 c 128,-1,2
 714 63 714 63 685.5 34 c 128,-1,3
 657 5 657 5 616 -9 c 128,-1,4
 575 -23 575 -23 523 -23 c 1,5,-1
 523 59 l 1,6,7
 556 59 556 59 579 73.5 c 128,-1,8
 602 88 602 88 613.5 119 c 128,-1,9
 625 150 625 150 625 199 c 0,10,11
 625 268 625 268 591.5 303.5 c 128,-1,12
 558 339 558 339 494 339 c 0,13,14
 452 339 452 339 413 329.5 c 128,-1,15
 374 320 374 320 337 300 c 1,16,-1
 337 384 l 1,17,18
 376 402 376 402 417 412 c 128,-1,19
 458 422 458 422 507 422 c 0,20,21
 587 422 587 422 639.5 394.5 c 128,-1,22
 692 367 692 367 717.5 318 c 128,-1,23
 743 269 743 269 743 200 c 0,0,1
170 0 m 1,24,-1
 170 82 l 1,25,-1
 187 82 l 2,26,27
 213 82 213 82 233 89 c 128,-1,28
 253 96 253 96 253 118 c 2,29,-1
 253 629 l 1,30,-1
 214 629 l 2,31,32
 179 629 179 629 163 623 c 128,-1,33
 147 617 147 617 141.5 604 c 128,-1,34
 136 591 136 591 133 569 c 2,35,-1
 123 471 l 1,36,-1
 44 471 l 1,37,-1
 44 710 l 1,38,-1
 603 710 l 1,39,-1
 603 490 l 1,40,-1
 524 490 l 1,41,-1
 513 570 l 2,42,43
 511 591 511 591 505.5 604 c 128,-1,44
 500 617 500 617 483.5 623 c 128,-1,45
 467 629 467 629 433 629 c 2,46,-1
 366 629 l 1,47,-1
 366 92 l 2,48,49
 366 89 366 89 377 86.5 c 128,-1,50
 388 84 388 84 403 83 c 128,-1,51
 418 82 418 82 431 82 c 2,52,-1
 445 82 l 1,53,-1
 445 0 l 1,54,-1
 170 0 l 1,24,-1
EndSplineSet
EndChar

StartChar: Eukrcyr
Encoding: 1028 1028 245
Width: 664
GlyphClass: 2
Flags: W
AnchorPoint: "Anchor-1" 346 0 basechar 0
AnchorPoint: "Anchor-0" 346 741 basechar 0
LayerCount: 2
Fore
SplineSet
145 402 m 1,0,1
 170 403 170 403 194 404 c 128,-1,2
 218 405 218 405 242.5 406.5 c 128,-1,3
 267 408 267 408 291.5 409.5 c 128,-1,4
 316 411 316 411 340.5 412.5 c 128,-1,5
 365 414 365 414 389 415 c 128,-1,6
 413 416 413 416 438 417 c 1,7,-1
 438 313 l 1,8,9
 413 314 413 314 389 315.5 c 128,-1,10
 365 317 365 317 340.5 318 c 128,-1,11
 316 319 316 319 291.5 320.5 c 128,-1,12
 267 322 267 322 242.5 323 c 128,-1,13
 218 324 218 324 194 325.5 c 128,-1,14
 170 327 170 327 145 328 c 1,15,-1
 145 402 l 1,0,1
342 652 m 0,16,17
 298 652 298 652 265.5 634.5 c 128,-1,18
 233 617 233 617 212 581.5 c 128,-1,19
 191 546 191 546 181 490 c 128,-1,20
 171 434 171 434 171 357 c 0,21,22
 171 279 171 279 181.5 222.5 c 128,-1,23
 192 166 192 166 213.5 129.5 c 128,-1,24
 235 93 235 93 269.5 75.5 c 128,-1,25
 304 58 304 58 352 58 c 0,26,27
 409 58 409 58 445 83 c 128,-1,28
 481 108 481 108 503 147.5 c 128,-1,29
 525 187 525 187 538 231 c 1,30,-1
 612 201 l 1,31,32
 592 133 592 133 556.5 82.5 c 128,-1,33
 521 32 521 32 468.5 4.5 c 128,-1,34
 416 -23 416 -23 344 -23 c 0,35,36
 277 -23 277 -23 223.5 1 c 128,-1,37
 170 25 170 25 131 72.5 c 128,-1,38
 92 120 92 120 71 191 c 128,-1,39
 50 262 50 262 50 356 c 256,40,41
 50 450 50 450 71 520.5 c 128,-1,42
 92 591 92 591 130.5 638.5 c 128,-1,43
 169 686 169 686 221.5 709.5 c 128,-1,44
 274 733 274 733 336 733 c 0,45,46
 393 733 393 733 435.5 707.5 c 128,-1,47
 478 682 478 682 503.5 631 c 128,-1,48
 529 580 529 580 535 504 c 1,49,-1
 510 536 l 1,50,-1
 525 719 l 1,51,-1
 603 719 l 1,52,-1
 603 471 l 1,53,-1
 515 471 l 1,54,55
 499 528 499 528 476 568 c 128,-1,56
 453 608 453 608 420 630 c 128,-1,57
 387 652 387 652 342 652 c 0,16,17
EndSplineSet
Substitution2: "'ss01' Style Set 1 lookup 61 subtable" Ieukran.alt1
EndChar

StartChar: Yukrcyr
Encoding: 1031 1031 248
Width: 367
GlyphClass: 2
Flags: W
AnchorPoint: "Anchor-1" 184 0 basechar 0
AnchorPoint: "Anchor-0" 184 921 basechar 0
LayerCount: 2
Fore
SplineSet
162 861 m 0,0,1
 162 822 162 822 142.5 806 c 128,-1,2
 123 790 123 790 91 790 c 256,3,4
 59 790 59 790 40 806 c 128,-1,5
 21 822 21 822 21 861 c 0,6,7
 21 898 21 898 40 914.5 c 128,-1,8
 59 931 59 931 91 931 c 256,9,10
 123 931 123 931 142.5 914.5 c 128,-1,11
 162 898 162 898 162 861 c 0,0,1
345 861 m 0,12,13
 345 822 345 822 326 806 c 128,-1,14
 307 790 307 790 275 790 c 256,15,16
 243 790 243 790 224 806 c 128,-1,17
 205 822 205 822 205 861 c 0,18,19
 205 898 205 898 224 914.5 c 128,-1,20
 243 931 243 931 275 931 c 256,21,22
 307 931 307 931 326 914.5 c 128,-1,23
 345 898 345 898 345 861 c 0,12,13
127 119 m 2,24,-1
 127 591 l 2,25,26
 127 614 127 614 108.5 621 c 128,-1,27
 90 628 90 628 64 628 c 2,28,-1
 47 628 l 1,29,-1
 47 710 l 1,30,-1
 319 710 l 1,31,-1
 319 628 l 1,32,-1
 302 628 l 2,33,34
 277 628 277 628 258.5 621 c 128,-1,35
 240 614 240 614 240 591 c 2,36,-1
 240 119 l 2,37,38
 240 96 240 96 258.5 89 c 128,-1,39
 277 82 277 82 302 82 c 2,40,-1
 319 82 l 1,41,-1
 319 0 l 1,42,-1
 47 0 l 1,43,-1
 47 82 l 1,44,-1
 64 82 l 2,45,46
 90 82 90 82 108.5 89 c 128,-1,47
 127 96 127 96 127 119 c 2,24,-1
EndSplineSet
EndChar

StartChar: Ljecyr
Encoding: 1033 1033 250
Width: 946
GlyphClass: 2
Flags: W
AnchorPoint: "Anchor-0" 378 741 basechar 0
LayerCount: 2
Fore
SplineSet
222 710 m 1,0,-1
 515 710 l 1,1,-1
 515 626 l 1,2,-1
 222 626 l 1,3,-1
 222 710 l 1,0,-1
153 281 m 2,4,-1
 173 592 l 2,5,6
 175 614 175 614 159 621 c 128,-1,7
 143 628 143 628 121 628 c 2,8,-1
 111 628 l 1,9,-1
 111 710 l 1,10,-1
 271 710 l 1,11,-1
 244 276 l 2,12,13
 238 172 238 172 217 107.5 c 128,-1,14
 196 43 196 43 160 14 c 128,-1,15
 124 -15 124 -15 71 -15 c 0,16,17
 54 -15 54 -15 38.5 -10.5 c 128,-1,18
 23 -6 23 -6 11 0 c 1,19,-1
 11 105 l 1,20,21
 22 99 22 99 35.5 94.5 c 128,-1,22
 49 90 49 90 64 90 c 0,23,24
 89 90 89 90 107 109 c 128,-1,25
 125 128 125 128 137.5 170 c 128,-1,26
 150 212 150 212 153 281 c 2,4,-1
676 0 m 2,27,-1
 385 0 l 1,28,-1
 385 82 l 1,29,-1
 392 82 l 2,30,31
 407 82 407 82 421 83 c 128,-1,32
 435 84 435 84 444.5 86.5 c 128,-1,33
 454 89 454 89 454 92 c 2,34,-1
 454 710 l 1,35,-1
 641 710 l 1,36,-1
 641 629 l 1,37,-1
 624 629 l 2,38,39
 603 629 603 629 585.5 622 c 128,-1,40
 568 615 568 615 568 593 c 2,41,-1
 568 81 l 1,42,-1
 667 81 l 2,43,44
 707 81 707 81 733 96.5 c 128,-1,45
 759 112 759 112 772.5 142 c 128,-1,46
 786 172 786 172 786 216 c 0,47,48
 786 264 786 264 772.5 295 c 128,-1,49
 759 326 759 326 733 341.5 c 128,-1,50
 707 357 707 357 667 357 c 2,51,-1
 513 357 l 1,52,-1
 513 438 l 1,53,-1
 676 438 l 2,54,55
 744 438 744 438 795 414 c 128,-1,56
 846 390 846 390 875 341 c 128,-1,57
 904 292 904 292 904 216 c 0,58,59
 904 148 904 148 874 99.5 c 128,-1,60
 844 51 844 51 792.5 25.5 c 128,-1,61
 741 0 741 0 676 0 c 2,27,-1
EndSplineSet
EndChar

StartChar: Njecyr
Encoding: 1034 1034 251
Width: 981
GlyphClass: 2
Flags: W
AnchorPoint: "Anchor-0" 363 741 basechar 0
LayerCount: 2
Fore
SplineSet
195 430 m 1,0,-1
 524 430 l 1,1,-1
 524 349 l 1,2,-1
 195 349 l 1,3,-1
 195 430 l 1,0,-1
50 0 m 1,4,-1
 50 82 l 1,5,-1
 59 82 l 2,6,7
 81 82 81 82 99 89 c 128,-1,8
 117 96 117 96 117 119 c 2,9,-1
 117 591 l 2,10,11
 117 614 117 614 99 621 c 128,-1,12
 81 628 81 628 59 628 c 2,13,-1
 50 628 l 1,14,-1
 50 710 l 1,15,-1
 305 710 l 1,16,-1
 305 628 l 1,17,-1
 297 628 l 2,18,19
 283 628 283 628 267 627 c 128,-1,20
 251 626 251 626 240.5 624 c 128,-1,21
 230 622 230 622 230 618 c 2,22,-1
 230 92 l 2,23,24
 230 89 230 89 240.5 86.5 c 128,-1,25
 251 84 251 84 267 83 c 128,-1,26
 283 82 283 82 297 82 c 2,27,-1
 305 82 l 1,28,-1
 305 0 l 1,29,-1
 50 0 l 1,4,-1
420 0 m 1,30,-1
 420 82 l 1,31,-1
 427 82 l 2,32,33
 441 82 441 82 455 83 c 128,-1,34
 469 84 469 84 479.5 86.5 c 128,-1,35
 490 89 490 89 490 92 c 2,36,-1
 490 619 l 2,37,38
 490 622 490 622 479.5 624 c 128,-1,39
 469 626 469 626 455 627 c 128,-1,40
 441 628 441 628 427 628 c 2,41,-1
 420 628 l 1,42,-1
 420 710 l 1,43,-1
 678 710 l 1,44,-1
 678 628 l 1,45,-1
 665 628 l 2,46,47
 650 628 650 628 635.5 625 c 128,-1,48
 621 622 621 622 612 614 c 128,-1,49
 603 606 603 606 603 591 c 2,50,-1
 603 81 l 1,51,-1
 702 81 l 2,52,53
 739 81 739 81 765.5 95.5 c 128,-1,54
 792 110 792 110 806.5 139.5 c 128,-1,55
 821 169 821 169 821 212 c 0,56,57
 821 257 821 257 806.5 287.5 c 128,-1,58
 792 318 792 318 765.5 333.5 c 128,-1,59
 739 349 739 349 702 349 c 2,60,-1
 556 349 l 1,61,-1
 556 430 l 1,62,-1
 711 430 l 2,63,64
 780 430 780 430 831 405 c 128,-1,65
 882 380 882 380 910.5 331.5 c 128,-1,66
 939 283 939 283 939 212 c 0,67,68
 939 145 939 145 909.5 97.5 c 128,-1,69
 880 50 880 50 828.5 25 c 128,-1,70
 777 0 777 0 711 0 c 2,71,-1
 420 0 l 1,30,-1
EndSplineSet
EndChar

StartChar: Tshecyr
Encoding: 1035 1035 252
Width: 828
GlyphClass: 2
Flags: W
AnchorPoint: "Anchor-0" 298 741 basechar 0
LayerCount: 2
Fore
SplineSet
508 422 m 0,0,1
 589 422 589 422 638 401 c 128,-1,2
 687 380 687 380 709 336.5 c 128,-1,3
 731 293 731 293 731 224 c 2,4,-1
 731 118 l 2,5,6
 731 96 731 96 747.5 89 c 128,-1,7
 764 82 764 82 788 82 c 2,8,-1
 798 82 l 1,9,-1
 798 0 l 1,10,-1
 618 0 l 1,11,-1
 618 219 l 2,12,13
 618 264 618 264 602 290 c 128,-1,14
 586 316 586 316 558.5 326.5 c 128,-1,15
 531 337 531 337 496 337 c 0,16,17
 457 337 457 337 415 329 c 128,-1,18
 373 321 373 321 337 300 c 1,19,-1
 337 384 l 1,20,21
 376 403 376 403 419.5 412.5 c 128,-1,22
 463 422 463 422 508 422 c 0,0,1
170 0 m 1,23,-1
 170 82 l 1,24,-1
 187 82 l 2,25,26
 214 82 214 82 233.5 89 c 128,-1,27
 253 96 253 96 253 119 c 2,28,-1
 253 629 l 1,29,-1
 214 629 l 2,30,31
 179 629 179 629 163 623 c 128,-1,32
 147 617 147 617 141.5 604 c 128,-1,33
 136 591 136 591 133 569 c 2,34,-1
 123 471 l 1,35,-1
 44 471 l 1,36,-1
 44 710 l 1,37,-1
 603 710 l 1,38,-1
 603 490 l 1,39,-1
 524 490 l 1,40,-1
 513 570 l 2,41,42
 511 591 511 591 505.5 604.5 c 128,-1,43
 500 618 500 618 483.5 623.5 c 128,-1,44
 467 629 467 629 433 629 c 2,45,-1
 366 629 l 1,46,-1
 366 92 l 2,47,48
 366 89 366 89 377 86.5 c 128,-1,49
 388 84 388 84 404 83 c 128,-1,50
 420 82 420 82 434 82 c 2,51,-1
 450 82 l 1,52,-1
 450 0 l 1,53,-1
 170 0 l 1,23,-1
EndSplineSet
EndChar

StartChar: Dzhecyr
Encoding: 1039 1039 253
Width: 742
GlyphClass: 2
Flags: W
AnchorPoint: "Anchor-0" 371 741 basechar 0
LayerCount: 2
Fore
SplineSet
50 710 m 1,0,-1
 304 710 l 1,1,-1
 304 628 l 1,2,-1
 297 628 l 2,3,4
 283 628 283 628 267.5 627 c 128,-1,5
 252 626 252 626 241 624 c 128,-1,6
 230 622 230 622 230 618 c 2,7,-1
 230 0 l 1,8,-1
 50 0 l 1,9,-1
 50 82 l 1,10,-1
 59 82 l 2,11,12
 81 82 81 82 99 89 c 128,-1,13
 117 96 117 96 117 119 c 2,14,-1
 117 591 l 2,15,16
 117 614 117 614 99 621 c 128,-1,17
 81 628 81 628 59 628 c 2,18,-1
 50 628 l 1,19,-1
 50 710 l 1,0,-1
437 710 m 1,20,-1
 692 710 l 1,21,-1
 692 628 l 1,22,-1
 683 628 l 2,23,24
 661 628 661 628 643 621 c 128,-1,25
 625 614 625 614 625 591 c 2,26,-1
 625 119 l 2,27,28
 625 96 625 96 643 89 c 128,-1,29
 661 82 661 82 683 82 c 2,30,-1
 692 82 l 1,31,-1
 692 0 l 1,32,-1
 512 0 l 1,33,-1
 512 618 l 2,34,35
 512 622 512 622 501.5 624 c 128,-1,36
 491 626 491 626 475.5 627 c 128,-1,37
 460 628 460 628 445 628 c 2,38,-1
 437 628 l 1,39,-1
 437 710 l 1,20,-1
169 0 m 1,40,-1
 169 84 l 1,41,-1
 573 84 l 1,42,-1
 573 0 l 1,43,-1
 532 0 l 2,44,45
 492 0 492 0 468.5 -5.5 c 128,-1,46
 445 -11 445 -11 434.5 -22.5 c 128,-1,47
 424 -34 424 -34 422 -55 c 2,48,-1
 411 -181 l 1,49,-1
 332 -181 l 1,50,-1
 320 -55 l 2,51,52
 318 -35 318 -35 307.5 -23 c 128,-1,53
 297 -11 297 -11 273.5 -5.5 c 128,-1,54
 250 0 250 0 210 0 c 2,55,-1
 169 0 l 1,40,-1
EndSplineSet
EndChar

StartChar: Becyr
Encoding: 1041 1041 257
Width: 618
GlyphClass: 2
Flags: W
AnchorPoint: "Anchor-0" 315 741 basechar 0
LayerCount: 2
Fore
SplineSet
50 710 m 1,0,-1
 527 710 l 1,1,-1
 527 510 l 1,2,-1
 447 510 l 1,3,-1
 437 585 l 2,4,5
 435 602 435 602 423.5 612 c 128,-1,6
 412 622 412 622 390.5 625.5 c 128,-1,7
 369 629 369 629 335 629 c 2,8,-1
 231 629 l 1,9,-1
 231 81 l 1,10,-1
 333 81 l 2,11,12
 373 81 373 81 399.5 95 c 128,-1,13
 426 109 426 109 439.5 138 c 128,-1,14
 453 167 453 167 453 211 c 256,15,16
 453 255 453 255 439.5 284.5 c 128,-1,17
 426 314 426 314 399.5 329.5 c 128,-1,18
 373 345 373 345 333 345 c 2,19,-1
 163 345 l 1,20,-1
 163 426 l 1,21,-1
 343 426 l 2,22,23
 411 426 411 426 462 402.5 c 128,-1,24
 513 379 513 379 542 331.5 c 128,-1,25
 571 284 571 284 571 210 c 0,26,27
 571 144 571 144 541 96.5 c 128,-1,28
 511 49 511 49 459.5 24.5 c 128,-1,29
 408 0 408 0 342 0 c 2,30,-1
 50 0 l 1,31,-1
 50 82 l 1,32,-1
 59 82 l 2,33,34
 82 82 82 82 99.5 89 c 128,-1,35
 117 96 117 96 117 118 c 2,36,-1
 117 594 l 2,37,38
 117 614 117 614 99 621 c 128,-1,39
 81 628 81 628 59 628 c 2,40,-1
 50 628 l 1,41,-1
 50 710 l 1,0,-1
EndSplineSet
EndChar

StartChar: Gecyr
Encoding: 1043 1043 259
Width: 579
GlyphClass: 2
Flags: W
AnchorPoint: "Anchor-0" 295 741 basechar 0
LayerCount: 2
Fore
SplineSet
230 629 m 1,0,-1
 230 118 l 2,1,2
 230 104 230 104 240 96 c 128,-1,3
 250 88 250 88 267 85 c 128,-1,4
 284 82 284 82 305 82 c 2,5,-1
 323 82 l 1,6,-1
 323 0 l 1,7,-1
 50 0 l 1,8,-1
 50 82 l 1,9,-1
 59 82 l 2,10,11
 81 82 81 82 99 89 c 128,-1,12
 117 96 117 96 117 119 c 2,13,-1
 117 591 l 2,14,15
 117 614 117 614 99 621 c 128,-1,16
 81 628 81 628 59 628 c 2,17,-1
 50 628 l 1,18,-1
 50 710 l 1,19,-1
 535 710 l 1,20,-1
 535 471 l 1,21,-1
 456 471 l 1,22,-1
 446 569 l 2,23,24
 443 594 443 594 432.5 607 c 128,-1,25
 422 620 422 620 401 624.5 c 128,-1,26
 380 629 380 629 346 629 c 2,27,-1
 230 629 l 1,0,-1
EndSplineSet
EndChar

StartChar: Decyr
Encoding: 1044 1044 261
Width: 726
GlyphClass: 2
Flags: W
AnchorPoint: "Anchor-0" 392 741 basechar 0
LayerCount: 2
Fore
SplineSet
218 710 m 1,0,-1
 541 710 l 1,1,-1
 541 626 l 1,2,-1
 218 626 l 1,3,-1
 218 710 l 1,0,-1
608 0 m 1,4,-1
 494 0 l 1,5,-1
 494 710 l 1,6,-1
 675 710 l 1,7,-1
 675 628 l 1,8,-1
 665 628 l 2,9,10
 641 628 641 628 624.5 621 c 128,-1,11
 608 614 608 614 608 592 c 2,12,-1
 608 0 l 1,4,-1
596 -55 m 2,13,14
 594 -35 594 -35 583.5 -23 c 128,-1,15
 573 -11 573 -11 549.5 -5.5 c 128,-1,16
 526 0 526 0 486 0 c 2,17,-1
 222 0 l 2,18,19
 182 0 182 0 159 -5.5 c 128,-1,20
 136 -11 136 -11 125 -23 c 128,-1,21
 114 -35 114 -35 112 -55 c 2,22,-1
 101 -181 l 1,23,-1
 22 -181 l 1,24,-1
 22 84 l 1,25,-1
 686 84 l 1,26,-1
 686 -181 l 1,27,-1
 607 -181 l 1,28,-1
 596 -55 l 2,13,14
161 33 m 1,29,-1
 59 33 l 1,30,31
 79 60 79 60 94.5 90 c 128,-1,32
 110 120 110 120 121 157.5 c 128,-1,33
 132 195 132 195 140 246.5 c 128,-1,34
 148 298 148 298 153 368 c 2,35,-1
 171 592 l 2,36,37
 173 614 173 614 157.5 621 c 128,-1,38
 142 628 142 628 119 628 c 2,39,-1
 110 628 l 1,40,-1
 110 710 l 1,41,-1
 271 710 l 1,42,-1
 244 364 l 2,43,44
 237 273 237 273 226.5 211.5 c 128,-1,45
 216 150 216 150 200 108 c 128,-1,46
 184 66 184 66 161 33 c 1,29,-1
EndSplineSet
Substitution2: "'locl' Localized Forms in Cyrillic lookup 12 subtable" De.bgr
EndChar

StartChar: Zhecyr
Encoding: 1046 1046 266
Width: 1001
GlyphClass: 2
Flags: W
AnchorPoint: "Anchor-1" 491 0 basechar 0
AnchorPoint: "Anchor-0" 491 741 basechar 0
LayerCount: 2
Fore
SplineSet
712 0 m 1,0,-1
 712 82 l 1,1,-1
 720 82 l 2,2,3
 736 82 736 82 750 83 c 128,-1,4
 764 84 764 84 773.5 86.5 c 128,-1,5
 783 89 783 89 783 92 c 2,6,-1
 590 348 l 1,7,-1
 590 371 l 1,8,-1
 796 617 l 2,9,10
 796 621 796 621 787 623 c 128,-1,11
 778 625 778 625 763.5 626.5 c 128,-1,12
 749 628 749 628 735 628 c 2,13,-1
 727 628 l 1,14,-1
 727 710 l 1,15,-1
 956 710 l 1,16,-1
 956 628 l 1,17,-1
 936 628 l 2,18,19
 926 628 926 628 917.5 626 c 128,-1,20
 909 624 909 624 900.5 617.5 c 128,-1,21
 892 611 892 611 883 599 c 2,22,-1
 676 354 l 1,23,-1
 681 404 l 1,24,-1
 906 106 l 2,25,26
 914 95 914 95 923 90 c 128,-1,27
 932 85 932 85 941.5 83.5 c 128,-1,28
 951 82 951 82 961 82 c 2,29,-1
 980 82 l 1,30,-1
 980 0 l 1,31,-1
 712 0 l 1,0,-1
285 0 m 1,32,-1
 21 0 l 1,33,-1
 21 82 l 1,34,-1
 40 82 l 2,35,36
 50 82 50 82 59.5 83.5 c 128,-1,37
 69 85 69 85 78 90 c 128,-1,38
 87 95 87 95 95 106 c 2,39,-1
 320 404 l 1,40,-1
 319 354 l 1,41,-1
 112 599 l 2,42,43
 102 611 102 611 94 617.5 c 128,-1,44
 86 624 86 624 78 626 c 128,-1,45
 70 628 70 628 59 628 c 2,46,-1
 39 628 l 1,47,-1
 39 710 l 1,48,-1
 270 710 l 1,49,-1
 270 628 l 1,50,-1
 262 628 l 2,51,52
 247 628 247 628 233 626.5 c 128,-1,53
 219 625 219 625 210 623 c 128,-1,54
 201 621 201 621 201 617 c 2,55,-1
 407 371 l 1,56,-1
 407 348 l 1,57,-1
 214 92 l 2,58,59
 214 89 214 89 223.5 86.5 c 128,-1,60
 233 84 233 84 247.5 83 c 128,-1,61
 262 82 262 82 277 82 c 2,62,-1
 285 82 l 1,63,-1
 285 0 l 1,32,-1
375 0 m 1,64,-1
 375 82 l 1,65,-1
 383 82 l 2,66,67
 392 82 392 82 402 82.5 c 128,-1,68
 412 83 412 83 421.5 84.5 c 128,-1,69
 431 86 431 86 436.5 87.5 c 128,-1,70
 442 89 442 89 442 92 c 2,71,-1
 442 619 l 2,72,73
 442 621 442 621 436 622.5 c 128,-1,74
 430 624 430 624 420.5 625.5 c 128,-1,75
 411 627 411 627 400.5 627.5 c 128,-1,76
 390 628 390 628 380 628 c 2,77,-1
 372 628 l 1,78,-1
 372 710 l 1,79,-1
 625 710 l 1,80,-1
 625 628 l 1,81,-1
 617 628 l 2,82,83
 607 628 607 628 596 627.5 c 128,-1,84
 585 627 585 627 576 625.5 c 128,-1,85
 567 624 567 624 561 622.5 c 128,-1,86
 555 621 555 621 555 618 c 2,87,-1
 555 91 l 2,88,89
 555 89 555 89 560.5 87.5 c 128,-1,90
 566 86 566 86 575 84.5 c 128,-1,91
 584 83 584 83 594.5 82.5 c 128,-1,92
 605 82 605 82 615 82 c 2,93,-1
 622 82 l 1,94,-1
 622 0 l 1,95,-1
 375 0 l 1,64,-1
EndSplineSet
EndChar

StartChar: Zecyr
Encoding: 1047 1047 269
Width: 634
GlyphClass: 2
Flags: W
AnchorPoint: "Anchor-1" 343 0 basechar 0
AnchorPoint: "Anchor-0" 343 741 basechar 0
LayerCount: 2
Fore
SplineSet
361 -23 m 0,0,1
 293 -23 293 -23 245.5 1 c 128,-1,2
 198 25 198 25 171.5 74.5 c 128,-1,3
 145 124 145 124 139 201 c 1,4,-1
 164 169 l 1,5,-1
 149 -9 l 1,6,-1
 71 -9 l 1,7,-1
 71 233 l 1,8,-1
 160 233 l 1,9,10
 175 179 175 179 199.5 140 c 128,-1,11
 224 101 224 101 260.5 80.5 c 128,-1,12
 297 60 297 60 347 60 c 0,13,14
 387 60 387 60 412.5 74.5 c 128,-1,15
 438 89 438 89 450.5 118.5 c 128,-1,16
 463 148 463 148 463 191 c 0,17,18
 463 229 463 229 451 258.5 c 128,-1,19
 439 288 439 288 409.5 304 c 128,-1,20
 380 320 380 320 329 317 c 0,21,22
 315 316 315 316 301 315.5 c 128,-1,23
 287 315 287 315 273 314.5 c 128,-1,24
 259 314 259 314 246 313 c 1,25,-1
 246 417 l 1,26,27
 261 416 261 416 274.5 415.5 c 128,-1,28
 288 415 288 415 301.5 414.5 c 128,-1,29
 315 414 315 414 329 413 c 0,30,31
 371 413 371 413 395.5 427.5 c 128,-1,32
 420 442 420 442 430.5 471 c 128,-1,33
 441 500 441 500 441 539 c 0,34,35
 441 573 441 573 432 598 c 128,-1,36
 423 623 423 623 402 636.5 c 128,-1,37
 381 650 381 650 345 650 c 0,38,39
 301 650 301 650 266.5 631.5 c 128,-1,40
 232 613 232 613 208.5 574.5 c 128,-1,41
 185 536 185 536 169 477 c 1,42,-1
 81 477 l 1,43,-1
 81 719 l 1,44,-1
 159 719 l 1,45,-1
 174 541 l 1,46,-1
 149 510 l 1,47,48
 153 566 153 566 169.5 608 c 128,-1,49
 186 650 186 650 213 678 c 128,-1,50
 240 706 240 706 276.5 719.5 c 128,-1,51
 313 733 313 733 357 733 c 0,52,53
 423 733 423 733 468 710 c 128,-1,54
 513 687 513 687 536 646 c 128,-1,55
 559 605 559 605 559 550 c 0,56,57
 559 496 559 496 535 458 c 128,-1,58
 511 420 511 420 472.5 398 c 128,-1,59
 434 376 434 376 387 372 c 1,60,-1
 394 393 l 1,61,-1
 394 342 l 1,62,-1
 387 368 l 1,63,64
 447 365 447 365 490.5 343 c 128,-1,65
 534 321 534 321 557.5 282.5 c 128,-1,66
 581 244 581 244 581 188 c 0,67,68
 581 138 581 138 566 99.5 c 128,-1,69
 551 61 551 61 522.5 33.5 c 128,-1,70
 494 6 494 6 453 -8.5 c 128,-1,71
 412 -23 412 -23 361 -23 c 0,0,1
EndSplineSet
EndChar

StartChar: Icyr
Encoding: 1048 1048 270
Width: 761
GlyphClass: 2
Flags: W
AnchorPoint: "Anchor-0" 380 741 basechar 0
LayerCount: 2
Fore
SplineSet
177 202 m 1,0,-1
 531 576 l 1,1,-1
 584 517 l 1,2,-1
 230 143 l 1,3,-1
 177 202 l 1,0,-1
50 0 m 1,4,-1
 50 82 l 1,5,-1
 59 82 l 2,6,7
 81 82 81 82 99 89 c 128,-1,8
 117 96 117 96 117 119 c 2,9,-1
 117 591 l 2,10,11
 117 614 117 614 99 621 c 128,-1,12
 81 628 81 628 59 628 c 2,13,-1
 50 628 l 1,14,-1
 50 710 l 1,15,-1
 305 710 l 1,16,-1
 305 628 l 1,17,-1
 297 628 l 2,18,19
 283 628 283 628 267 627 c 128,-1,20
 251 626 251 626 240.5 624 c 128,-1,21
 230 622 230 622 230 618 c 2,22,-1
 230 92 l 2,23,24
 230 89 230 89 240.5 86.5 c 128,-1,25
 251 84 251 84 267 83 c 128,-1,26
 283 82 283 82 297 82 c 2,27,-1
 305 82 l 1,28,-1
 305 0 l 1,29,-1
 50 0 l 1,4,-1
456 0 m 1,30,-1
 456 82 l 1,31,-1
 463 82 l 2,32,33
 478 82 478 82 493.5 83 c 128,-1,34
 509 84 509 84 520 86.5 c 128,-1,35
 531 89 531 89 531 92 c 2,36,-1
 531 619 l 2,37,38
 531 622 531 622 520 624 c 128,-1,39
 509 626 509 626 493.5 627 c 128,-1,40
 478 628 478 628 463 628 c 2,41,-1
 456 628 l 1,42,-1
 456 710 l 1,43,-1
 711 710 l 1,44,-1
 711 628 l 1,45,-1
 701 628 l 2,46,47
 680 628 680 628 662 621 c 128,-1,48
 644 614 644 614 644 591 c 2,49,-1
 644 119 l 2,50,51
 644 96 644 96 662 89 c 128,-1,52
 680 82 680 82 701 82 c 2,53,-1
 711 82 l 1,54,-1
 711 0 l 1,55,-1
 456 0 l 1,30,-1
EndSplineSet
EndChar

StartChar: Elcyr
Encoding: 1051 1051 276
Width: 714
GlyphClass: 2
Flags: W
AnchorPoint: "Anchor-0" 393 741 basechar 0
LayerCount: 2
Fore
SplineSet
223 710 m 1,0,-1
 545 710 l 1,1,-1
 545 626 l 1,2,-1
 223 626 l 1,3,-1
 223 710 l 1,0,-1
410 0 m 1,4,-1
 410 82 l 1,5,-1
 418 82 l 2,6,7
 433 82 433 82 448 83 c 128,-1,8
 463 84 463 84 473.5 86.5 c 128,-1,9
 484 89 484 89 484 92 c 2,10,-1
 484 710 l 1,11,-1
 665 710 l 1,12,-1
 665 628 l 1,13,-1
 655 628 l 2,14,15
 634 628 634 628 616 621 c 128,-1,16
 598 614 598 614 598 591 c 2,17,-1
 598 119 l 2,18,19
 598 96 598 96 616 89 c 128,-1,20
 634 82 634 82 655 82 c 2,21,-1
 665 82 l 1,22,-1
 665 0 l 1,23,-1
 410 0 l 1,4,-1
153 281 m 2,24,-1
 173 592 l 2,25,26
 175 614 175 614 159.5 621 c 128,-1,27
 144 628 144 628 122 628 c 2,28,-1
 111 628 l 1,29,-1
 111 710 l 1,30,-1
 271 710 l 1,31,-1
 244 276 l 2,32,33
 238 172 238 172 216.5 107.5 c 128,-1,34
 195 43 195 43 159.5 14 c 128,-1,35
 124 -15 124 -15 71 -15 c 0,36,37
 54 -15 54 -15 38.5 -10.5 c 128,-1,38
 23 -6 23 -6 11 0 c 1,39,-1
 11 105 l 1,40,41
 22 99 22 99 35.5 94.5 c 128,-1,42
 49 90 49 90 65 90 c 0,43,44
 89 90 89 90 107 109 c 128,-1,45
 125 128 125 128 137.5 170 c 128,-1,46
 150 212 150 212 153 281 c 2,24,-1
EndSplineSet
Substitution2: "'locl' Localized Forms in Cyrillic lookup 12 subtable" El.bgr
EndChar

StartChar: Pecyr
Encoding: 1055 1055 281
Width: 742
GlyphClass: 2
Flags: W
AnchorPoint: "Anchor-0" 371 741 basechar 0
LayerCount: 2
Fore
SplineSet
188 710 m 1,0,-1
 553 710 l 1,1,-1
 553 626 l 1,2,-1
 188 626 l 1,3,-1
 188 710 l 1,0,-1
50 0 m 1,4,-1
 50 82 l 1,5,-1
 59 82 l 2,6,7
 81 82 81 82 99 89 c 128,-1,8
 117 96 117 96 117 119 c 2,9,-1
 117 591 l 2,10,11
 117 614 117 614 99 621 c 128,-1,12
 81 628 81 628 59 628 c 2,13,-1
 50 628 l 1,14,-1
 50 710 l 1,15,-1
 230 710 l 1,16,-1
 230 92 l 2,17,18
 230 89 230 89 240.5 86.5 c 128,-1,19
 251 84 251 84 267 83 c 128,-1,20
 283 82 283 82 297 82 c 2,21,-1
 305 82 l 1,22,-1
 305 0 l 1,23,-1
 50 0 l 1,4,-1
437 0 m 1,24,-1
 437 82 l 1,25,-1
 444 82 l 2,26,27
 459 82 459 82 474.5 83 c 128,-1,28
 490 84 490 84 501 86.5 c 128,-1,29
 512 89 512 89 512 92 c 2,30,-1
 512 710 l 1,31,-1
 692 710 l 1,32,-1
 692 628 l 1,33,-1
 683 628 l 2,34,35
 661 628 661 628 643 621 c 128,-1,36
 625 614 625 614 625 591 c 2,37,-1
 625 119 l 2,38,39
 625 96 625 96 643 89 c 128,-1,40
 661 82 661 82 683 82 c 2,41,-1
 692 82 l 1,42,-1
 692 0 l 1,43,-1
 437 0 l 1,24,-1
EndSplineSet
EndChar

StartChar: Ucyr
Encoding: 1059 1059 285
Width: 617
GlyphClass: 2
Flags: W
AnchorPoint: "Anchor-1" 204 0 basechar 0
AnchorPoint: "Anchor-0" 315 741 basechar 0
LayerCount: 2
Fore
SplineSet
375 199 m 2,0,1
 352 143 352 143 330.5 101.5 c 128,-1,2
 309 60 309 60 286.5 33 c 128,-1,3
 264 6 264 6 238 -7.5 c 128,-1,4
 212 -21 212 -21 180 -21 c 0,5,6
 159 -21 159 -21 143 -16.5 c 128,-1,7
 127 -12 127 -12 116 -4 c 1,8,-1
 116 98 l 1,9,10
 126 92 126 92 144 86 c 128,-1,11
 162 80 162 80 178 80 c 0,12,13
 204 80 204 80 224.5 93.5 c 128,-1,14
 245 107 245 107 264 138.5 c 128,-1,15
 283 170 283 170 304 224 c 2,16,-1
 454 606 l 2,17,18
 454 612 454 612 447.5 617 c 128,-1,19
 441 622 441 622 430 625 c 128,-1,20
 419 628 419 628 408 628 c 2,21,-1
 400 628 l 1,22,-1
 400 710 l 1,23,-1
 596 710 l 1,24,-1
 596 628 l 1,25,-1
 586 628 l 2,26,27
 574 628 574 628 564.5 623 c 128,-1,28
 555 618 555 618 546.5 606.5 c 128,-1,29
 538 595 538 595 530 575 c 2,30,-1
 375 199 l 2,0,1
350 228 m 1,31,-1
 280 132 l 1,32,-1
 85 582 l 2,33,34
 78 601 78 601 70.5 610.5 c 128,-1,35
 63 620 63 620 54 624 c 128,-1,36
 45 628 45 628 32 628 c 2,37,-1
 22 628 l 1,38,-1
 22 710 l 1,39,-1
 257 710 l 1,40,-1
 257 628 l 1,41,-1
 245 628 l 2,42,43
 230 628 230 628 216 626.5 c 128,-1,44
 202 625 202 625 193 623 c 128,-1,45
 184 621 184 621 184 617 c 2,46,-1
 350 228 l 1,31,-1
EndSplineSet
EndChar

StartChar: Efcyr
Encoding: 1060 1060 290
Width: 830
GlyphClass: 2
Flags: W
AnchorPoint: "Anchor-1" 415 0 basechar 0
AnchorPoint: "Anchor-0" 415 741 basechar 0
LayerCount: 2
Fore
SplineSet
363 93 m 2,0,-1
 363 617 l 2,1,2
 363 639 363 639 344 646 c 128,-1,3
 325 653 325 653 295 653 c 2,4,-1
 279 653 l 1,5,-1
 279 735 l 1,6,-1
 550 735 l 1,7,-1
 550 653 l 1,8,-1
 534 653 l 2,9,10
 505 653 505 653 486 646 c 128,-1,11
 467 639 467 639 467 617 c 2,12,-1
 467 93 l 2,13,14
 467 71 467 71 486 64 c 128,-1,15
 505 57 505 57 533 57 c 2,16,-1
 550 57 l 1,17,-1
 550 -25 l 1,18,-1
 279 -25 l 1,19,-1
 279 57 l 1,20,-1
 295 57 l 2,21,22
 325 57 325 57 344 64 c 128,-1,23
 363 71 363 71 363 93 c 2,0,-1
365 612 m 1,24,-1
 365 529 l 1,25,26
 294 529 294 529 249 510 c 128,-1,27
 204 491 204 491 184 453 c 128,-1,28
 164 415 164 415 164 360 c 256,29,30
 164 305 164 305 184 266.5 c 128,-1,31
 204 228 204 228 249 209 c 128,-1,32
 294 190 294 190 365 190 c 1,33,-1
 365 107 l 1,34,35
 258 107 258 107 186.5 138 c 128,-1,36
 115 169 115 169 79.5 226 c 128,-1,37
 44 283 44 283 44 360 c 256,38,39
 44 437 44 437 80 493.5 c 128,-1,40
 116 550 116 550 187.5 581 c 128,-1,41
 259 612 259 612 365 612 c 1,24,-1
464 107 m 1,42,-1
 464 190 l 1,43,44
 537 190 537 190 581 209 c 128,-1,45
 625 228 625 228 645 266.5 c 128,-1,46
 665 305 665 305 665 360 c 256,47,48
 665 415 665 415 645 453 c 128,-1,49
 625 491 625 491 581 510 c 128,-1,50
 537 529 537 529 464 529 c 1,51,-1
 464 612 l 1,52,53
 572 612 572 612 643.5 581 c 128,-1,54
 715 550 715 550 750.5 493.5 c 128,-1,55
 786 437 786 437 786 359 c 0,56,57
 786 283 786 283 750 226 c 128,-1,58
 714 169 714 169 642 138 c 128,-1,59
 570 107 570 107 464 107 c 1,42,-1
EndSplineSet
EndChar

StartChar: Tsecyr
Encoding: 1062 1062 292
Width: 744
GlyphClass: 2
Flags: W
AnchorPoint: "Anchor-0" 372 741 basechar 0
LayerCount: 2
Fore
SplineSet
186 0 m 1,0,-1
 186 84 l 1,1,-1
 547 84 l 1,2,-1
 547 0 l 1,3,-1
 186 0 l 1,0,-1
50 710 m 1,4,-1
 304 710 l 1,5,-1
 304 628 l 1,6,-1
 297 628 l 2,7,8
 283 628 283 628 267.5 627 c 128,-1,9
 252 626 252 626 241 624 c 128,-1,10
 230 622 230 622 230 618 c 2,11,-1
 230 0 l 1,12,-1
 50 0 l 1,13,-1
 50 82 l 1,14,-1
 59 82 l 2,15,16
 81 82 81 82 99 89 c 128,-1,17
 117 96 117 96 117 119 c 2,18,-1
 117 591 l 2,19,20
 117 614 117 614 99 621 c 128,-1,21
 81 628 81 628 59 628 c 2,22,-1
 50 628 l 1,23,-1
 50 710 l 1,4,-1
437 710 m 1,24,-1
 692 710 l 1,25,-1
 692 628 l 1,26,-1
 683 628 l 2,27,28
 661 628 661 628 643 621 c 128,-1,29
 625 614 625 614 625 592 c 2,30,-1
 625 0 l 1,31,-1
 512 0 l 1,32,-1
 512 618 l 2,33,34
 512 622 512 622 501.5 624 c 128,-1,35
 491 626 491 626 475.5 627 c 128,-1,36
 460 628 460 628 445 628 c 2,37,-1
 437 628 l 1,38,-1
 437 710 l 1,24,-1
481 0 m 1,39,-1
 481 84 l 1,40,-1
 704 84 l 1,41,-1
 704 -181 l 1,42,-1
 625 -181 l 1,43,-1
 613 -55 l 2,44,45
 612 -35 612 -35 601 -23 c 128,-1,46
 590 -11 590 -11 566.5 -5.5 c 128,-1,47
 543 0 543 0 503 0 c 2,48,-1
 481 0 l 1,39,-1
EndSplineSet
EndChar

StartChar: Checyr
Encoding: 1063 1063 293
Width: 716
GlyphClass: 2
Flags: W
AnchorPoint: "Anchor-0" 351 741 basechar 0
LayerCount: 2
Fore
SplineSet
411 0 m 1,0,-1
 411 82 l 1,1,-1
 419 82 l 2,2,3
 434 82 434 82 449 83 c 128,-1,4
 464 84 464 84 475 86.5 c 128,-1,5
 486 89 486 89 486 92 c 2,6,-1
 486 619 l 2,7,8
 486 622 486 622 475 624 c 128,-1,9
 464 626 464 626 449 627 c 128,-1,10
 434 628 434 628 419 628 c 2,11,-1
 411 628 l 1,12,-1
 411 710 l 1,13,-1
 666 710 l 1,14,-1
 666 628 l 1,15,-1
 657 628 l 2,16,17
 635 628 635 628 617 621 c 128,-1,18
 599 614 599 614 599 591 c 2,19,-1
 599 119 l 2,20,21
 599 96 599 96 617 89 c 128,-1,22
 635 82 635 82 657 82 c 2,23,-1
 666 82 l 1,24,-1
 666 0 l 1,25,-1
 411 0 l 1,0,-1
328 268 m 0,26,27
 248 268 248 268 197 287 c 128,-1,28
 146 306 146 306 121.5 349.5 c 128,-1,29
 97 393 97 393 97 466 c 2,30,-1
 97 592 l 2,31,32
 97 614 97 614 79.5 621 c 128,-1,33
 62 628 62 628 40 628 c 2,34,-1
 31 628 l 1,35,-1
 31 710 l 1,36,-1
 286 710 l 1,37,-1
 286 628 l 1,38,-1
 278 628 l 2,39,40
 264 628 264 628 248 627 c 128,-1,41
 232 626 232 626 221.5 624 c 128,-1,42
 211 622 211 622 211 618 c 2,43,-1
 211 472 l 2,44,45
 211 430 211 430 224 403.5 c 128,-1,46
 237 377 237 377 265.5 364.5 c 128,-1,47
 294 352 294 352 342 352 c 0,48,49
 384 352 384 352 429 360.5 c 128,-1,50
 474 369 474 369 511 389 c 1,51,-1
 511 305 l 1,52,53
 470 287 470 287 423 277.5 c 128,-1,54
 376 268 376 268 328 268 c 0,26,27
EndSplineSet
EndChar

StartChar: Shacyr
Encoding: 1064 1064 294
Width: 1030
GlyphClass: 2
Flags: W
AnchorPoint: "Anchor-0" 505 741 basechar 0
LayerCount: 2
Fore
SplineSet
841 0 m 1,0,-1
 192 0 l 1,1,-1
 192 84 l 1,2,-1
 841 84 l 1,3,-1
 841 0 l 1,0,-1
980 710 m 1,4,-1
 980 628 l 1,5,-1
 971 628 l 2,6,7
 949 628 949 628 931 621 c 128,-1,8
 913 614 913 614 913 591 c 2,9,-1
 913 119 l 2,10,11
 913 96 913 96 931 89 c 128,-1,12
 949 82 949 82 971 82 c 2,13,-1
 980 82 l 1,14,-1
 980 0 l 1,15,-1
 800 0 l 1,16,-1
 800 618 l 2,17,18
 800 622 800 622 789.5 624 c 128,-1,19
 779 626 779 626 763 627 c 128,-1,20
 747 628 747 628 732 628 c 2,21,-1
 725 628 l 1,22,-1
 725 710 l 1,23,-1
 980 710 l 1,4,-1
305 710 m 1,24,-1
 305 628 l 1,25,-1
 297 628 l 2,26,27
 284 628 284 628 268 627 c 128,-1,28
 252 626 252 626 241 624 c 128,-1,29
 230 622 230 622 230 618 c 2,30,-1
 230 0 l 1,31,-1
 50 0 l 1,32,-1
 50 82 l 1,33,-1
 59 82 l 2,34,35
 81 82 81 82 99 89 c 128,-1,36
 117 96 117 96 117 119 c 2,37,-1
 117 591 l 2,38,39
 117 614 117 614 99 621 c 128,-1,40
 81 628 81 628 59 628 c 2,41,-1
 50 628 l 1,42,-1
 50 710 l 1,43,-1
 305 710 l 1,24,-1
388 710 m 1,44,-1
 641 710 l 1,45,-1
 641 628 l 1,46,-1
 634 628 l 2,47,48
 620 628 620 628 606.5 627 c 128,-1,49
 593 626 593 626 582.5 624 c 128,-1,50
 572 622 572 622 572 618 c 2,51,-1
 572 0 l 1,52,-1
 458 0 l 1,53,-1
 458 618 l 2,54,55
 458 622 458 622 447.5 624 c 128,-1,56
 437 626 437 626 423.5 627 c 128,-1,57
 410 628 410 628 396 628 c 2,58,-1
 388 628 l 1,59,-1
 388 710 l 1,44,-1
EndSplineSet
EndChar

StartChar: Shchacyr
Encoding: 1065 1065 295
Width: 1031
GlyphClass: 2
Flags: W
AnchorPoint: "Anchor-0" 505 741 basechar 0
LayerCount: 2
Fore
SplineSet
839 0 m 1,0,-1
 192 0 l 1,1,-1
 192 84 l 1,2,-1
 839 84 l 1,3,-1
 839 0 l 1,0,-1
304 710 m 1,4,-1
 304 628 l 1,5,-1
 297 628 l 2,6,7
 283 628 283 628 267.5 627 c 128,-1,8
 252 626 252 626 241 624 c 128,-1,9
 230 622 230 622 230 618 c 2,10,-1
 230 0 l 1,11,-1
 50 0 l 1,12,-1
 50 82 l 1,13,-1
 59 82 l 2,14,15
 81 82 81 82 99 89 c 128,-1,16
 117 96 117 96 117 119 c 2,17,-1
 117 591 l 2,18,19
 117 614 117 614 99 621 c 128,-1,20
 81 628 81 628 59 628 c 2,21,-1
 50 628 l 1,22,-1
 50 710 l 1,23,-1
 304 710 l 1,4,-1
725 710 m 1,24,-1
 980 710 l 1,25,-1
 980 628 l 1,26,-1
 971 628 l 2,27,28
 949 628 949 628 931 621 c 128,-1,29
 913 614 913 614 913 592 c 2,30,-1
 913 0 l 1,31,-1
 800 0 l 1,32,-1
 800 618 l 2,33,34
 800 622 800 622 789.5 624 c 128,-1,35
 779 626 779 626 763 627 c 128,-1,36
 747 628 747 628 732 628 c 2,37,-1
 725 628 l 1,38,-1
 725 710 l 1,24,-1
791 0 m 2,39,-1
 769 0 l 1,40,-1
 769 84 l 1,41,-1
 992 84 l 1,42,-1
 992 -181 l 1,43,-1
 912 -181 l 1,44,-1
 901 -55 l 2,45,46
 899 -35 899 -35 888.5 -23 c 128,-1,47
 878 -11 878 -11 854.5 -5.5 c 128,-1,48
 831 0 831 0 791 0 c 2,39,-1
388 710 m 1,49,-1
 641 710 l 1,50,-1
 641 628 l 1,51,-1
 634 628 l 2,52,53
 620 628 620 628 606.5 627 c 128,-1,54
 593 626 593 626 582.5 624 c 128,-1,55
 572 622 572 622 572 618 c 2,56,-1
 572 0 l 1,57,-1
 458 0 l 1,58,-1
 458 618 l 2,59,60
 458 622 458 622 447.5 624 c 128,-1,61
 437 626 437 626 423.5 627 c 128,-1,62
 410 628 410 628 396 628 c 2,63,-1
 388 628 l 1,64,-1
 388 710 l 1,49,-1
EndSplineSet
EndChar

StartChar: Hardcyr
Encoding: 1066 1066 296
Width: 733
GlyphClass: 2
Flags: W
AnchorPoint: "Anchor-0" 257 741 basechar 0
LayerCount: 2
Fore
SplineSet
463 0 m 2,0,-1
 171 0 l 1,1,-1
 171 82 l 1,2,-1
 180 82 l 2,3,4
 204 82 204 82 222.5 89 c 128,-1,5
 241 96 241 96 241 118 c 2,6,-1
 241 629 l 1,7,-1
 214 629 l 2,8,9
 179 629 179 629 163 623 c 128,-1,10
 147 617 147 617 141.5 604 c 128,-1,11
 136 591 136 591 133 569 c 2,12,-1
 123 471 l 1,13,-1
 44 471 l 1,14,-1
 44 710 l 1,15,-1
 443 710 l 1,16,-1
 443 628 l 1,17,-1
 425 628 l 2,18,19
 407 628 407 628 390.5 627 c 128,-1,20
 374 626 374 626 364.5 624 c 128,-1,21
 355 622 355 622 355 618 c 2,22,-1
 355 81 l 1,23,-1
 454 81 l 2,24,25
 495 81 495 81 521 96.5 c 128,-1,26
 547 112 547 112 560.5 142 c 128,-1,27
 574 172 574 172 574 217 c 0,28,29
 574 264 574 264 560.5 295 c 128,-1,30
 547 326 547 326 520.5 341.5 c 128,-1,31
 494 357 494 357 454 357 c 2,32,-1
 284 357 l 1,33,-1
 284 438 l 1,34,-1
 464 438 l 2,35,36
 532 438 532 438 583 414 c 128,-1,37
 634 390 634 390 663 341 c 128,-1,38
 692 292 692 292 692 216 c 0,39,40
 692 148 692 148 662 99.5 c 128,-1,41
 632 51 632 51 580.5 25.5 c 128,-1,42
 529 0 529 0 463 0 c 2,0,-1
EndSplineSet
EndChar

StartChar: Ylongcyr
Encoding: 1067 1067 297
Width: 904
GlyphClass: 2
Flags: W
AnchorPoint: "Anchor-1" 443 0 basechar 0
AnchorPoint: "Anchor-0" 443 741 basechar 0
LayerCount: 2
Fore
SplineSet
674 92 m 2,0,-1
 674 619 l 2,1,2
 674 622 674 622 663 624 c 128,-1,3
 652 626 652 626 637 627 c 128,-1,4
 622 628 622 628 607 628 c 2,5,-1
 600 628 l 1,6,-1
 600 710 l 1,7,-1
 854 710 l 1,8,-1
 854 628 l 1,9,-1
 845 628 l 2,10,11
 818 628 818 628 802.5 621 c 128,-1,12
 787 614 787 614 787 591 c 2,13,-1
 787 119 l 2,14,15
 787 96 787 96 802.5 89 c 128,-1,16
 818 82 818 82 845 82 c 2,17,-1
 854 82 l 1,18,-1
 854 0 l 1,19,-1
 600 0 l 1,20,-1
 600 82 l 1,21,-1
 607 82 l 2,22,23
 622 82 622 82 637.5 83 c 128,-1,24
 653 84 653 84 663.5 86.5 c 128,-1,25
 674 89 674 89 674 92 c 2,0,-1
342 0 m 2,26,-1
 50 0 l 1,27,-1
 50 82 l 1,28,-1
 59 82 l 2,29,30
 81 82 81 82 99 89 c 128,-1,31
 117 96 117 96 117 119 c 2,32,-1
 117 592 l 2,33,34
 117 614 117 614 99 621 c 128,-1,35
 81 628 81 628 59 628 c 2,36,-1
 50 628 l 1,37,-1
 50 710 l 1,38,-1
 322 710 l 1,39,-1
 322 628 l 1,40,-1
 304 628 l 2,41,42
 285 628 285 628 268.5 627 c 128,-1,43
 252 626 252 626 241.5 624 c 128,-1,44
 231 622 231 622 231 618 c 2,45,-1
 231 81 l 1,46,-1
 334 81 l 2,47,48
 374 81 374 81 400 96.5 c 128,-1,49
 426 112 426 112 439.5 142 c 128,-1,50
 453 172 453 172 453 217 c 0,51,52
 453 264 453 264 439.5 295 c 128,-1,53
 426 326 426 326 399.5 341.5 c 128,-1,54
 373 357 373 357 333 357 c 2,55,-1
 184 357 l 1,56,-1
 184 438 l 1,57,-1
 343 438 l 2,58,59
 411 438 411 438 462 414 c 128,-1,60
 513 390 513 390 542 341 c 128,-1,61
 571 292 571 292 571 217 c 0,62,63
 571 148 571 148 541 99.5 c 128,-1,64
 511 51 511 51 459.5 25.5 c 128,-1,65
 408 0 408 0 342 0 c 2,26,-1
EndSplineSet
EndChar

StartChar: Softcyr
Encoding: 1068 1068 298
Width: 612
GlyphClass: 2
Flags: W
AnchorPoint: "Anchor-0" 177 741 basechar 0
LayerCount: 2
Fore
SplineSet
342 0 m 2,0,-1
 50 0 l 1,1,-1
 50 82 l 1,2,-1
 59 82 l 2,3,4
 81 82 81 82 99 89 c 128,-1,5
 117 96 117 96 117 119 c 2,6,-1
 117 592 l 2,7,8
 117 614 117 614 99 621 c 128,-1,9
 81 628 81 628 59 628 c 2,10,-1
 50 628 l 1,11,-1
 50 710 l 1,12,-1
 322 710 l 1,13,-1
 322 628 l 1,14,-1
 304 628 l 2,15,16
 285 628 285 628 268.5 627 c 128,-1,17
 252 626 252 626 241.5 624 c 128,-1,18
 231 622 231 622 231 618 c 2,19,-1
 231 81 l 1,20,-1
 334 81 l 2,21,22
 374 81 374 81 400 96.5 c 128,-1,23
 426 112 426 112 439.5 142 c 128,-1,24
 453 172 453 172 453 217 c 0,25,26
 453 264 453 264 439.5 295 c 128,-1,27
 426 326 426 326 399.5 341.5 c 128,-1,28
 373 357 373 357 333 357 c 2,29,-1
 184 357 l 1,30,-1
 184 438 l 1,31,-1
 343 438 l 2,32,33
 411 438 411 438 462 414 c 128,-1,34
 513 390 513 390 542 341 c 128,-1,35
 571 292 571 292 571 217 c 0,36,37
 571 148 571 148 541 99.5 c 128,-1,38
 511 51 511 51 459.5 25.5 c 128,-1,39
 408 0 408 0 342 0 c 2,0,-1
EndSplineSet
EndChar

StartChar: Ereversedcyr
Encoding: 1069 1069 299
Width: 674
GlyphClass: 2
Flags: W
AnchorPoint: "Anchor-1" 324 0 basechar 0
AnchorPoint: "Anchor-0" 324 741 basechar 0
LayerCount: 2
Fore
SplineSet
530 400 m 1,0,-1
 530 326 l 1,1,2
 493 324 493 324 456.5 322.5 c 128,-1,3
 420 321 420 321 383.5 319 c 128,-1,4
 347 317 347 317 310.5 315.5 c 128,-1,5
 274 314 274 314 237 312 c 1,6,-1
 237 416 l 1,7,8
 271 414 271 414 307.5 412 c 128,-1,9
 344 410 344 410 381.5 408.5 c 128,-1,10
 419 407 419 407 456 404.5 c 128,-1,11
 493 402 493 402 530 400 c 1,0,-1
344 -23 m 0,12,13
 285 -23 285 -23 241 2 c 128,-1,14
 197 27 197 27 171 77.5 c 128,-1,15
 145 128 145 128 139 204 c 1,16,-1
 164 173 l 1,17,-1
 149 -9 l 1,18,-1
 71 -9 l 1,19,-1
 71 237 l 1,20,-1
 160 237 l 1,21,22
 175 182 175 182 198.5 141.5 c 128,-1,23
 222 101 222 101 255.5 79.5 c 128,-1,24
 289 58 289 58 334 58 c 256,25,26
 379 58 379 58 411 75.5 c 128,-1,27
 443 93 443 93 463.5 129 c 128,-1,28
 484 165 484 165 493.5 221 c 128,-1,29
 503 277 503 277 503 355 c 0,30,31
 503 435 503 435 490.5 491 c 128,-1,32
 478 547 478 547 456 582.5 c 128,-1,33
 434 618 434 618 403.5 635 c 128,-1,34
 373 652 373 652 338 652 c 0,35,36
 290 652 290 652 255.5 631 c 128,-1,37
 221 610 221 610 198 570.5 c 128,-1,38
 175 531 175 531 160 473 c 1,39,-1
 71 473 l 1,40,-1
 71 719 l 1,41,-1
 149 719 l 1,42,-1
 164 537 l 1,43,-1
 140 506 l 1,44,45
 146 582 146 582 171.5 632.5 c 128,-1,46
 197 683 197 683 241 708 c 128,-1,47
 285 733 285 733 344 733 c 0,48,49
 404 733 404 733 455.5 709.5 c 128,-1,50
 507 686 507 686 544.5 639.5 c 128,-1,51
 582 593 582 593 603 521.5 c 128,-1,52
 624 450 624 450 624 355 c 0,53,54
 624 263 624 263 603 192.5 c 128,-1,55
 582 122 582 122 544 74 c 128,-1,56
 506 26 506 26 455.5 1.5 c 128,-1,57
 405 -23 405 -23 344 -23 c 0,12,13
EndSplineSet
Substitution2: "'ss01' Style Set 1 lookup 61 subtable" Ecyr.alt1
EndChar

StartChar: Yucyr
Encoding: 1070 1070 300
Width: 975
GlyphClass: 2
Flags: W
AnchorPoint: "Anchor-1" 506 0 basechar 0
AnchorPoint: "Anchor-0" 506 741 basechar 0
LayerCount: 2
Fore
SplineSet
176 408 m 1,0,-1
 394 408 l 1,1,-1
 394 324 l 1,2,-1
 176 324 l 1,3,-1
 176 408 l 1,0,-1
50 0 m 1,4,-1
 50 82 l 1,5,-1
 59 82 l 2,6,7
 81 82 81 82 99 89 c 128,-1,8
 117 96 117 96 117 119 c 2,9,-1
 117 591 l 2,10,11
 117 614 117 614 99 621 c 128,-1,12
 81 628 81 628 59 628 c 2,13,-1
 50 628 l 1,14,-1
 50 710 l 1,15,-1
 305 710 l 1,16,-1
 305 629 l 1,17,-1
 298 629 l 2,18,19
 286 629 286 629 274.5 628 c 128,-1,20
 263 627 263 627 253 625.5 c 128,-1,21
 243 624 243 624 236.5 622.5 c 128,-1,22
 230 621 230 621 230 618 c 2,23,-1
 230 91 l 2,24,25
 230 89 230 89 236.5 87.5 c 128,-1,26
 243 86 243 86 253 84.5 c 128,-1,27
 263 83 263 83 275 82.5 c 128,-1,28
 287 82 287 82 297 82 c 2,29,-1
 305 82 l 1,30,-1
 305 0 l 1,31,-1
 50 0 l 1,4,-1
632 -23 m 256,32,33
 566 -23 566 -23 512 1.5 c 128,-1,34
 458 26 458 26 419 74 c 128,-1,35
 380 122 380 122 359 192.5 c 128,-1,36
 338 263 338 263 338 355 c 0,37,38
 338 448 338 448 359 518.5 c 128,-1,39
 380 589 380 589 419 636.5 c 128,-1,40
 458 684 458 684 512 708.5 c 128,-1,41
 566 733 566 733 632 733 c 256,42,43
 698 733 698 733 751.5 708.5 c 128,-1,44
 805 684 805 684 844 636.5 c 128,-1,45
 883 589 883 589 903.5 518.5 c 128,-1,46
 924 448 924 448 924 355 c 0,47,48
 924 263 924 263 903.5 192.5 c 128,-1,49
 883 122 883 122 844 74 c 128,-1,50
 805 26 805 26 751.5 1.5 c 128,-1,51
 698 -23 698 -23 632 -23 c 256,32,33
632 60 m 256,52,53
 675 60 675 60 707 77 c 128,-1,54
 739 94 739 94 760.5 130 c 128,-1,55
 782 166 782 166 793 221.5 c 128,-1,56
 804 277 804 277 804 355 c 256,57,58
 804 433 804 433 793 488.5 c 128,-1,59
 782 544 782 544 760.5 580 c 128,-1,60
 739 616 739 616 707 633 c 128,-1,61
 675 650 675 650 632 650 c 0,62,63
 588 650 588 650 555.5 633 c 128,-1,64
 523 616 523 616 501.5 580 c 128,-1,65
 480 544 480 544 469.5 488.5 c 128,-1,66
 459 433 459 433 459 355 c 256,67,68
 459 277 459 277 469.5 221.5 c 128,-1,69
 480 166 480 166 502 130 c 128,-1,70
 524 94 524 94 556.5 77 c 128,-1,71
 589 60 589 60 632 60 c 256,52,53
EndSplineSet
EndChar

StartChar: Yacyr
Encoding: 1071 1071 301
Width: 668
GlyphClass: 2
Flags: W
AnchorPoint: "Anchor-1" 334 0 basechar 0
AnchorPoint: "Anchor-0" 368 741 basechar 0
LayerCount: 2
Fore
SplineSet
330 322 m 1,0,-1
 175 0 l 1,1,-1
 27 0 l 1,2,-1
 27 82 l 1,3,-1
 35 82 l 2,4,5
 54 82 54 82 69.5 87 c 128,-1,6
 85 92 85 92 99 105.5 c 128,-1,7
 113 119 113 119 125 144 c 2,8,-1
 239 371 l 1,9,-1
 330 322 l 1,0,-1
438 92 m 2,10,-1
 438 629 l 1,11,-1
 331 629 l 2,12,13
 291 629 291 629 264.5 614.5 c 128,-1,14
 238 600 238 600 225.5 571.5 c 128,-1,15
 213 543 213 543 213 503 c 0,16,17
 213 462 213 462 225 431.5 c 128,-1,18
 237 401 237 401 263.5 384.5 c 128,-1,19
 290 368 290 368 335 368 c 2,20,-1
 452 368 l 1,21,-1
 452 287 l 1,22,-1
 296 287 l 1,23,-1
 271 299 l 1,24,25
 219 309 219 309 179.5 332 c 128,-1,26
 140 355 140 355 118 397.5 c 128,-1,27
 96 440 96 440 96 504 c 0,28,29
 96 570 96 570 122.5 616 c 128,-1,30
 149 662 149 662 200 686 c 128,-1,31
 251 710 251 710 322 710 c 2,32,-1
 618 710 l 1,33,-1
 618 628 l 1,34,-1
 609 628 l 2,35,36
 587 628 587 628 569.5 621 c 128,-1,37
 552 614 552 614 552 591 c 2,38,-1
 552 119 l 2,39,40
 552 96 552 96 569.5 89 c 128,-1,41
 587 82 587 82 609 82 c 2,42,-1
 618 82 l 1,43,-1
 618 0 l 1,44,-1
 348 0 l 1,45,-1
 348 82 l 1,46,-1
 364 82 l 2,47,48
 378 82 378 82 391.5 82.5 c 128,-1,49
 405 83 405 83 415 84.5 c 128,-1,50
 425 86 425 86 431.5 87.5 c 128,-1,51
 438 89 438 89 438 92 c 2,10,-1
EndSplineSet
EndChar

StartChar: Geupcyr
Encoding: 1168 1168 302
Width: 574
GlyphClass: 2
Flags: W
AnchorPoint: "Anchor-0" 270 741 basechar 0
LayerCount: 2
Fore
SplineSet
230 629 m 1,0,-1
 230 118 l 2,1,2
 230 104 230 104 240 96 c 128,-1,3
 250 88 250 88 267 85 c 128,-1,4
 284 82 284 82 305 82 c 2,5,-1
 323 82 l 1,6,-1
 323 0 l 1,7,-1
 50 0 l 1,8,-1
 50 82 l 1,9,-1
 59 82 l 2,10,11
 81 82 81 82 99 89 c 128,-1,12
 117 96 117 96 117 119 c 2,13,-1
 117 591 l 2,14,15
 117 614 117 614 99 621 c 128,-1,16
 81 628 81 628 59 628 c 2,17,-1
 50 628 l 1,18,-1
 50 710 l 1,19,-1
 332 710 l 2,20,21
 372 710 372 710 396.5 715 c 128,-1,22
 421 720 421 720 432 732.5 c 128,-1,23
 443 745 443 745 445 766 c 2,24,-1
 456 891 l 1,25,-1
 535 891 l 1,26,-1
 535 629 l 1,27,-1
 230 629 l 1,0,-1
EndSplineSet
EndChar

StartChar: Gestrokecyr
Encoding: 1170 1170 303
Width: 579
GlyphClass: 2
Flags: W
AnchorPoint: "Anchor-0" 295 741 basechar 0
LayerCount: 2
Fore
SplineSet
44 401 m 1,0,-1
 385 401 l 1,1,-1
 385 321 l 1,2,-1
 44 321 l 1,3,-1
 44 401 l 1,0,-1
230 629 m 1,4,-1
 230 118 l 2,5,6
 230 104 230 104 240 96 c 128,-1,7
 250 88 250 88 267 85 c 128,-1,8
 284 82 284 82 305 82 c 2,9,-1
 323 82 l 1,10,-1
 323 0 l 1,11,-1
 50 0 l 1,12,-1
 50 82 l 1,13,-1
 59 82 l 2,14,15
 81 82 81 82 99 89 c 128,-1,16
 117 96 117 96 117 119 c 2,17,-1
 117 591 l 2,18,19
 117 614 117 614 99 621 c 128,-1,20
 81 628 81 628 59 628 c 2,21,-1
 50 628 l 1,22,-1
 50 710 l 1,23,-1
 535 710 l 1,24,-1
 535 476 l 1,25,-1
 456 476 l 1,26,-1
 446 570 l 2,27,28
 443 595 443 595 432.5 607.5 c 128,-1,29
 422 620 422 620 401 624.5 c 128,-1,30
 380 629 380 629 346 629 c 2,31,-1
 230 629 l 1,4,-1
EndSplineSet
EndChar

StartChar: Zhetailcyr
Encoding: 1174 1174 304
Width: 1001
GlyphClass: 2
Flags: W
AnchorPoint: "Anchor-0" 491 741 basechar 0
LayerCount: 2
Fore
SplineSet
712 0 m 1,0,-1
 712 82 l 1,1,-1
 719 82 l 2,2,3
 735 82 735 82 749.5 83 c 128,-1,4
 764 84 764 84 773.5 86.5 c 128,-1,5
 783 89 783 89 783 92 c 2,6,-1
 590 348 l 1,7,-1
 590 371 l 1,8,-1
 796 617 l 2,9,10
 796 621 796 621 787 623 c 128,-1,11
 778 625 778 625 763.5 626.5 c 128,-1,12
 749 628 749 628 735 628 c 2,13,-1
 727 628 l 1,14,-1
 727 710 l 1,15,-1
 956 710 l 1,16,-1
 956 628 l 1,17,-1
 936 628 l 2,18,19
 926 628 926 628 917.5 626 c 128,-1,20
 909 624 909 624 900.5 617.5 c 128,-1,21
 892 611 892 611 883 599 c 2,22,-1
 676 354 l 1,23,-1
 681 404 l 1,24,-1
 923 84 l 1,25,-1
 923 0 l 1,26,-1
 712 0 l 1,0,-1
285 0 m 1,27,-1
 21 0 l 1,28,-1
 21 82 l 1,29,-1
 40 82 l 2,30,31
 50 82 50 82 59.5 83.5 c 128,-1,32
 69 85 69 85 78 90 c 128,-1,33
 87 95 87 95 95 106 c 2,34,-1
 320 404 l 1,35,-1
 319 354 l 1,36,-1
 112 599 l 2,37,38
 102 611 102 611 94 617.5 c 128,-1,39
 86 624 86 624 78 626 c 128,-1,40
 70 628 70 628 59 628 c 2,41,-1
 39 628 l 1,42,-1
 39 710 l 1,43,-1
 270 710 l 1,44,-1
 270 628 l 1,45,-1
 262 628 l 2,46,47
 247 628 247 628 233 626.5 c 128,-1,48
 219 625 219 625 210 623 c 128,-1,49
 201 621 201 621 201 617 c 2,50,-1
 407 371 l 1,51,-1
 407 348 l 1,52,-1
 214 92 l 2,53,54
 214 89 214 89 223.5 86.5 c 128,-1,55
 233 84 233 84 247.5 83 c 128,-1,56
 262 82 262 82 277 82 c 2,57,-1
 285 82 l 1,58,-1
 285 0 l 1,27,-1
785 0 m 2,59,-1
 776 0 l 1,60,-1
 794 84 l 1,61,-1
 985 84 l 1,62,-1
 985 -181 l 1,63,-1
 906 -181 l 1,64,-1
 894 -55 l 2,65,66
 893 -35 893 -35 882.5 -23 c 128,-1,67
 872 -11 872 -11 848.5 -5.5 c 128,-1,68
 825 0 825 0 785 0 c 2,59,-1
375 0 m 1,69,-1
 375 82 l 1,70,-1
 383 82 l 2,71,72
 392 82 392 82 402 82.5 c 128,-1,73
 412 83 412 83 421.5 84.5 c 128,-1,74
 431 86 431 86 436.5 87.5 c 128,-1,75
 442 89 442 89 442 92 c 2,76,-1
 442 619 l 2,77,78
 442 621 442 621 436 622.5 c 128,-1,79
 430 624 430 624 420.5 625.5 c 128,-1,80
 411 627 411 627 400.5 627.5 c 128,-1,81
 390 628 390 628 380 628 c 2,82,-1
 372 628 l 1,83,-1
 372 710 l 1,84,-1
 625 710 l 1,85,-1
 625 628 l 1,86,-1
 617 628 l 2,87,88
 607 628 607 628 596 627.5 c 128,-1,89
 585 627 585 627 576 625.5 c 128,-1,90
 567 624 567 624 561 622.5 c 128,-1,91
 555 621 555 621 555 618 c 2,92,-1
 555 91 l 2,93,94
 555 89 555 89 560.5 87.5 c 128,-1,95
 566 86 566 86 575 84.5 c 128,-1,96
 584 83 584 83 594.5 82.5 c 128,-1,97
 605 82 605 82 615 82 c 2,98,-1
 622 82 l 1,99,-1
 622 0 l 1,100,-1
 375 0 l 1,69,-1
EndSplineSet
EndChar

StartChar: Katailcyr
Encoding: 1178 1178 306
Width: 693
GlyphClass: 2
Flags: W
AnchorPoint: "Anchor-0" 353 741 basechar 0
LayerCount: 2
Fore
SplineSet
50 0 m 1,0,-1
 50 82 l 1,1,-1
 59 82 l 2,2,3
 81 82 81 82 99 89 c 128,-1,4
 117 96 117 96 117 119 c 2,5,-1
 117 591 l 2,6,7
 117 614 117 614 99 621 c 128,-1,8
 81 628 81 628 59 628 c 2,9,-1
 50 628 l 1,10,-1
 50 710 l 1,11,-1
 303 710 l 1,12,-1
 303 628 l 1,13,-1
 295 628 l 2,14,15
 285 628 285 628 273 627.5 c 128,-1,16
 261 627 261 627 251.5 625.5 c 128,-1,17
 242 624 242 624 236 622.5 c 128,-1,18
 230 621 230 621 230 618 c 2,19,-1
 230 92 l 2,20,21
 230 89 230 89 236 87.5 c 128,-1,22
 242 86 242 86 251.5 84.5 c 128,-1,23
 261 83 261 83 272.5 82.5 c 128,-1,24
 284 82 284 82 293 82 c 2,25,-1
 300 82 l 1,26,-1
 300 0 l 1,27,-1
 50 0 l 1,0,-1
401 0 m 1,28,-1
 401 82 l 1,29,-1
 409 82 l 2,30,31
 425 82 425 82 439.5 83 c 128,-1,32
 454 84 454 84 463 86.5 c 128,-1,33
 472 89 472 89 472 92 c 2,34,-1
 269 348 l 1,35,-1
 269 371 l 1,36,-1
 486 617 l 2,37,38
 486 621 486 621 477 623 c 128,-1,39
 468 625 468 625 453.5 626.5 c 128,-1,40
 439 628 439 628 425 628 c 2,41,-1
 417 628 l 1,42,-1
 417 710 l 1,43,-1
 647 710 l 1,44,-1
 647 628 l 1,45,-1
 627 628 l 2,46,47
 618 628 618 628 610 625.5 c 128,-1,48
 602 623 602 623 593.5 617 c 128,-1,49
 585 611 585 611 575 599 c 2,50,-1
 356 354 l 1,51,-1
 360 404 l 1,52,-1
 615 84 l 1,53,-1
 615 0 l 1,54,-1
 401 0 l 1,28,-1
476 0 m 2,55,-1
 468 0 l 1,56,-1
 486 84 l 1,57,-1
 677 84 l 1,58,-1
 677 -181 l 1,59,-1
 597 -181 l 1,60,-1
 586 -55 l 2,61,62
 584 -35 584 -35 573.5 -23 c 128,-1,63
 563 -11 563 -11 540 -5.5 c 128,-1,64
 517 0 517 0 476 0 c 2,55,-1
EndSplineSet
EndChar

StartChar: Kaverticalstrokecyr
Encoding: 1180 1180 307
Width: 792
GlyphClass: 2
Flags: W
AnchorPoint: "Anchor-0" 412 741 basechar 0
LayerCount: 2
Fore
SplineSet
296 171 m 1,0,-1
 296 544 l 1,1,-1
 380 544 l 1,2,-1
 380 171 l 1,3,-1
 296 171 l 1,0,-1
50 0 m 1,4,-1
 50 82 l 1,5,-1
 59 82 l 2,6,7
 81 82 81 82 99 89 c 128,-1,8
 117 96 117 96 117 119 c 2,9,-1
 117 591 l 2,10,11
 117 614 117 614 99 621 c 128,-1,12
 81 628 81 628 59 628 c 2,13,-1
 50 628 l 1,14,-1
 50 710 l 1,15,-1
 303 710 l 1,16,-1
 303 628 l 1,17,-1
 295 628 l 2,18,19
 285 628 285 628 273 627.5 c 128,-1,20
 261 627 261 627 251.5 625.5 c 128,-1,21
 242 624 242 624 236 622.5 c 128,-1,22
 230 621 230 621 230 618 c 2,23,-1
 230 92 l 2,24,25
 230 89 230 89 236 87.5 c 128,-1,26
 242 86 242 86 251.5 84.5 c 128,-1,27
 261 83 261 83 272.5 82.5 c 128,-1,28
 284 82 284 82 293 82 c 2,29,-1
 300 82 l 1,30,-1
 300 0 l 1,31,-1
 50 0 l 1,4,-1
506 0 m 1,32,-1
 506 82 l 1,33,-1
 514 82 l 2,34,35
 530 82 530 82 544.5 83 c 128,-1,36
 559 84 559 84 568 86.5 c 128,-1,37
 577 89 577 89 577 92 c 2,38,-1
 409 348 l 1,39,-1
 409 371 l 1,40,-1
 593 617 l 2,41,42
 593 621 593 621 584 623 c 128,-1,43
 575 625 575 625 560 626.5 c 128,-1,44
 545 628 545 628 530 628 c 2,45,-1
 521 628 l 1,46,-1
 521 710 l 1,47,-1
 749 710 l 1,48,-1
 749 628 l 1,49,-1
 728 628 l 2,50,51
 714 628 714 628 702.5 622.5 c 128,-1,52
 691 617 691 617 677 599 c 2,53,-1
 493 354 l 1,54,-1
 501 405 l 1,55,-1
 697 106 l 2,56,57
 704 95 704 95 713.5 90 c 128,-1,58
 723 85 723 85 733.5 83.5 c 128,-1,59
 744 82 744 82 754 82 c 2,60,-1
 771 82 l 1,61,-1
 771 0 l 1,62,-1
 506 0 l 1,32,-1
EndSplineSet
EndChar

StartChar: Kabashkcyr
Encoding: 1184 1184 308
Width: 825
GlyphClass: 2
Flags: W
AnchorPoint: "Anchor-0" 487 741 basechar 0
LayerCount: 2
Fore
SplineSet
533 0 m 1,0,-1
 533 82 l 1,1,-1
 541 82 l 2,2,3
 557 82 557 82 571.5 83 c 128,-1,4
 586 84 586 84 595.5 86.5 c 128,-1,5
 605 89 605 89 605 92 c 2,6,-1
 401 348 l 1,7,-1
 401 371 l 1,8,-1
 618 617 l 2,9,10
 618 621 618 621 609 623 c 128,-1,11
 600 625 600 625 585.5 626.5 c 128,-1,12
 571 628 571 628 557 628 c 2,13,-1
 549 628 l 1,14,-1
 549 710 l 1,15,-1
 779 710 l 1,16,-1
 779 628 l 1,17,-1
 760 628 l 2,18,19
 749 628 749 628 741 625.5 c 128,-1,20
 733 623 733 623 725 617 c 128,-1,21
 717 611 717 611 707 599 c 2,22,-1
 489 354 l 1,23,-1
 492 404 l 1,24,-1
 730 106 l 2,25,26
 738 96 738 96 747 91 c 128,-1,27
 756 86 756 86 765.5 84 c 128,-1,28
 775 82 775 82 784 82 c 2,29,-1
 804 82 l 1,30,-1
 804 0 l 1,31,-1
 533 0 l 1,0,-1
182 0 m 1,32,-1
 182 82 l 1,33,-1
 191 82 l 2,34,35
 213 82 213 82 231 89 c 128,-1,36
 249 96 249 96 249 119 c 2,37,-1
 249 629 l 1,38,-1
 214 629 l 2,39,40
 179 629 179 629 163 623 c 128,-1,41
 147 617 147 617 141.5 604 c 128,-1,42
 136 591 136 591 133 569 c 2,43,-1
 123 471 l 1,44,-1
 44 471 l 1,45,-1
 44 710 l 1,46,-1
 436 710 l 1,47,-1
 436 628 l 1,48,-1
 428 628 l 2,49,50
 414 628 414 628 399 627 c 128,-1,51
 384 626 384 626 373 624 c 128,-1,52
 362 622 362 622 362 618 c 2,53,-1
 362 92 l 2,54,55
 362 89 362 89 372.5 86.5 c 128,-1,56
 383 84 383 84 398 83.5 c 128,-1,57
 413 83 413 83 425 83 c 2,58,-1
 432 83 l 1,59,-1
 432 0 l 1,60,-1
 182 0 l 1,32,-1
EndSplineSet
EndChar

StartChar: Entailcyr
Encoding: 1186 1186 309
Width: 752
GlyphClass: 2
Flags: W
AnchorPoint: "Anchor-0" 376 741 basechar 0
LayerCount: 2
Fore
SplineSet
195 408 m 1,0,-1
 550 408 l 1,1,-1
 550 324 l 1,2,-1
 195 324 l 1,3,-1
 195 408 l 1,0,-1
50 0 m 1,4,-1
 50 82 l 1,5,-1
 59 82 l 2,6,7
 81 82 81 82 99 89 c 128,-1,8
 117 96 117 96 117 119 c 2,9,-1
 117 591 l 2,10,11
 117 614 117 614 99 621 c 128,-1,12
 81 628 81 628 59 628 c 2,13,-1
 50 628 l 1,14,-1
 50 710 l 1,15,-1
 305 710 l 1,16,-1
 305 629 l 1,17,-1
 298 629 l 2,18,19
 286 629 286 629 274.5 628 c 128,-1,20
 263 627 263 627 253 625.5 c 128,-1,21
 243 624 243 624 236.5 622.5 c 128,-1,22
 230 621 230 621 230 618 c 2,23,-1
 230 91 l 2,24,25
 230 89 230 89 236.5 87.5 c 128,-1,26
 243 86 243 86 253 84.5 c 128,-1,27
 263 83 263 83 275 82.5 c 128,-1,28
 287 82 287 82 297 82 c 2,29,-1
 305 82 l 1,30,-1
 305 0 l 1,31,-1
 50 0 l 1,4,-1
446 0 m 1,32,-1
 446 81 l 1,33,-1
 453 81 l 2,34,35
 464 81 464 81 476 82 c 128,-1,36
 488 83 488 83 498 84.5 c 128,-1,37
 508 86 508 86 514 87.5 c 128,-1,38
 520 89 520 89 520 92 c 2,39,-1
 520 619 l 2,40,41
 520 621 520 621 514 622.5 c 128,-1,42
 508 624 508 624 498 625.5 c 128,-1,43
 488 627 488 627 476 627.5 c 128,-1,44
 464 628 464 628 454 628 c 2,45,-1
 446 628 l 1,46,-1
 446 710 l 1,47,-1
 701 710 l 1,48,-1
 701 628 l 1,49,-1
 691 628 l 2,50,51
 669 628 669 628 651.5 621 c 128,-1,52
 634 614 634 614 634 592 c 2,53,-1
 634 0 l 1,54,-1
 446 0 l 1,32,-1
512 0 m 2,55,-1
 503 0 l 1,56,-1
 522 84 l 1,57,-1
 712 84 l 1,58,-1
 712 -181 l 1,59,-1
 633 -181 l 1,60,-1
 622 -55 l 2,61,62
 620 -35 620 -35 609.5 -23 c 128,-1,63
 599 -11 599 -11 575.5 -5.5 c 128,-1,64
 552 0 552 0 512 0 c 2,55,-1
EndSplineSet
EndChar

StartChar: Tetailcyr
Encoding: 1196 1196 311
Width: 642
GlyphClass: 2
Flags: W
AnchorPoint: "Anchor-0" 314 741 basechar 0
LayerCount: 2
Fore
SplineSet
264 119 m 2,0,-1
 264 629 l 1,1,-1
 214 629 l 2,2,3
 179 629 179 629 163 623 c 128,-1,4
 147 617 147 617 141.5 604 c 128,-1,5
 136 591 136 591 133 569 c 2,6,-1
 123 471 l 1,7,-1
 44 471 l 1,8,-1
 44 710 l 1,9,-1
 599 710 l 1,10,-1
 599 471 l 1,11,-1
 519 471 l 1,12,-1
 509 569 l 2,13,14
 507 591 507 591 501 604 c 128,-1,15
 495 617 495 617 478.5 623 c 128,-1,16
 462 629 462 629 428 629 c 2,17,-1
 377 629 l 1,18,-1
 377 0 l 1,19,-1
 181 0 l 1,20,-1
 181 82 l 1,21,-1
 198 82 l 2,22,23
 224 82 224 82 244 89 c 128,-1,24
 264 96 264 96 264 119 c 2,0,-1
271 0 m 2,25,-1
 258 0 l 1,26,-1
 263 84 l 1,27,-1
 471 84 l 1,28,-1
 471 -181 l 1,29,-1
 392 -181 l 1,30,-1
 380 -55 l 2,31,32
 379 -35 379 -35 368 -23 c 128,-1,33
 357 -11 357 -11 334 -5.5 c 128,-1,34
 311 0 311 0 271 0 c 2,25,-1
EndSplineSet
EndChar

StartChar: Ustraightstrokecyr
Encoding: 1200 1200 313
Width: 622
GlyphClass: 2
Flags: W
AnchorPoint: "Anchor-1" 311 0 basechar 0
AnchorPoint: "Anchor-0" 311 741 basechar 0
LayerCount: 2
Fore
SplineSet
134 278 m 1,0,-1
 490 278 l 1,1,-1
 490 195 l 1,2,-1
 134 195 l 1,3,-1
 134 278 l 1,0,-1
255 297 m 1,4,-1
 261 266 l 1,5,-1
 87 582 l 2,6,7
 77 600 77 600 69 610 c 128,-1,8
 61 620 61 620 52 624 c 128,-1,9
 43 628 43 628 32 628 c 2,10,-1
 23 628 l 1,11,-1
 23 710 l 1,12,-1
 258 710 l 1,13,-1
 258 628 l 1,14,-1
 244 628 l 2,15,16
 229 628 229 628 216.5 626.5 c 128,-1,17
 204 625 204 625 195.5 623 c 128,-1,18
 187 621 187 621 187 617 c 2,19,-1
 355 307 l 1,20,-1
 297 307 l 1,21,-1
 453 605 l 2,22,23
 453 613 453 613 445 617.5 c 128,-1,24
 437 622 437 622 427 625 c 128,-1,25
 417 628 417 628 408 628 c 2,26,-1
 399 628 l 1,27,-1
 399 710 l 1,28,-1
 595 710 l 1,29,-1
 595 628 l 1,30,-1
 585 628 l 2,31,32
 577 628 577 628 568 623 c 128,-1,33
 559 618 559 618 549.5 606.5 c 128,-1,34
 540 595 540 595 529 574 c 2,35,-1
 362 266 l 1,36,-1
 368 297 l 1,37,-1
 368 118 l 2,38,39
 368 96 368 96 387.5 89 c 128,-1,40
 407 82 407 82 433 82 c 2,41,-1
 451 82 l 1,42,-1
 451 0 l 1,43,-1
 173 0 l 1,44,-1
 173 82 l 1,45,-1
 191 82 l 2,46,47
 217 82 217 82 236 89 c 128,-1,48
 255 96 255 96 255 118 c 2,49,-1
 255 297 l 1,4,-1
EndSplineSet
EndChar

StartChar: Xatailcyr
Encoding: 1202 1202 314
Width: 665
GlyphClass: 2
Flags: W
AnchorPoint: "Anchor-0" 339 741 basechar 0
LayerCount: 2
Fore
SplineSet
34 628 m 1,0,-1
 34 710 l 1,1,-1
 291 710 l 1,2,-1
 291 628 l 1,3,-1
 277 628 l 2,4,5
 262 628 262 628 249 627 c 128,-1,6
 236 626 236 626 227.5 624 c 128,-1,7
 219 622 219 622 219 618 c 2,8,-1
 369 392 l 1,9,-1
 383 387 l 1,10,-1
 581 84 l 1,11,-1
 581 0 l 1,12,-1
 375 0 l 1,13,-1
 375 82 l 1,14,-1
 389 82 l 2,15,16
 405 82 405 82 418 83 c 128,-1,17
 431 84 431 84 439 86.5 c 128,-1,18
 447 89 447 89 447 92 c 2,19,-1
 285 340 l 1,20,-1
 272 345 l 1,21,-1
 107 594 l 2,22,23
 93 617 93 617 77.5 622.5 c 128,-1,24
 62 628 62 628 45 628 c 2,25,-1
 34 628 l 1,0,-1
24 0 m 1,26,-1
 24 82 l 1,27,-1
 41 82 l 2,28,29
 54 82 54 82 67 91.5 c 128,-1,30
 80 101 80 101 96 127 c 2,31,-1
 260 381 l 1,32,-1
 332 341 l 1,33,-1
 177 99 l 2,34,35
 177 95 177 95 186 91 c 128,-1,36
 195 87 195 87 206.5 84.5 c 128,-1,37
 218 82 218 82 229 82 c 2,38,-1
 243 82 l 1,39,-1
 243 0 l 1,40,-1
 24 0 l 1,26,-1
394 349 m 1,41,-1
 325 393 l 1,42,-1
 472 611 l 2,43,44
 472 616 472 616 462.5 620 c 128,-1,45
 453 624 453 624 440.5 626 c 128,-1,46
 428 628 428 628 417 628 c 2,47,-1
 405 628 l 1,48,-1
 405 710 l 1,49,-1
 621 710 l 1,50,-1
 621 628 l 1,51,-1
 610 628 l 2,52,53
 596 628 596 628 583.5 619 c 128,-1,54
 571 610 571 610 552 583 c 2,55,-1
 394 349 l 1,41,-1
448 0 m 2,56,-1
 441 0 l 1,57,-1
 459 84 l 1,58,-1
 649 84 l 1,59,-1
 649 -181 l 1,60,-1
 569 -181 l 1,61,-1
 558 -55 l 2,62,63
 556 -35 556 -35 545.5 -23 c 128,-1,64
 535 -11 535 -11 511.5 -5.5 c 128,-1,65
 488 0 488 0 448 0 c 2,56,-1
EndSplineSet
EndChar

StartChar: Chetailcyr
Encoding: 1206 1206 315
Width: 717
GlyphClass: 2
Flags: W
AnchorPoint: "Anchor-0" 351 741 basechar 0
LayerCount: 2
Fore
SplineSet
329 268 m 0,0,1
 248 268 248 268 197 287 c 128,-1,2
 146 306 146 306 121.5 349.5 c 128,-1,3
 97 393 97 393 97 466 c 2,4,-1
 97 592 l 2,5,6
 97 614 97 614 79.5 621 c 128,-1,7
 62 628 62 628 40 628 c 2,8,-1
 31 628 l 1,9,-1
 31 710 l 1,10,-1
 286 710 l 1,11,-1
 286 628 l 1,12,-1
 278 628 l 2,13,14
 264 628 264 628 248 627 c 128,-1,15
 232 626 232 626 221.5 624 c 128,-1,16
 211 622 211 622 211 618 c 2,17,-1
 211 472 l 2,18,19
 211 430 211 430 224 403.5 c 128,-1,20
 237 377 237 377 265.5 364.5 c 128,-1,21
 294 352 294 352 342 352 c 0,22,23
 384 352 384 352 429 360.5 c 128,-1,24
 474 369 474 369 511 389 c 1,25,-1
 511 306 l 1,26,27
 470 287 470 287 423 277.5 c 128,-1,28
 376 268 376 268 329 268 c 0,0,1
411 0 m 1,29,-1
 411 82 l 1,30,-1
 418 82 l 2,31,32
 433 82 433 82 448.5 83 c 128,-1,33
 464 84 464 84 475 86.5 c 128,-1,34
 486 89 486 89 486 92 c 2,35,-1
 486 618 l 2,36,37
 486 622 486 622 475 624 c 128,-1,38
 464 626 464 626 449 627 c 128,-1,39
 434 628 434 628 419 628 c 2,40,-1
 411 628 l 1,41,-1
 411 710 l 1,42,-1
 666 710 l 1,43,-1
 666 628 l 1,44,-1
 657 628 l 2,45,46
 635 628 635 628 617 621 c 128,-1,47
 599 614 599 614 599 592 c 2,48,-1
 599 0 l 1,49,-1
 411 0 l 1,29,-1
477 0 m 2,50,-1
 469 0 l 1,51,-1
 487 84 l 1,52,-1
 678 84 l 1,53,-1
 678 -181 l 1,54,-1
 598 -181 l 1,55,-1
 587 -55 l 2,56,57
 585 -35 585 -35 574.5 -23 c 128,-1,58
 564 -11 564 -11 540.5 -5.5 c 128,-1,59
 517 0 517 0 477 0 c 2,50,-1
EndSplineSet
EndChar

StartChar: Chevertcyr
Encoding: 1208 1208 316
Width: 739
GlyphClass: 2
Flags: W
AnchorPoint: "Anchor-0" 362 741 basechar 0
LayerCount: 2
Fore
SplineSet
435 0 m 1,0,-1
 435 82 l 1,1,-1
 443 82 l 2,2,3
 458 82 458 82 473 83 c 128,-1,4
 488 84 488 84 498.5 86.5 c 128,-1,5
 509 89 509 89 509 92 c 2,6,-1
 509 618 l 2,7,8
 509 622 509 622 498.5 624 c 128,-1,9
 488 626 488 626 472.5 627 c 128,-1,10
 457 628 457 628 443 628 c 2,11,-1
 435 628 l 1,12,-1
 435 710 l 1,13,-1
 690 710 l 1,14,-1
 690 628 l 1,15,-1
 680 628 l 2,16,17
 659 628 659 628 641 621 c 128,-1,18
 623 614 623 614 623 591 c 2,19,-1
 623 119 l 2,20,21
 623 96 623 96 641 89 c 128,-1,22
 659 82 659 82 680 82 c 2,23,-1
 690 82 l 1,24,-1
 690 0 l 1,25,-1
 435 0 l 1,0,-1
340 268 m 0,26,27
 255 268 255 268 201.5 287 c 128,-1,28
 148 306 148 306 122.5 349.5 c 128,-1,29
 97 393 97 393 97 466 c 2,30,-1
 97 592 l 2,31,32
 97 614 97 614 79.5 621 c 128,-1,33
 62 628 62 628 40 628 c 2,34,-1
 31 628 l 1,35,-1
 31 710 l 1,36,-1
 286 710 l 1,37,-1
 286 628 l 1,38,-1
 278 628 l 2,39,40
 264 628 264 628 248 627 c 128,-1,41
 232 626 232 626 221.5 624 c 128,-1,42
 211 622 211 622 211 618 c 2,43,-1
 211 472 l 2,44,45
 211 430 211 430 225 403.5 c 128,-1,46
 239 377 239 377 270 364.5 c 128,-1,47
 301 352 301 352 353 352 c 0,48,49
 397 352 397 352 446 359.5 c 128,-1,50
 495 367 495 367 534 389 c 1,51,-1
 534 305 l 1,52,53
 491 286 491 286 441 277 c 128,-1,54
 391 268 391 268 340 268 c 0,26,27
322 158 m 1,55,-1
 322 531 l 1,56,-1
 406 531 l 1,57,-1
 406 158 l 1,58,-1
 322 158 l 1,55,-1
EndSplineSet
EndChar

StartChar: Shhacyr
Encoding: 1210 1210 317
Width: 716
GlyphClass: 1
Flags: W
LayerCount: 2
Fore
SplineSet
304 710 m 1,0,-1
 304 628 l 1,1,-1
 297 628 l 2,2,3
 283 628 283 628 267.5 627 c 128,-1,4
 252 626 252 626 241 624 c 128,-1,5
 230 622 230 622 230 618 c 2,6,-1
 230 92 l 2,7,8
 230 89 230 89 241 86.5 c 128,-1,9
 252 84 252 84 267.5 83 c 128,-1,10
 283 82 283 82 297 82 c 2,11,-1
 304 82 l 1,12,-1
 304 0 l 1,13,-1
 50 0 l 1,14,-1
 50 82 l 1,15,-1
 59 82 l 2,16,17
 81 82 81 82 99 89 c 128,-1,18
 117 96 117 96 117 119 c 2,19,-1
 117 591 l 2,20,21
 117 614 117 614 99 621 c 128,-1,22
 81 628 81 628 59 628 c 2,23,-1
 50 628 l 1,24,-1
 50 710 l 1,25,-1
 304 710 l 1,0,-1
387 442 m 0,26,27
 467 442 467 442 518.5 423 c 128,-1,28
 570 404 570 404 594 360.5 c 128,-1,29
 618 317 618 317 618 244 c 2,30,-1
 618 118 l 2,31,32
 618 96 618 96 636 89 c 128,-1,33
 654 82 654 82 676 82 c 2,34,-1
 685 82 l 1,35,-1
 685 0 l 1,36,-1
 430 0 l 1,37,-1
 430 82 l 1,38,-1
 437 82 l 2,39,40
 453 82 453 82 468.5 83 c 128,-1,41
 484 84 484 84 494.5 86.5 c 128,-1,42
 505 89 505 89 505 92 c 2,43,-1
 505 238 l 2,44,45
 505 280 505 280 492 306.5 c 128,-1,46
 479 333 479 333 450 345.5 c 128,-1,47
 421 358 421 358 374 358 c 0,48,49
 333 358 333 358 287.5 350 c 128,-1,50
 242 342 242 342 205 321 c 1,51,-1
 205 405 l 1,52,53
 246 423 246 423 292.5 432.5 c 128,-1,54
 339 442 339 442 387 442 c 0,26,27
EndSplineSet
EndChar

StartChar: Obarcyr
Encoding: 1256 1256 320
Width: 702
GlyphClass: 2
Flags: W
AnchorPoint: "Anchor-1" 344 0 basechar 0
AnchorPoint: "Anchor-0" 344 741 basechar 0
LayerCount: 2
Fore
SplineSet
109 408 m 1,0,-1
 592 408 l 1,1,-1
 592 324 l 1,2,-1
 109 324 l 1,3,-1
 109 408 l 1,0,-1
351 -23 m 256,4,5
 283 -23 283 -23 228 1.5 c 128,-1,6
 173 26 173 26 133 74 c 128,-1,7
 93 122 93 122 71.5 192.5 c 128,-1,8
 50 263 50 263 50 355 c 0,9,10
 50 448 50 448 71.5 518.5 c 128,-1,11
 93 589 93 589 133 636.5 c 128,-1,12
 173 684 173 684 228 708.5 c 128,-1,13
 283 733 283 733 351 733 c 256,14,15
 419 733 419 733 474.5 708.5 c 128,-1,16
 530 684 530 684 569.5 636.5 c 128,-1,17
 609 589 609 589 630 518.5 c 128,-1,18
 651 448 651 448 651 355 c 0,19,20
 651 263 651 263 630 192.5 c 128,-1,21
 609 122 609 122 569.5 74 c 128,-1,22
 530 26 530 26 474.5 1.5 c 128,-1,23
 419 -23 419 -23 351 -23 c 256,4,5
351 60 m 0,24,25
 397 60 397 60 430.5 77 c 128,-1,26
 464 94 464 94 486.5 130 c 128,-1,27
 509 166 509 166 520 221.5 c 128,-1,28
 531 277 531 277 531 355 c 256,29,30
 531 433 531 433 520 488.5 c 128,-1,31
 509 544 509 544 486.5 580 c 128,-1,32
 464 616 464 616 430.5 633 c 128,-1,33
 397 650 397 650 351 650 c 0,34,35
 306 650 306 650 272 633 c 128,-1,36
 238 616 238 616 215.5 580 c 128,-1,37
 193 544 193 544 182 488.5 c 128,-1,38
 171 433 171 433 171 355 c 256,39,40
 171 277 171 277 182 221.5 c 128,-1,41
 193 166 193 166 215.5 130 c 128,-1,42
 238 94 238 94 272 77 c 128,-1,43
 306 60 306 60 351 60 c 0,24,25
EndSplineSet
EndChar

StartChar: Hastrokecyr
Encoding: 1278 1278 321
Width: 660
GlyphClass: 2
Flags: W
AnchorPoint: "Anchor-1" 310 0 basechar 0
AnchorPoint: "Anchor-0" 336 741 basechar 0
LayerCount: 2
Fore
SplineSet
139 409 m 1,0,-1
 516 409 l 1,1,-1
 516 325 l 1,2,-1
 139 325 l 1,3,-1
 139 409 l 1,0,-1
34 628 m 1,4,-1
 34 710 l 1,5,-1
 291 710 l 1,6,-1
 291 628 l 1,7,-1
 277 628 l 2,8,9
 262 628 262 628 249 627 c 128,-1,10
 236 626 236 626 227.5 624 c 128,-1,11
 219 622 219 622 219 618 c 2,12,-1
 369 392 l 1,13,-1
 381 387 l 1,14,-1
 560 116 l 2,15,16
 574 94 574 94 589.5 88 c 128,-1,17
 605 82 605 82 620 82 c 2,18,-1
 637 82 l 1,19,-1
 637 0 l 1,20,-1
 375 0 l 1,21,-1
 375 82 l 1,22,-1
 389 82 l 2,23,24
 405 82 405 82 418 83 c 128,-1,25
 431 84 431 84 439 86.5 c 128,-1,26
 447 89 447 89 447 92 c 2,27,-1
 286 340 l 1,28,-1
 273 345 l 1,29,-1
 107 594 l 2,30,31
 93 617 93 617 77.5 622.5 c 128,-1,32
 62 628 62 628 45 628 c 2,33,-1
 34 628 l 1,4,-1
24 0 m 1,34,-1
 24 82 l 1,35,-1
 41 82 l 2,36,37
 54 82 54 82 67 91.5 c 128,-1,38
 80 101 80 101 96 128 c 2,39,-1
 261 381 l 1,40,-1
 332 341 l 1,41,-1
 177 99 l 2,42,43
 177 95 177 95 186 91 c 128,-1,44
 195 87 195 87 206.5 84.5 c 128,-1,45
 218 82 218 82 229 82 c 2,46,-1
 243 82 l 1,47,-1
 243 0 l 1,48,-1
 24 0 l 1,34,-1
392 349 m 1,49,-1
 325 393 l 1,50,-1
 472 611 l 2,51,52
 472 616 472 616 462.5 620 c 128,-1,53
 453 624 453 624 440.5 626 c 128,-1,54
 428 628 428 628 417 628 c 2,55,-1
 405 628 l 1,56,-1
 405 710 l 1,57,-1
 621 710 l 1,58,-1
 621 628 l 1,59,-1
 610 628 l 2,60,61
 596 628 596 628 583.5 619 c 128,-1,62
 571 610 571 610 552 583 c 2,63,-1
 392 349 l 1,49,-1
EndSplineSet
EndChar

StartChar: a
Encoding: 97 97 322
Width: 544
GlyphClass: 2
Flags: W
AnchorPoint: "Anchor-2" 409 -10 basechar 0
AnchorPoint: "Anchor-1" 280 0 basechar 0
AnchorPoint: "Anchor-0" 252 565 basechar 0
LayerCount: 2
Fore
SplineSet
358 349 m 1,0,-1
 358 285 l 1,1,2
 303 275 303 275 267 264 c 128,-1,3
 231 253 231 253 209 240 c 128,-1,4
 187 227 187 227 176.5 213 c 128,-1,5
 166 199 166 199 162 181 c 128,-1,6
 158 163 158 163 158 142 c 0,7,8
 158 112 158 112 166.5 95.5 c 128,-1,9
 175 79 175 79 189.5 73 c 128,-1,10
 204 67 204 67 222 67 c 0,11,12
 244 67 244 67 266.5 75.5 c 128,-1,13
 289 84 289 84 311.5 105.5 c 128,-1,14
 334 127 334 127 357 165 c 1,15,-1
 362 104 l 1,16,17
 345 67 345 67 320.5 40.5 c 128,-1,18
 296 14 296 14 266 1 c 128,-1,19
 236 -12 236 -12 200 -12 c 0,20,21
 152 -12 152 -12 119 4.5 c 128,-1,22
 86 21 86 21 69 54 c 128,-1,23
 52 87 52 87 52 138 c 0,24,25
 52 184 52 184 66 217 c 128,-1,26
 80 250 80 250 113.5 274 c 128,-1,27
 147 298 147 298 206.5 316 c 128,-1,28
 266 334 266 334 358 349 c 1,0,-1
378 0 m 1,29,-1
 355 115 l 1,30,-1
 353 123 l 1,31,-1
 353 412 l 2,32,33
 353 440 353 440 347 458.5 c 128,-1,34
 341 477 341 477 321.5 486.5 c 128,-1,35
 302 496 302 496 261 496 c 0,36,37
 206 496 206 496 170 483.5 c 128,-1,38
 134 471 134 471 118 459 c 1,39,40
 117 463 117 463 121.5 473 c 128,-1,41
 126 483 126 483 134.5 494 c 128,-1,42
 143 505 143 505 154.5 512 c 128,-1,43
 166 519 166 519 180 518 c 1,44,-1
 180 392 l 1,45,-1
 80 392 l 1,46,-1
 80 528 l 1,47,48
 94 538 94 538 119.5 549 c 128,-1,49
 145 560 145 560 182 568 c 128,-1,50
 219 576 219 576 266 576 c 0,51,52
 311 576 311 576 346.5 568 c 128,-1,53
 382 560 382 560 407.5 543 c 128,-1,54
 433 526 433 526 447 498.5 c 128,-1,55
 461 471 461 471 461 432 c 2,56,-1
 461 119 l 2,57,58
 461 105 461 105 465.5 97 c 128,-1,59
 470 89 470 89 482 84 c 128,-1,60
 494 79 494 79 514 74 c 2,61,-1
 522 72 l 1,62,-1
 522 0 l 1,63,-1
 378 0 l 1,29,-1
EndSplineSet
Substitution2: "'ss06' Style Set 6 lookup 66 subtable" a.alt
EndChar

StartChar: aogonek
Encoding: 261 261 331
Width: 544
GlyphClass: 1
Flags: W
LayerCount: 2
Fore
SplineSet
221 -159 m 0,0,1
 221 -135 221 -135 229 -116.5 c 128,-1,2
 237 -98 237 -98 257.5 -78 c 128,-1,3
 278 -58 278 -58 314.5 -30.5 c 128,-1,4
 351 -3 351 -3 408 38 c 1,5,-1
 439 2 l 1,6,7
 406 -28 406 -28 384.5 -49 c 128,-1,8
 363 -70 363 -70 351 -86 c 128,-1,9
 339 -102 339 -102 334.5 -117 c 128,-1,10
 330 -132 330 -132 330 -149 c 0,11,12
 330 -165 330 -165 338.5 -176.5 c 128,-1,13
 347 -188 347 -188 367 -188 c 0,14,15
 390 -188 390 -188 407.5 -173.5 c 128,-1,16
 425 -159 425 -159 436 -144 c 1,17,-1
 476 -183 l 1,18,19
 452 -214 452 -214 421 -233 c 128,-1,20
 390 -252 390 -252 339 -252 c 256,21,22
 288 -252 288 -252 254.5 -229.5 c 128,-1,23
 221 -207 221 -207 221 -159 c 0,0,1
522 0 m 1,24,-1
 380 0 l 1,25,-1
 357 115 l 1,26,-1
 349 123 l 1,27,-1
 349 414 l 2,28,29
 349 441 349 441 343.5 459.5 c 128,-1,30
 338 478 338 478 319 487.5 c 128,-1,31
 300 497 300 497 261 497 c 0,32,33
 206 497 206 497 168.5 488 c 128,-1,34
 131 479 131 479 117 468 c 1,35,36
 116 473 116 473 120 481 c 128,-1,37
 124 489 124 489 132.5 498.5 c 128,-1,38
 141 508 141 508 152 513.5 c 128,-1,39
 163 519 163 519 176 518 c 1,40,-1
 176 392 l 1,41,-1
 76 392 l 1,42,-1
 76 528 l 1,43,44
 91 539 91 539 116.5 550 c 128,-1,45
 142 561 142 561 179.5 568.5 c 128,-1,46
 217 576 217 576 266 576 c 0,47,48
 310 576 310 576 345 568 c 128,-1,49
 380 560 380 560 405 543 c 128,-1,50
 430 526 430 526 443.5 498.5 c 128,-1,51
 457 471 457 471 457 432 c 2,52,-1
 457 118 l 2,53,54
 457 104 457 104 462.5 96.5 c 128,-1,55
 468 89 468 89 480.5 84.5 c 128,-1,56
 493 80 493 80 514 74 c 2,57,-1
 522 72 l 1,58,-1
 522 0 l 1,24,-1
47 138 m 0,59,60
 47 184 47 184 61 217.5 c 128,-1,61
 75 251 75 251 109 274.5 c 128,-1,62
 143 298 143 298 203.5 316 c 128,-1,63
 264 334 264 334 357 350 c 1,64,-1
 357 285 l 1,65,66
 301 274 301 274 263.5 263 c 128,-1,67
 226 252 226 252 204 240 c 128,-1,68
 182 228 182 228 171 213 c 128,-1,69
 160 198 160 198 156.5 180.5 c 128,-1,70
 153 163 153 163 153 142 c 0,71,72
 153 112 153 112 161.5 95.5 c 128,-1,73
 170 79 170 79 184.5 73 c 128,-1,74
 199 67 199 67 217 67 c 0,75,76
 240 67 240 67 263.5 75 c 128,-1,77
 287 83 287 83 310 104 c 128,-1,78
 333 125 333 125 356 163 c 1,79,-1
 362 103 l 1,80,81
 345 65 345 65 319.5 39.5 c 128,-1,82
 294 14 294 14 262.5 1 c 128,-1,83
 231 -12 231 -12 195 -12 c 0,84,85
 147 -12 147 -12 114 4.5 c 128,-1,86
 81 21 81 21 64 54 c 128,-1,87
 47 87 47 87 47 138 c 0,59,60
EndSplineSet
Substitution2: "'ss06' Style Set 6 lookup 66 subtable" aogonek.alt
EndChar

StartChar: acaron
Encoding: 462 462 332
Width: 544
GlyphClass: 1
Flags: W
LayerCount: 2
Fore
SplineSet
225 655 m 1,0,-1
 297 655 l 1,1,-1
 420 823 l 1,2,-1
 420 847 l 1,3,-1
 361 847 l 1,4,-1
 206 708 l 1,5,-1
 316 711 l 1,6,-1
 163 847 l 1,7,-1
 100 847 l 1,8,-1
 100 823 l 1,9,-1
 225 655 l 1,0,-1
358 349 m 1,10,-1
 358 285 l 1,11,12
 303 275 303 275 267 264 c 128,-1,13
 231 253 231 253 209 240 c 128,-1,14
 187 227 187 227 176.5 213 c 128,-1,15
 166 199 166 199 162 181 c 128,-1,16
 158 163 158 163 158 142 c 0,17,18
 158 112 158 112 166.5 95.5 c 128,-1,19
 175 79 175 79 189.5 73 c 128,-1,20
 204 67 204 67 222 67 c 0,21,22
 244 67 244 67 266.5 75.5 c 128,-1,23
 289 84 289 84 311.5 105.5 c 128,-1,24
 334 127 334 127 357 165 c 1,25,-1
 362 104 l 1,26,27
 345 67 345 67 320.5 40.5 c 128,-1,28
 296 14 296 14 266 1 c 128,-1,29
 236 -12 236 -12 200 -12 c 0,30,31
 152 -12 152 -12 119 4.5 c 128,-1,32
 86 21 86 21 69 54 c 128,-1,33
 52 87 52 87 52 138 c 0,34,35
 52 184 52 184 66 217 c 128,-1,36
 80 250 80 250 113.5 274 c 128,-1,37
 147 298 147 298 206.5 316 c 128,-1,38
 266 334 266 334 358 349 c 1,10,-1
378 0 m 1,39,-1
 355 115 l 1,40,-1
 353 123 l 1,41,-1
 353 412 l 2,42,43
 353 440 353 440 347 458.5 c 128,-1,44
 341 477 341 477 321.5 486.5 c 128,-1,45
 302 496 302 496 261 496 c 0,46,47
 206 496 206 496 170 483.5 c 128,-1,48
 134 471 134 471 118 459 c 1,49,50
 117 463 117 463 121.5 473 c 128,-1,51
 126 483 126 483 134.5 494 c 128,-1,52
 143 505 143 505 154.5 512 c 128,-1,53
 166 519 166 519 180 518 c 1,54,-1
 180 392 l 1,55,-1
 80 392 l 1,56,-1
 80 528 l 1,57,58
 94 538 94 538 119.5 549 c 128,-1,59
 145 560 145 560 182 568 c 128,-1,60
 219 576 219 576 266 576 c 0,61,62
 311 576 311 576 346.5 568 c 128,-1,63
 382 560 382 560 407.5 543 c 128,-1,64
 433 526 433 526 447 498.5 c 128,-1,65
 461 471 461 471 461 432 c 2,66,-1
 461 119 l 2,67,68
 461 105 461 105 465.5 97 c 128,-1,69
 470 89 470 89 482 84 c 128,-1,70
 494 79 494 79 514 74 c 2,71,-1
 522 72 l 1,72,-1
 522 0 l 1,73,-1
 378 0 l 1,39,-1
EndSplineSet
Substitution2: "'ss06' Style Set 6 lookup 66 subtable" acaron.alt
EndChar

StartChar: adblgrave
Encoding: 513 513 334
Width: 544
GlyphClass: 1
Flags: W
LayerCount: 2
Fore
SplineSet
366 802 m 2,0,-1
 393 690 l 1,1,-1
 391 659 l 1,2,-1
 349 659 l 1,3,-1
 280 740 l 2,4,5
 263 761 263 761 253.5 778.5 c 128,-1,6
 244 796 244 796 244 817 c 0,7,8
 244 841 244 841 258 856 c 128,-1,9
 272 871 272 871 296 871 c 0,10,11
 325 871 325 871 342.5 851.5 c 128,-1,12
 360 832 360 832 366 802 c 2,0,-1
188 803 m 2,13,-1
 212 690 l 1,14,-1
 212 659 l 1,15,-1
 170 659 l 1,16,-1
 102 740 l 2,17,18
 85 761 85 761 75 778.5 c 128,-1,19
 65 796 65 796 65 817 c 0,20,21
 65 841 65 841 79 856 c 128,-1,22
 93 871 93 871 118 871 c 0,23,24
 146 871 146 871 163.5 851.5 c 128,-1,25
 181 832 181 832 188 803 c 2,13,-1
358 349 m 1,26,-1
 358 285 l 1,27,28
 303 275 303 275 267 264 c 128,-1,29
 231 253 231 253 209 240 c 128,-1,30
 187 227 187 227 176.5 213 c 128,-1,31
 166 199 166 199 162 181 c 128,-1,32
 158 163 158 163 158 142 c 0,33,34
 158 112 158 112 166.5 95.5 c 128,-1,35
 175 79 175 79 189.5 73 c 128,-1,36
 204 67 204 67 222 67 c 0,37,38
 244 67 244 67 266.5 75.5 c 128,-1,39
 289 84 289 84 311.5 105.5 c 128,-1,40
 334 127 334 127 357 165 c 1,41,-1
 362 104 l 1,42,43
 345 67 345 67 320.5 40.5 c 128,-1,44
 296 14 296 14 266 1 c 128,-1,45
 236 -12 236 -12 200 -12 c 0,46,47
 152 -12 152 -12 119 4.5 c 128,-1,48
 86 21 86 21 69 54 c 128,-1,49
 52 87 52 87 52 138 c 0,50,51
 52 184 52 184 66 217 c 128,-1,52
 80 250 80 250 113.5 274 c 128,-1,53
 147 298 147 298 206.5 316 c 128,-1,54
 266 334 266 334 358 349 c 1,26,-1
378 0 m 1,55,-1
 355 115 l 1,56,-1
 353 123 l 1,57,-1
 353 412 l 2,58,59
 353 440 353 440 347 458.5 c 128,-1,60
 341 477 341 477 321.5 486.5 c 128,-1,61
 302 496 302 496 261 496 c 0,62,63
 206 496 206 496 170 483.5 c 128,-1,64
 134 471 134 471 118 459 c 1,65,66
 117 463 117 463 121.5 473 c 128,-1,67
 126 483 126 483 134.5 494 c 128,-1,68
 143 505 143 505 154.5 512 c 128,-1,69
 166 519 166 519 180 518 c 1,70,-1
 180 392 l 1,71,-1
 80 392 l 1,72,-1
 80 528 l 1,73,74
 94 538 94 538 119.5 549 c 128,-1,75
 145 560 145 560 182 568 c 128,-1,76
 219 576 219 576 266 576 c 0,77,78
 311 576 311 576 346.5 568 c 128,-1,79
 382 560 382 560 407.5 543 c 128,-1,80
 433 526 433 526 447 498.5 c 128,-1,81
 461 471 461 471 461 432 c 2,82,-1
 461 119 l 2,83,84
 461 105 461 105 465.5 97 c 128,-1,85
 470 89 470 89 482 84 c 128,-1,86
 494 79 494 79 514 74 c 2,87,-1
 522 72 l 1,88,-1
 522 0 l 1,89,-1
 378 0 l 1,55,-1
EndSplineSet
Substitution2: "'ss06' Style Set 6 lookup 66 subtable" adblgrave.alt
EndChar

StartChar: ainvertedbreve
Encoding: 515 515 335
Width: 544
GlyphClass: 1
Flags: W
LayerCount: 2
Fore
SplineSet
256 831 m 256,0,1
 202 831 202 831 168 815.5 c 128,-1,2
 134 800 134 800 118.5 763.5 c 128,-1,3
 103 727 103 727 103 664 c 1,4,-1
 183 664 l 1,5,6
 185 701 185 701 190 720.5 c 128,-1,7
 195 740 195 740 210 747 c 128,-1,8
 225 754 225 754 254 754 c 256,9,10
 283 754 283 754 297.5 747 c 128,-1,11
 312 740 312 740 318 720.5 c 128,-1,12
 324 701 324 701 325 664 c 1,13,-1
 410 664 l 1,14,15
 411 727 411 727 395 763.5 c 128,-1,16
 379 800 379 800 344.5 815.5 c 128,-1,17
 310 831 310 831 256 831 c 256,0,1
358 349 m 1,18,-1
 358 285 l 1,19,20
 303 275 303 275 267 264 c 128,-1,21
 231 253 231 253 209 240 c 128,-1,22
 187 227 187 227 176.5 213 c 128,-1,23
 166 199 166 199 162 181 c 128,-1,24
 158 163 158 163 158 142 c 0,25,26
 158 112 158 112 166.5 95.5 c 128,-1,27
 175 79 175 79 189.5 73 c 128,-1,28
 204 67 204 67 222 67 c 0,29,30
 244 67 244 67 266.5 75.5 c 128,-1,31
 289 84 289 84 311.5 105.5 c 128,-1,32
 334 127 334 127 357 165 c 1,33,-1
 362 104 l 1,34,35
 345 67 345 67 320.5 40.5 c 128,-1,36
 296 14 296 14 266 1 c 128,-1,37
 236 -12 236 -12 200 -12 c 0,38,39
 152 -12 152 -12 119 4.5 c 128,-1,40
 86 21 86 21 69 54 c 128,-1,41
 52 87 52 87 52 138 c 0,42,43
 52 184 52 184 66 217 c 128,-1,44
 80 250 80 250 113.5 274 c 128,-1,45
 147 298 147 298 206.5 316 c 128,-1,46
 266 334 266 334 358 349 c 1,18,-1
378 0 m 1,47,-1
 355 115 l 1,48,-1
 353 123 l 1,49,-1
 353 412 l 2,50,51
 353 440 353 440 347 458.5 c 128,-1,52
 341 477 341 477 321.5 486.5 c 128,-1,53
 302 496 302 496 261 496 c 0,54,55
 206 496 206 496 170 483.5 c 128,-1,56
 134 471 134 471 118 459 c 1,57,58
 117 463 117 463 121.5 473 c 128,-1,59
 126 483 126 483 134.5 494 c 128,-1,60
 143 505 143 505 154.5 512 c 128,-1,61
 166 519 166 519 180 518 c 1,62,-1
 180 392 l 1,63,-1
 80 392 l 1,64,-1
 80 528 l 1,65,66
 94 538 94 538 119.5 549 c 128,-1,67
 145 560 145 560 182 568 c 128,-1,68
 219 576 219 576 266 576 c 0,69,70
 311 576 311 576 346.5 568 c 128,-1,71
 382 560 382 560 407.5 543 c 128,-1,72
 433 526 433 526 447 498.5 c 128,-1,73
 461 471 461 471 461 432 c 2,74,-1
 461 119 l 2,75,76
 461 105 461 105 465.5 97 c 128,-1,77
 470 89 470 89 482 84 c 128,-1,78
 494 79 494 79 514 74 c 2,79,-1
 522 72 l 1,80,-1
 522 0 l 1,81,-1
 378 0 l 1,47,-1
EndSplineSet
Substitution2: "'ss06' Style Set 6 lookup 66 subtable" ainvertedbreve.alt
EndChar

StartChar: b
Encoding: 98 98 348
Width: 597
GlyphClass: 2
Flags: W
AnchorPoint: "Anchor-1" 349 0 basechar 0
AnchorPoint: "Anchor-0" 329 755 basechar 0
LayerCount: 2
Fore
SplineSet
343 -13 m 0,0,1
 304 -13 304 -13 271.5 1.5 c 128,-1,2
 239 16 239 16 213.5 46 c 128,-1,3
 188 76 188 76 168 119 c 1,4,-1
 172 176 l 1,5,6
 196 140 196 140 220 118 c 128,-1,7
 244 96 244 96 271 86 c 128,-1,8
 298 76 298 76 328 76 c 0,9,10
 356 76 356 76 377.5 88 c 128,-1,11
 399 100 399 100 413.5 125.5 c 128,-1,12
 428 151 428 151 435.5 191 c 128,-1,13
 443 231 443 231 443 286 c 0,14,15
 443 342 443 342 435.5 380 c 128,-1,16
 428 418 428 418 414 442 c 128,-1,17
 400 466 400 466 380 476.5 c 128,-1,18
 360 487 360 487 334 487 c 0,19,20
 302 487 302 487 274.5 476.5 c 128,-1,21
 247 466 247 466 222 441.5 c 128,-1,22
 197 417 197 417 171 377 c 1,23,-1
 169 435 l 1,24,25
 189 480 189 480 216 511.5 c 128,-1,26
 243 543 243 543 277 559.5 c 128,-1,27
 311 576 311 576 352 576 c 0,28,29
 420 576 420 576 465.5 539 c 128,-1,30
 511 502 511 502 533.5 437 c 128,-1,31
 556 372 556 372 556 286 c 0,32,33
 556 199 556 199 531 131.5 c 128,-1,34
 506 64 506 64 458.5 25.5 c 128,-1,35
 411 -13 411 -13 343 -13 c 0,0,1
82 656 m 2,36,37
 82 670 82 670 75.5 678 c 128,-1,38
 69 686 69 686 57 690.5 c 128,-1,39
 45 695 45 695 28 699 c 2,40,-1
 20 701 l 1,41,-1
 20 780 l 1,42,-1
 191 780 l 1,43,-1
 191 123 l 1,44,-1
 192 121 l 1,45,-1
 157 -15 l 1,46,-1
 82 -15 l 1,47,-1
 82 656 l 2,36,37
EndSplineSet
EndChar

StartChar: c
Encoding: 99 99 349
Width: 513
GlyphClass: 2
Flags: W
AnchorPoint: "Anchor-1" 284 0 basechar 0
AnchorPoint: "Anchor-0" 274 565 basechar 0
LayerCount: 2
Fore
SplineSet
289 70 m 0,0,1
 320 70 320 70 342 78.5 c 128,-1,2
 364 87 364 87 380.5 105 c 128,-1,3
 397 123 397 123 410 150 c 1,4,-1
 472 112 l 1,5,6
 457 74 457 74 429 45.5 c 128,-1,7
 401 17 401 17 364.5 2 c 128,-1,8
 328 -13 328 -13 285 -13 c 0,9,10
 208 -13 208 -13 153.5 21 c 128,-1,11
 99 55 99 55 70 121 c 128,-1,12
 41 187 41 187 41 282 c 0,13,14
 41 375 41 375 69.5 440.5 c 128,-1,15
 98 506 98 506 152.5 541 c 128,-1,16
 207 576 207 576 285 576 c 0,17,18
 331 576 331 576 365.5 570 c 128,-1,19
 400 564 400 564 422.5 556 c 128,-1,20
 445 548 445 548 454 543 c 1,21,-1
 454 372 l 1,22,-1
 351 372 l 1,23,-1
 351 516 l 1,24,25
 360 516 360 516 369.5 510 c 128,-1,26
 379 504 379 504 386.5 495 c 128,-1,27
 394 486 394 486 398.5 478 c 128,-1,28
 403 470 403 470 403 465 c 1,29,30
 384 475 384 475 355.5 484 c 128,-1,31
 327 493 327 493 289 493 c 0,32,33
 239 493 239 493 209 469.5 c 128,-1,34
 179 446 179 446 166.5 399.5 c 128,-1,35
 154 353 154 353 154 282 c 0,36,37
 154 226 154 226 161 185.5 c 128,-1,38
 168 145 168 145 183.5 119.5 c 128,-1,39
 199 94 199 94 225 82 c 128,-1,40
 251 70 251 70 289 70 c 0,0,1
EndSplineSet
EndChar

StartChar: ccaron
Encoding: 269 269 354
Width: 513
GlyphClass: 1
Flags: W
LayerCount: 2
Fore
SplineSet
237 655 m 1,0,-1
 309 655 l 1,1,-1
 432 823 l 1,2,-1
 432 847 l 1,3,-1
 373 847 l 1,4,-1
 218 708 l 1,5,-1
 328 711 l 1,6,-1
 175 847 l 1,7,-1
 112 847 l 1,8,-1
 112 823 l 1,9,-1
 237 655 l 1,0,-1
289 70 m 0,10,11
 320 70 320 70 342 78.5 c 128,-1,12
 364 87 364 87 380.5 105 c 128,-1,13
 397 123 397 123 410 150 c 1,14,-1
 472 112 l 1,15,16
 457 74 457 74 429 45.5 c 128,-1,17
 401 17 401 17 364.5 2 c 128,-1,18
 328 -13 328 -13 285 -13 c 0,19,20
 208 -13 208 -13 153.5 21 c 128,-1,21
 99 55 99 55 70 121 c 128,-1,22
 41 187 41 187 41 282 c 0,23,24
 41 375 41 375 69.5 440.5 c 128,-1,25
 98 506 98 506 152.5 541 c 128,-1,26
 207 576 207 576 285 576 c 0,27,28
 331 576 331 576 365.5 570 c 128,-1,29
 400 564 400 564 422.5 556 c 128,-1,30
 445 548 445 548 454 543 c 1,31,-1
 454 372 l 1,32,-1
 351 372 l 1,33,-1
 351 516 l 1,34,35
 360 516 360 516 369.5 510 c 128,-1,36
 379 504 379 504 386.5 495 c 128,-1,37
 394 486 394 486 398.5 478 c 128,-1,38
 403 470 403 470 403 465 c 1,39,40
 384 475 384 475 355.5 484 c 128,-1,41
 327 493 327 493 289 493 c 0,42,43
 239 493 239 493 209 469.5 c 128,-1,44
 179 446 179 446 166.5 399.5 c 128,-1,45
 154 353 154 353 154 282 c 0,46,47
 154 226 154 226 161 185.5 c 128,-1,48
 168 145 168 145 183.5 119.5 c 128,-1,49
 199 94 199 94 225 82 c 128,-1,50
 251 70 251 70 289 70 c 0,10,11
EndSplineSet
EndChar

StartChar: d
Encoding: 100 100 356
Width: 602
GlyphClass: 2
Flags: W
AnchorPoint: "Anchor-2" 570 735 basechar 0
AnchorPoint: "Anchor-1" 281 0 basechar 0
LayerCount: 2
Fore
SplineSet
515 118 m 2,0,1
 515 96 515 96 528.5 88.5 c 128,-1,2
 542 81 542 81 567 74 c 2,3,-1
 576 72 l 1,4,-1
 576 0 l 1,5,-1
 438 0 l 1,6,-1
 415 124 l 1,7,-1
 406 121 l 1,8,-1
 406 656 l 2,9,10
 406 670 406 670 399 677.5 c 128,-1,11
 392 685 392 685 378 689.5 c 128,-1,12
 364 694 364 694 343 699 c 2,13,-1
 336 701 l 1,14,-1
 336 780 l 1,15,-1
 515 780 l 1,16,-1
 515 118 l 2,0,1
253 576 m 0,17,18
 292 576 292 576 324 561 c 128,-1,19
 356 546 356 546 382 517 c 128,-1,20
 408 488 408 488 428 444 c 1,21,-1
 424 389 l 1,22,23
 402 424 402 424 377 445.5 c 128,-1,24
 352 467 352 467 326 477 c 128,-1,25
 300 487 300 487 269 487 c 0,26,27
 241 487 241 487 219.5 475 c 128,-1,28
 198 463 198 463 183.5 437.5 c 128,-1,29
 169 412 169 412 161.5 372.5 c 128,-1,30
 154 333 154 333 154 277 c 0,31,32
 154 222 154 222 161.5 183 c 128,-1,33
 169 144 169 144 183 120.5 c 128,-1,34
 197 97 197 97 217.5 86.5 c 128,-1,35
 238 76 238 76 263 76 c 0,36,37
 295 76 295 76 322 86.5 c 128,-1,38
 349 97 349 97 375 121.5 c 128,-1,39
 401 146 401 146 426 185 c 1,40,-1
 428 128 l 1,41,42
 408 83 408 83 381 51.5 c 128,-1,43
 354 20 354 20 319.5 3.5 c 128,-1,44
 285 -13 285 -13 244 -13 c 0,45,46
 178 -13 178 -13 132.5 23.5 c 128,-1,47
 87 60 87 60 64 125.5 c 128,-1,48
 41 191 41 191 41 277 c 0,49,50
 41 364 41 364 66 431 c 128,-1,51
 91 498 91 498 138.5 537 c 128,-1,52
 186 576 186 576 253 576 c 0,17,18
EndSplineSet
EndChar

StartChar: e
Encoding: 101 101 360
Width: 521
GlyphClass: 2
Flags: W
AnchorPoint: "Anchor-2" 412 1 basechar 0
AnchorPoint: "Anchor-1" 286 0 basechar 0
AnchorPoint: "Anchor-0" 266 565 basechar 0
LayerCount: 2
Fore
SplineSet
150 276 m 0,0,1
 150 214 150 214 160.5 173.5 c 128,-1,2
 171 133 171 133 190.5 110.5 c 128,-1,3
 210 88 210 88 235.5 79 c 128,-1,4
 261 70 261 70 292 70 c 0,5,6
 325 70 325 70 347.5 79 c 128,-1,7
 370 88 370 88 387 105.5 c 128,-1,8
 404 123 404 123 418 149 c 1,9,-1
 480 111 l 1,10,11
 464 73 464 73 435.5 45 c 128,-1,12
 407 17 407 17 369 2 c 128,-1,13
 331 -13 331 -13 285 -13 c 0,14,15
 213 -13 213 -13 158 18.5 c 128,-1,16
 103 50 103 50 72 114.5 c 128,-1,17
 41 179 41 179 41 276 c 0,18,19
 41 370 41 370 69.5 437 c 128,-1,20
 98 504 98 504 149.5 540 c 128,-1,21
 201 576 201 576 271 576 c 0,22,23
 325 576 325 576 364.5 556.5 c 128,-1,24
 404 537 404 537 429.5 496.5 c 128,-1,25
 455 456 455 456 467.5 394 c 128,-1,26
 480 332 480 332 480 248 c 1,27,-1
 114 248 l 1,28,-1
 114 324 l 1,29,-1
 397 324 l 1,30,-1
 376 293 l 1,31,32
 375 351 375 351 368.5 389.5 c 128,-1,33
 362 428 362 428 349 451 c 128,-1,34
 336 474 336 474 317 484 c 128,-1,35
 298 494 298 494 272 494 c 0,36,37
 243 494 243 494 220 482.5 c 128,-1,38
 197 471 197 471 181.5 445.5 c 128,-1,39
 166 420 166 420 158 378.5 c 128,-1,40
 150 337 150 337 150 276 c 0,0,1
EndSplineSet
EndChar

StartChar: eogonek
Encoding: 281 281 368
Width: 521
GlyphClass: 1
Flags: W
LayerCount: 2
Fore
SplineSet
362 40 m 1,0,-1
 361 1 l 1,1,2
 343 -5 343 -5 325 -9 c 128,-1,3
 307 -13 307 -13 286 -13 c 0,4,5
 214 -13 214 -13 158.5 18.5 c 128,-1,6
 103 50 103 50 72 114.5 c 128,-1,7
 41 179 41 179 41 276 c 0,8,9
 41 370 41 370 69 437 c 128,-1,10
 97 504 97 504 149 540 c 128,-1,11
 201 576 201 576 272 576 c 0,12,13
 326 576 326 576 365 556.5 c 128,-1,14
 404 537 404 537 429.5 497 c 128,-1,15
 455 457 455 457 467.5 395.5 c 128,-1,16
 480 334 480 334 480 250 c 1,17,-1
 110 250 l 1,18,-1
 110 324 l 1,19,-1
 395 324 l 1,20,-1
 376 293 l 1,21,22
 375 352 375 352 368.5 390.5 c 128,-1,23
 362 429 362 429 349.5 452 c 128,-1,24
 337 475 337 475 318 485 c 128,-1,25
 299 495 299 495 273 495 c 0,26,27
 244 495 244 495 221 484 c 128,-1,28
 198 473 198 473 182 447.5 c 128,-1,29
 166 422 166 422 157.5 379.5 c 128,-1,30
 149 337 149 337 149 276 c 0,31,32
 149 214 149 214 159.5 173.5 c 128,-1,33
 170 133 170 133 189.5 110.5 c 128,-1,34
 209 88 209 88 234.5 79 c 128,-1,35
 260 70 260 70 291 70 c 0,36,37
 326 70 326 70 349.5 79 c 128,-1,38
 373 88 373 88 389 106.5 c 128,-1,39
 405 125 405 125 420 151 c 1,40,-1
 480 111 l 1,41,42
 470 88 470 88 454 67 c 128,-1,43
 438 46 438 46 407 20 c 0,44,45
 371 -9 371 -9 347.5 -34 c 128,-1,46
 324 -59 324 -59 310.5 -80 c 128,-1,47
 297 -101 297 -101 290.5 -118.5 c 128,-1,48
 284 -136 284 -136 284 -150 c 0,49,50
 284 -166 284 -166 293 -177 c 128,-1,51
 302 -188 302 -188 320 -188 c 0,52,53
 340 -188 340 -188 357 -173.5 c 128,-1,54
 374 -159 374 -159 386 -144 c 1,55,-1
 425 -184 l 1,56,57
 401 -214 401 -214 370.5 -233 c 128,-1,58
 340 -252 340 -252 293 -252 c 0,59,60
 260 -252 260 -252 233.5 -242 c 128,-1,61
 207 -232 207 -232 191 -211 c 128,-1,62
 175 -190 175 -190 175 -160 c 0,63,64
 175 -136 175 -136 183.5 -116 c 128,-1,65
 192 -96 192 -96 212 -75 c 128,-1,66
 232 -54 232 -54 268.5 -27 c 128,-1,67
 305 0 305 0 362 40 c 1,0,-1
EndSplineSet
EndChar

